G75*
%MOIN*%
%OFA0B0*%
%FSLAX25Y25*%
%IPPOS*%
%LPD*%
%AMOC8*
5,1,8,0,0,1.08239X$1,22.5*
%
%ADD10C,0.15800*%
%ADD11R,0.18400X0.17600*%
%ADD12C,0.04300*%
%ADD13C,0.14643*%
%ADD14C,0.06410*%
%ADD15C,0.04343*%
%ADD16C,0.03769*%
D10*
X0052000Y0052000D03*
X0372000Y0052000D03*
X0372000Y0222000D03*
D11*
X0334500Y0135700D03*
D12*
X0334500Y0137000D03*
X0334500Y0132000D03*
X0329500Y0132000D03*
X0329500Y0137000D03*
X0329500Y0142000D03*
X0334500Y0142000D03*
X0339500Y0142000D03*
X0339500Y0137000D03*
X0339500Y0132000D03*
D13*
X0194750Y0163400D03*
X0154250Y0163400D03*
X0094750Y0163400D03*
X0054250Y0163400D03*
D14*
X0064500Y0187000D03*
X0084500Y0187000D03*
X0164500Y0187000D03*
X0184500Y0187000D03*
D15*
X0217000Y0164500D03*
X0212000Y0152000D03*
X0212000Y0147000D03*
X0212000Y0142000D03*
X0219500Y0129500D03*
X0219500Y0122000D03*
X0219500Y0117000D03*
X0219500Y0107000D03*
X0212000Y0092000D03*
X0187000Y0084500D03*
X0177000Y0094500D03*
X0149500Y0094500D03*
X0147000Y0077000D03*
X0127000Y0074500D03*
X0152000Y0062000D03*
X0157000Y0062000D03*
X0157000Y0057000D03*
X0152000Y0057000D03*
X0152000Y0052000D03*
X0157000Y0052000D03*
X0179500Y0047000D03*
X0184500Y0047000D03*
X0184500Y0042000D03*
X0179500Y0042000D03*
X0109500Y0047000D03*
X0112000Y0092000D03*
X0102000Y0092000D03*
X0097000Y0104500D03*
X0102000Y0212000D03*
X0102000Y0217000D03*
X0102000Y0222000D03*
X0107000Y0222000D03*
X0107000Y0217000D03*
X0107000Y0212000D03*
X0269500Y0127000D03*
X0277500Y0135000D03*
X0277000Y0142000D03*
X0277000Y0147000D03*
X0282000Y0149500D03*
X0277000Y0152000D03*
X0277000Y0157000D03*
X0287000Y0147000D03*
X0307000Y0152000D03*
X0307000Y0157000D03*
X0307000Y0162000D03*
X0327000Y0172000D03*
X0327000Y0177000D03*
X0327000Y0182000D03*
X0319500Y0187000D03*
X0319500Y0192000D03*
X0324500Y0192000D03*
X0329500Y0192000D03*
X0334500Y0192000D03*
X0344500Y0192000D03*
X0349500Y0182000D03*
X0354500Y0182000D03*
X0354500Y0177000D03*
X0349500Y0177000D03*
X0349500Y0172000D03*
X0354500Y0172000D03*
X0362000Y0157000D03*
X0362000Y0139500D03*
X0362000Y0127000D03*
X0362000Y0122000D03*
X0342000Y0119500D03*
X0337000Y0119500D03*
X0332000Y0119500D03*
X0327000Y0119500D03*
X0322000Y0119500D03*
X0307000Y0109500D03*
X0294500Y0109500D03*
X0287000Y0114500D03*
X0274500Y0114500D03*
X0269500Y0107000D03*
X0269500Y0089500D03*
X0277000Y0089500D03*
X0297000Y0087000D03*
X0309500Y0087000D03*
X0342000Y0092000D03*
X0382000Y0094500D03*
X0310500Y0142000D03*
X0304500Y0134500D03*
X0302000Y0119500D03*
X0302000Y0177000D03*
X0297000Y0177000D03*
X0292000Y0177000D03*
X0287000Y0177000D03*
X0282000Y0177000D03*
X0282000Y0197000D03*
X0287000Y0197000D03*
X0292000Y0197000D03*
X0297000Y0197000D03*
X0302000Y0197000D03*
X0309500Y0204500D03*
X0314500Y0204500D03*
X0322000Y0202000D03*
X0327000Y0202000D03*
X0327000Y0207000D03*
X0334500Y0217000D03*
X0344500Y0209500D03*
X0314500Y0224500D03*
X0309500Y0224500D03*
D16*
X0339500Y0234500D03*
X0349500Y0234500D03*
M02*
