%
M48
M72
T01C0.01500
T02C0.01969
T03C0.02362
T04C0.05906
T05C0.09843
T06C0.15000
%
T01
X329500Y132000
X329500Y137000
X334500Y137000
X334500Y132000
X339500Y132000
X339500Y137000
X339500Y142000
X334500Y142000
X329500Y142000
T02
X339500Y234500
X349500Y234500
T03
X334500Y217000
X344500Y209500
X327000Y207000
X327000Y202000
X322000Y202000
X314500Y204500
X309500Y204500
X302000Y197000
X297000Y197000
X292000Y197000
X287000Y197000
X282000Y197000
X282000Y177000
X287000Y177000
X292000Y177000
X297000Y177000
X302000Y177000
X319500Y187000
X319500Y192000
X324500Y192000
X329500Y192000
X334500Y192000
X344500Y192000
X349500Y182000
X354500Y182000
X354500Y177000
X349500Y177000
X349500Y172000
X354500Y172000
X362000Y157000
X362000Y139500
X362000Y127000
X362000Y122000
X342000Y119500
X337000Y119500
X332000Y119500
X327000Y119500
X322000Y119500
X307000Y109500
X294500Y109500
X287000Y114500
X274500Y114500
X269500Y107000
X269500Y89500
X277000Y89500
X297000Y87000
X309500Y87000
X342000Y92000
X382000Y94500
X310500Y142000
X304500Y134500
X302000Y119500
X277500Y135000
X277000Y142000
X277000Y147000
X282000Y149500
X277000Y152000
X277000Y157000
X287000Y147000
X307000Y152000
X307000Y157000
X307000Y162000
X327000Y172000
X327000Y177000
X327000Y182000
X314500Y224500
X309500Y224500
X217000Y164500
X212000Y152000
X212000Y147000
X212000Y142000
X219500Y129500
X219500Y122000
X219500Y117000
X219500Y107000
X212000Y92000
X187000Y84500
X177000Y94500
X149500Y94500
X147000Y77000
X127000Y74500
X152000Y62000
X157000Y62000
X157000Y57000
X152000Y57000
X152000Y52000
X157000Y52000
X179500Y47000
X184500Y47000
X184500Y42000
X179500Y42000
X109500Y47000
X112000Y92000
X102000Y92000
X97000Y104500
X102000Y212000
X102000Y217000
X102000Y222000
X107000Y222000
X107000Y217000
X107000Y212000
X269500Y127000
T04
X184500Y187000
X164500Y187000
X84500Y187000
X64500Y187000
T05
X54250Y163400
X94750Y163400
X154250Y163400
X194750Y163400
T06
X52000Y52000
X372000Y52000
X372000Y222000
M30
