G75*
%MOIN*%
%OFA0B0*%
%FSLAX25Y25*%
%IPPOS*%
%LPD*%
%AMOC8*
5,1,8,0,0,1.08239X$1,22.5*
%
%ADD10C,0.02500*%
%ADD11C,0.13843*%
%ADD12C,0.04724*%
%ADD13C,0.03543*%
%ADD14C,0.01600*%
%ADD15C,0.02969*%
D10*
X0329500Y0132000D03*
X0334500Y0132000D03*
X0334500Y0137000D03*
X0329500Y0137000D03*
X0329500Y0142000D03*
X0334500Y0142000D03*
X0339500Y0142000D03*
X0339500Y0137000D03*
X0339500Y0132000D03*
D11*
X0194750Y0163400D03*
X0154250Y0163400D03*
X0094750Y0163400D03*
X0054250Y0163400D03*
D12*
X0064500Y0187000D03*
X0084500Y0187000D03*
X0164500Y0187000D03*
X0184500Y0187000D03*
D13*
X0217000Y0164500D03*
X0212000Y0152000D03*
X0212000Y0147000D03*
X0212000Y0142000D03*
X0219500Y0129500D03*
X0219500Y0122000D03*
X0219500Y0117000D03*
X0219500Y0107000D03*
X0212000Y0092000D03*
X0187000Y0084500D03*
X0177000Y0094500D03*
X0149500Y0094500D03*
X0147000Y0077000D03*
X0127000Y0074500D03*
X0152000Y0062000D03*
X0157000Y0062000D03*
X0157000Y0057000D03*
X0152000Y0057000D03*
X0152000Y0052000D03*
X0157000Y0052000D03*
X0179500Y0047000D03*
X0184500Y0047000D03*
X0184500Y0042000D03*
X0179500Y0042000D03*
X0109500Y0047000D03*
X0112000Y0092000D03*
X0102000Y0092000D03*
X0097000Y0104500D03*
X0102000Y0212000D03*
X0102000Y0217000D03*
X0102000Y0222000D03*
X0107000Y0222000D03*
X0107000Y0217000D03*
X0107000Y0212000D03*
X0269500Y0127000D03*
X0277500Y0135000D03*
X0277000Y0142000D03*
X0277000Y0147000D03*
X0282000Y0149500D03*
X0277000Y0152000D03*
X0277000Y0157000D03*
X0287000Y0147000D03*
X0307000Y0152000D03*
X0307000Y0157000D03*
X0307000Y0162000D03*
X0327000Y0172000D03*
X0327000Y0177000D03*
X0327000Y0182000D03*
X0319500Y0187000D03*
X0319500Y0192000D03*
X0324500Y0192000D03*
X0329500Y0192000D03*
X0334500Y0192000D03*
X0344500Y0192000D03*
X0349500Y0182000D03*
X0354500Y0182000D03*
X0354500Y0177000D03*
X0349500Y0177000D03*
X0349500Y0172000D03*
X0354500Y0172000D03*
X0362000Y0157000D03*
X0362000Y0139500D03*
X0362000Y0127000D03*
X0362000Y0122000D03*
X0342000Y0119500D03*
X0337000Y0119500D03*
X0332000Y0119500D03*
X0327000Y0119500D03*
X0322000Y0119500D03*
X0307000Y0109500D03*
X0294500Y0109500D03*
X0287000Y0114500D03*
X0274500Y0114500D03*
X0269500Y0107000D03*
X0269500Y0089500D03*
X0277000Y0089500D03*
X0297000Y0087000D03*
X0309500Y0087000D03*
X0342000Y0092000D03*
X0382000Y0094500D03*
X0310500Y0142000D03*
X0304500Y0134500D03*
X0302000Y0119500D03*
X0302000Y0177000D03*
X0297000Y0177000D03*
X0292000Y0177000D03*
X0287000Y0177000D03*
X0282000Y0177000D03*
X0282000Y0197000D03*
X0287000Y0197000D03*
X0292000Y0197000D03*
X0297000Y0197000D03*
X0302000Y0197000D03*
X0309500Y0204500D03*
X0314500Y0204500D03*
X0322000Y0202000D03*
X0327000Y0202000D03*
X0327000Y0207000D03*
X0334500Y0217000D03*
X0344500Y0209500D03*
X0314500Y0224500D03*
X0309500Y0224500D03*
D14*
X0039300Y0234700D02*
X0039300Y0039300D01*
X0222000Y0039300D01*
X0222000Y0120015D01*
X0221297Y0119311D01*
X0220131Y0118828D01*
X0218869Y0118828D01*
X0217703Y0119311D01*
X0216811Y0120203D01*
X0216328Y0121369D01*
X0216328Y0122631D01*
X0216811Y0123797D01*
X0217703Y0124689D01*
X0218869Y0125172D01*
X0220131Y0125172D01*
X0221297Y0124689D01*
X0222000Y0123985D01*
X0222000Y0127515D01*
X0221297Y0126811D01*
X0220131Y0126328D01*
X0218869Y0126328D01*
X0217703Y0126811D01*
X0216811Y0127703D01*
X0216328Y0128869D01*
X0216328Y0130131D01*
X0216811Y0131297D01*
X0217703Y0132189D01*
X0218869Y0132672D01*
X0220131Y0132672D01*
X0221297Y0132189D01*
X0222000Y0131485D01*
X0222000Y0234700D01*
X0039300Y0234700D01*
X0039300Y0233617D02*
X0222000Y0233617D01*
X0222000Y0232018D02*
X0039300Y0232018D01*
X0039300Y0230420D02*
X0222000Y0230420D01*
X0222000Y0228821D02*
X0039300Y0228821D01*
X0039300Y0227223D02*
X0222000Y0227223D01*
X0222000Y0225624D02*
X0039300Y0225624D01*
X0039300Y0224026D02*
X0222000Y0224026D01*
X0222000Y0222427D02*
X0039300Y0222427D01*
X0039300Y0220829D02*
X0222000Y0220829D01*
X0222000Y0219230D02*
X0039300Y0219230D01*
X0039300Y0217632D02*
X0222000Y0217632D01*
X0222000Y0216033D02*
X0039300Y0216033D01*
X0039300Y0214435D02*
X0222000Y0214435D01*
X0222000Y0212836D02*
X0039300Y0212836D01*
X0039300Y0211238D02*
X0222000Y0211238D01*
X0222000Y0209639D02*
X0039300Y0209639D01*
X0039300Y0208041D02*
X0222000Y0208041D01*
X0222000Y0206442D02*
X0039300Y0206442D01*
X0039300Y0204844D02*
X0222000Y0204844D01*
X0222000Y0203245D02*
X0039300Y0203245D01*
X0039300Y0201647D02*
X0222000Y0201647D01*
X0222000Y0200048D02*
X0039300Y0200048D01*
X0039300Y0198450D02*
X0222000Y0198450D01*
X0222000Y0196851D02*
X0039300Y0196851D01*
X0039300Y0195253D02*
X0222000Y0195253D01*
X0222000Y0193654D02*
X0039300Y0193654D01*
X0039300Y0192056D02*
X0222000Y0192056D01*
X0222000Y0190457D02*
X0185985Y0190457D01*
X0186631Y0190189D02*
X0185248Y0190762D01*
X0183752Y0190762D01*
X0182369Y0190189D01*
X0181311Y0189131D01*
X0180738Y0187748D01*
X0180738Y0186252D01*
X0181311Y0184869D01*
X0182369Y0183811D01*
X0183752Y0183238D01*
X0185248Y0183238D01*
X0186631Y0183811D01*
X0187689Y0184869D01*
X0188262Y0186252D01*
X0188262Y0187748D01*
X0187689Y0189131D01*
X0186631Y0190189D01*
X0187802Y0188859D02*
X0222000Y0188859D01*
X0222000Y0187260D02*
X0188262Y0187260D01*
X0188018Y0185662D02*
X0222000Y0185662D01*
X0222000Y0184063D02*
X0186884Y0184063D01*
X0182116Y0184063D02*
X0166884Y0184063D01*
X0166631Y0183811D02*
X0167689Y0184869D01*
X0168262Y0186252D01*
X0168262Y0187748D01*
X0167689Y0189131D01*
X0166631Y0190189D01*
X0165248Y0190762D01*
X0163752Y0190762D01*
X0162369Y0190189D01*
X0161311Y0189131D01*
X0160738Y0187748D01*
X0160738Y0186252D01*
X0161311Y0184869D01*
X0162369Y0183811D01*
X0163752Y0183238D01*
X0165248Y0183238D01*
X0166631Y0183811D01*
X0168018Y0185662D02*
X0180982Y0185662D01*
X0180738Y0187260D02*
X0168262Y0187260D01*
X0167802Y0188859D02*
X0181198Y0188859D01*
X0183015Y0190457D02*
X0165985Y0190457D01*
X0163015Y0190457D02*
X0086823Y0190457D01*
X0086681Y0190560D02*
X0086098Y0190857D01*
X0085475Y0191060D01*
X0084828Y0191162D01*
X0084500Y0191162D01*
X0084500Y0187000D01*
X0088662Y0187000D01*
X0088662Y0187328D01*
X0088560Y0187975D01*
X0088357Y0188598D01*
X0088060Y0189181D01*
X0087675Y0189711D01*
X0087211Y0190175D01*
X0086681Y0190560D01*
X0084500Y0190457D02*
X0084500Y0190457D01*
X0084500Y0191162D02*
X0084172Y0191162D01*
X0083525Y0191060D01*
X0082902Y0190857D01*
X0082319Y0190560D01*
X0081788Y0190175D01*
X0081325Y0189711D01*
X0080940Y0189181D01*
X0080643Y0188598D01*
X0080440Y0187975D01*
X0080338Y0187328D01*
X0080338Y0187000D01*
X0084500Y0187000D01*
X0084500Y0187000D01*
X0084500Y0187000D01*
X0088662Y0187000D01*
X0088662Y0186672D01*
X0088560Y0186025D01*
X0088357Y0185402D01*
X0088060Y0184819D01*
X0087675Y0184288D01*
X0087211Y0183825D01*
X0086681Y0183440D01*
X0086098Y0183143D01*
X0085475Y0182940D01*
X0084828Y0182838D01*
X0084500Y0182838D01*
X0084500Y0187000D01*
X0084500Y0187000D01*
X0084500Y0187000D01*
X0084500Y0191162D01*
X0084500Y0188859D02*
X0084500Y0188859D01*
X0084500Y0187260D02*
X0084500Y0187260D01*
X0084500Y0187000D02*
X0080338Y0187000D01*
X0080338Y0186672D01*
X0080440Y0186025D01*
X0080643Y0185402D01*
X0080940Y0184819D01*
X0081325Y0184288D01*
X0081788Y0183825D01*
X0082319Y0183440D01*
X0082902Y0183143D01*
X0083525Y0182940D01*
X0084172Y0182838D01*
X0084500Y0182838D01*
X0084500Y0187000D01*
X0084500Y0185662D02*
X0084500Y0185662D01*
X0084500Y0184063D02*
X0084500Y0184063D01*
X0087449Y0184063D02*
X0162116Y0184063D01*
X0160982Y0185662D02*
X0088441Y0185662D01*
X0088662Y0187260D02*
X0160738Y0187260D01*
X0161198Y0188859D02*
X0088224Y0188859D01*
X0082177Y0190457D02*
X0065985Y0190457D01*
X0066631Y0190189D02*
X0065248Y0190762D01*
X0063752Y0190762D01*
X0062369Y0190189D01*
X0061311Y0189131D01*
X0060738Y0187748D01*
X0060738Y0186252D01*
X0061311Y0184869D01*
X0062369Y0183811D01*
X0063752Y0183238D01*
X0065248Y0183238D01*
X0066631Y0183811D01*
X0067689Y0184869D01*
X0068262Y0186252D01*
X0068262Y0187748D01*
X0067689Y0189131D01*
X0066631Y0190189D01*
X0067802Y0188859D02*
X0080776Y0188859D01*
X0080338Y0187260D02*
X0068262Y0187260D01*
X0068018Y0185662D02*
X0080558Y0185662D01*
X0081551Y0184063D02*
X0066884Y0184063D01*
X0062116Y0184063D02*
X0039300Y0184063D01*
X0039300Y0182465D02*
X0222000Y0182465D01*
X0222000Y0180866D02*
X0039300Y0180866D01*
X0039300Y0179268D02*
X0222000Y0179268D01*
X0222000Y0177669D02*
X0039300Y0177669D01*
X0039300Y0176070D02*
X0222000Y0176070D01*
X0222000Y0174472D02*
X0039300Y0174472D01*
X0039300Y0172873D02*
X0222000Y0172873D01*
X0222000Y0171275D02*
X0197483Y0171275D01*
X0196405Y0171721D02*
X0199464Y0170454D01*
X0201804Y0168114D01*
X0203071Y0165055D01*
X0203071Y0161745D01*
X0201804Y0158686D01*
X0199464Y0156346D01*
X0196405Y0155079D01*
X0193095Y0155079D01*
X0190036Y0156346D01*
X0187696Y0158686D01*
X0186429Y0161745D01*
X0186429Y0165055D01*
X0187696Y0168114D01*
X0190036Y0170454D01*
X0193095Y0171721D01*
X0196405Y0171721D01*
X0200242Y0169676D02*
X0222000Y0169676D01*
X0222000Y0168078D02*
X0201819Y0168078D01*
X0202481Y0166479D02*
X0214494Y0166479D01*
X0214311Y0166297D02*
X0213828Y0165131D01*
X0213828Y0163869D01*
X0214311Y0162703D01*
X0215203Y0161811D01*
X0216369Y0161328D01*
X0217631Y0161328D01*
X0218797Y0161811D01*
X0219689Y0162703D01*
X0220172Y0163869D01*
X0220172Y0165131D01*
X0219689Y0166297D01*
X0218797Y0167189D01*
X0217631Y0167672D01*
X0216369Y0167672D01*
X0215203Y0167189D01*
X0214311Y0166297D01*
X0213828Y0164881D02*
X0203071Y0164881D01*
X0203071Y0163282D02*
X0214071Y0163282D01*
X0215511Y0161684D02*
X0203046Y0161684D01*
X0202384Y0160085D02*
X0222000Y0160085D01*
X0222000Y0158487D02*
X0201605Y0158487D01*
X0200006Y0156888D02*
X0222000Y0156888D01*
X0222000Y0155290D02*
X0196915Y0155290D01*
X0192585Y0155290D02*
X0156415Y0155290D01*
X0155905Y0155079D02*
X0158964Y0156346D01*
X0161304Y0158686D01*
X0162571Y0161745D01*
X0162571Y0165055D01*
X0161304Y0168114D01*
X0158964Y0170454D01*
X0155905Y0171721D01*
X0152595Y0171721D01*
X0149536Y0170454D01*
X0147196Y0168114D01*
X0145929Y0165055D01*
X0145929Y0161745D01*
X0147196Y0158686D01*
X0149536Y0156346D01*
X0152595Y0155079D01*
X0155905Y0155079D01*
X0152085Y0155290D02*
X0096915Y0155290D01*
X0096405Y0155079D02*
X0099464Y0156346D01*
X0101804Y0158686D01*
X0103071Y0161745D01*
X0103071Y0165055D01*
X0101804Y0168114D01*
X0099464Y0170454D01*
X0096405Y0171721D01*
X0093095Y0171721D01*
X0090036Y0170454D01*
X0087696Y0168114D01*
X0086429Y0165055D01*
X0086429Y0161745D01*
X0087696Y0158686D01*
X0090036Y0156346D01*
X0093095Y0155079D01*
X0096405Y0155079D01*
X0092585Y0155290D02*
X0056415Y0155290D01*
X0055905Y0155079D02*
X0058964Y0156346D01*
X0061304Y0158686D01*
X0062571Y0161745D01*
X0062571Y0165055D01*
X0061304Y0168114D01*
X0058964Y0170454D01*
X0055905Y0171721D01*
X0052595Y0171721D01*
X0049536Y0170454D01*
X0047196Y0168114D01*
X0045929Y0165055D01*
X0045929Y0161745D01*
X0047196Y0158686D01*
X0049536Y0156346D01*
X0052595Y0155079D01*
X0055905Y0155079D01*
X0052085Y0155290D02*
X0039300Y0155290D01*
X0039300Y0156888D02*
X0048994Y0156888D01*
X0047395Y0158487D02*
X0039300Y0158487D01*
X0039300Y0160085D02*
X0046616Y0160085D01*
X0045954Y0161684D02*
X0039300Y0161684D01*
X0039300Y0163282D02*
X0045929Y0163282D01*
X0045929Y0164881D02*
X0039300Y0164881D01*
X0039300Y0166479D02*
X0046519Y0166479D01*
X0047181Y0168078D02*
X0039300Y0168078D01*
X0039300Y0169676D02*
X0048758Y0169676D01*
X0051517Y0171275D02*
X0039300Y0171275D01*
X0056983Y0171275D02*
X0092017Y0171275D01*
X0089258Y0169676D02*
X0059742Y0169676D01*
X0061319Y0168078D02*
X0087681Y0168078D01*
X0087019Y0166479D02*
X0061981Y0166479D01*
X0062571Y0164881D02*
X0086429Y0164881D01*
X0086429Y0163282D02*
X0062571Y0163282D01*
X0062546Y0161684D02*
X0086454Y0161684D01*
X0087116Y0160085D02*
X0061884Y0160085D01*
X0061105Y0158487D02*
X0087895Y0158487D01*
X0089494Y0156888D02*
X0059506Y0156888D01*
X0039300Y0153691D02*
X0222000Y0153691D01*
X0222000Y0152093D02*
X0039300Y0152093D01*
X0039300Y0150494D02*
X0222000Y0150494D01*
X0222000Y0148896D02*
X0039300Y0148896D01*
X0039300Y0147297D02*
X0222000Y0147297D01*
X0222000Y0145699D02*
X0039300Y0145699D01*
X0039300Y0144100D02*
X0222000Y0144100D01*
X0222000Y0142502D02*
X0039300Y0142502D01*
X0039300Y0140903D02*
X0222000Y0140903D01*
X0222000Y0139305D02*
X0039300Y0139305D01*
X0039300Y0137706D02*
X0222000Y0137706D01*
X0222000Y0136108D02*
X0039300Y0136108D01*
X0039300Y0134509D02*
X0222000Y0134509D01*
X0222000Y0132911D02*
X0039300Y0132911D01*
X0039300Y0131312D02*
X0216827Y0131312D01*
X0216328Y0129714D02*
X0039300Y0129714D01*
X0039300Y0128115D02*
X0216641Y0128115D01*
X0218415Y0126517D02*
X0039300Y0126517D01*
X0039300Y0124918D02*
X0218257Y0124918D01*
X0216614Y0123320D02*
X0039300Y0123320D01*
X0039300Y0121721D02*
X0216328Y0121721D01*
X0216892Y0120123D02*
X0039300Y0120123D01*
X0039300Y0118524D02*
X0222000Y0118524D01*
X0222000Y0116926D02*
X0039300Y0116926D01*
X0039300Y0115327D02*
X0222000Y0115327D01*
X0222000Y0113729D02*
X0039300Y0113729D01*
X0039300Y0112130D02*
X0222000Y0112130D01*
X0222000Y0110532D02*
X0039300Y0110532D01*
X0039300Y0108933D02*
X0222000Y0108933D01*
X0222000Y0107334D02*
X0039300Y0107334D01*
X0039300Y0105736D02*
X0222000Y0105736D01*
X0222000Y0104137D02*
X0039300Y0104137D01*
X0039300Y0102539D02*
X0222000Y0102539D01*
X0222000Y0100940D02*
X0039300Y0100940D01*
X0039300Y0099342D02*
X0222000Y0099342D01*
X0222000Y0097743D02*
X0039300Y0097743D01*
X0039300Y0096145D02*
X0146748Y0096145D01*
X0146811Y0096297D02*
X0146328Y0095131D01*
X0146328Y0093869D01*
X0146811Y0092703D01*
X0147703Y0091811D01*
X0148869Y0091328D01*
X0150131Y0091328D01*
X0151297Y0091811D01*
X0152189Y0092703D01*
X0152672Y0093869D01*
X0152672Y0095131D01*
X0152189Y0096297D01*
X0151297Y0097189D01*
X0150131Y0097672D01*
X0148869Y0097672D01*
X0147703Y0097189D01*
X0146811Y0096297D01*
X0146328Y0094546D02*
X0113939Y0094546D01*
X0113797Y0094689D02*
X0112631Y0095172D01*
X0111369Y0095172D01*
X0110203Y0094689D01*
X0109311Y0093797D01*
X0108828Y0092631D01*
X0108828Y0091369D01*
X0109311Y0090203D01*
X0110203Y0089311D01*
X0111369Y0088828D01*
X0112631Y0088828D01*
X0113797Y0089311D01*
X0114689Y0090203D01*
X0115172Y0091369D01*
X0115172Y0092631D01*
X0114689Y0093797D01*
X0113797Y0094689D01*
X0115040Y0092948D02*
X0146710Y0092948D01*
X0148818Y0091349D02*
X0115163Y0091349D01*
X0114236Y0089751D02*
X0209764Y0089751D01*
X0210203Y0089311D02*
X0211369Y0088828D01*
X0212631Y0088828D01*
X0213797Y0089311D01*
X0214689Y0090203D01*
X0215172Y0091369D01*
X0215172Y0092631D01*
X0214689Y0093797D01*
X0213797Y0094689D01*
X0212631Y0095172D01*
X0211369Y0095172D01*
X0210203Y0094689D01*
X0209311Y0093797D01*
X0208828Y0092631D01*
X0208828Y0091369D01*
X0209311Y0090203D01*
X0210203Y0089311D01*
X0208837Y0091349D02*
X0177682Y0091349D01*
X0177631Y0091328D02*
X0178797Y0091811D01*
X0179689Y0092703D01*
X0180172Y0093869D01*
X0180172Y0095131D01*
X0179689Y0096297D01*
X0178797Y0097189D01*
X0177631Y0097672D01*
X0176369Y0097672D01*
X0175203Y0097189D01*
X0174311Y0096297D01*
X0173828Y0095131D01*
X0173828Y0093869D01*
X0174311Y0092703D01*
X0175203Y0091811D01*
X0176369Y0091328D01*
X0177631Y0091328D01*
X0176318Y0091349D02*
X0150182Y0091349D01*
X0152290Y0092948D02*
X0174210Y0092948D01*
X0173828Y0094546D02*
X0152672Y0094546D01*
X0152252Y0096145D02*
X0174248Y0096145D01*
X0179752Y0096145D02*
X0222000Y0096145D01*
X0222000Y0094546D02*
X0213939Y0094546D01*
X0215040Y0092948D02*
X0222000Y0092948D01*
X0222000Y0091349D02*
X0215163Y0091349D01*
X0214236Y0089751D02*
X0222000Y0089751D01*
X0222000Y0088152D02*
X0039300Y0088152D01*
X0039300Y0086554D02*
X0184568Y0086554D01*
X0184311Y0086297D02*
X0183828Y0085131D01*
X0183828Y0083869D01*
X0184311Y0082703D01*
X0185203Y0081811D01*
X0186369Y0081328D01*
X0187631Y0081328D01*
X0188797Y0081811D01*
X0189689Y0082703D01*
X0190172Y0083869D01*
X0190172Y0085131D01*
X0189689Y0086297D01*
X0188797Y0087189D01*
X0187631Y0087672D01*
X0186369Y0087672D01*
X0185203Y0087189D01*
X0184311Y0086297D01*
X0183828Y0084955D02*
X0039300Y0084955D01*
X0039300Y0083357D02*
X0184041Y0083357D01*
X0185331Y0081758D02*
X0039300Y0081758D01*
X0039300Y0080160D02*
X0222000Y0080160D01*
X0222000Y0081758D02*
X0188669Y0081758D01*
X0189959Y0083357D02*
X0222000Y0083357D01*
X0222000Y0084955D02*
X0190172Y0084955D01*
X0189432Y0086554D02*
X0222000Y0086554D01*
X0222000Y0078561D02*
X0039300Y0078561D01*
X0039300Y0076963D02*
X0124977Y0076963D01*
X0125203Y0077189D02*
X0124311Y0076297D01*
X0123828Y0075131D01*
X0123828Y0073869D01*
X0124311Y0072703D01*
X0125203Y0071811D01*
X0126369Y0071328D01*
X0127631Y0071328D01*
X0128797Y0071811D01*
X0129689Y0072703D01*
X0130172Y0073869D01*
X0130172Y0075131D01*
X0129689Y0076297D01*
X0128797Y0077189D01*
X0127631Y0077672D01*
X0126369Y0077672D01*
X0125203Y0077189D01*
X0123925Y0075364D02*
X0039300Y0075364D01*
X0039300Y0073766D02*
X0123871Y0073766D01*
X0124847Y0072167D02*
X0039300Y0072167D01*
X0039300Y0070569D02*
X0222000Y0070569D01*
X0222000Y0072167D02*
X0129153Y0072167D01*
X0130129Y0073766D02*
X0222000Y0073766D01*
X0222000Y0075364D02*
X0130075Y0075364D01*
X0129023Y0076963D02*
X0222000Y0076963D01*
X0222000Y0068970D02*
X0039300Y0068970D01*
X0039300Y0067372D02*
X0222000Y0067372D01*
X0222000Y0065773D02*
X0039300Y0065773D01*
X0039300Y0064175D02*
X0149689Y0064175D01*
X0149311Y0063797D02*
X0148828Y0062631D01*
X0148828Y0061369D01*
X0149311Y0060203D01*
X0150015Y0059500D01*
X0149311Y0058797D01*
X0148828Y0057631D01*
X0148828Y0056369D01*
X0149311Y0055203D01*
X0150015Y0054500D01*
X0149311Y0053797D01*
X0148828Y0052631D01*
X0148828Y0051369D01*
X0149311Y0050203D01*
X0150203Y0049311D01*
X0151369Y0048828D01*
X0152631Y0048828D01*
X0153797Y0049311D01*
X0154500Y0050015D01*
X0155203Y0049311D01*
X0156369Y0048828D01*
X0157631Y0048828D01*
X0158797Y0049311D01*
X0159689Y0050203D01*
X0160172Y0051369D01*
X0160172Y0052631D01*
X0159689Y0053797D01*
X0158985Y0054500D01*
X0159689Y0055203D01*
X0160172Y0056369D01*
X0160172Y0057631D01*
X0159689Y0058797D01*
X0158985Y0059500D01*
X0159689Y0060203D01*
X0160172Y0061369D01*
X0160172Y0062631D01*
X0159689Y0063797D01*
X0158797Y0064689D01*
X0157631Y0065172D01*
X0156369Y0065172D01*
X0155203Y0064689D01*
X0154500Y0063985D01*
X0153797Y0064689D01*
X0152631Y0065172D01*
X0151369Y0065172D01*
X0150203Y0064689D01*
X0149311Y0063797D01*
X0148828Y0062576D02*
X0039300Y0062576D01*
X0039300Y0060978D02*
X0048065Y0060978D01*
X0046449Y0060308D02*
X0050051Y0061800D01*
X0053949Y0061800D01*
X0057551Y0060308D01*
X0060308Y0057551D01*
X0061800Y0053949D01*
X0061800Y0050051D01*
X0060308Y0046449D01*
X0057551Y0043692D01*
X0053949Y0042200D01*
X0050051Y0042200D01*
X0046449Y0043692D01*
X0043692Y0046449D01*
X0042200Y0050051D01*
X0042200Y0053949D01*
X0043692Y0057551D01*
X0046449Y0060308D01*
X0045520Y0059379D02*
X0039300Y0059379D01*
X0039300Y0057781D02*
X0043921Y0057781D01*
X0043125Y0056182D02*
X0039300Y0056182D01*
X0039300Y0054584D02*
X0042463Y0054584D01*
X0042200Y0052985D02*
X0039300Y0052985D01*
X0039300Y0051387D02*
X0042200Y0051387D01*
X0042309Y0049788D02*
X0039300Y0049788D01*
X0039300Y0048190D02*
X0042971Y0048190D01*
X0043633Y0046591D02*
X0039300Y0046591D01*
X0039300Y0044993D02*
X0045148Y0044993D01*
X0047168Y0043394D02*
X0039300Y0043394D01*
X0039300Y0041796D02*
X0222000Y0041796D01*
X0222000Y0043394D02*
X0056832Y0043394D01*
X0058852Y0044993D02*
X0222000Y0044993D01*
X0222000Y0046591D02*
X0060367Y0046591D01*
X0061029Y0048190D02*
X0222000Y0048190D01*
X0222000Y0049788D02*
X0159273Y0049788D01*
X0160172Y0051387D02*
X0222000Y0051387D01*
X0222000Y0052985D02*
X0160025Y0052985D01*
X0159069Y0054584D02*
X0222000Y0054584D01*
X0222000Y0056182D02*
X0160094Y0056182D01*
X0160110Y0057781D02*
X0222000Y0057781D01*
X0222000Y0059379D02*
X0159106Y0059379D01*
X0160009Y0060978D02*
X0222000Y0060978D01*
X0222000Y0062576D02*
X0160172Y0062576D01*
X0159311Y0064175D02*
X0222000Y0064175D01*
X0222000Y0040197D02*
X0039300Y0040197D01*
X0061691Y0049788D02*
X0149727Y0049788D01*
X0148828Y0051387D02*
X0061800Y0051387D01*
X0061800Y0052985D02*
X0148975Y0052985D01*
X0149931Y0054584D02*
X0061537Y0054584D01*
X0060875Y0056182D02*
X0148906Y0056182D01*
X0148890Y0057781D02*
X0060079Y0057781D01*
X0058480Y0059379D02*
X0149894Y0059379D01*
X0148990Y0060978D02*
X0055935Y0060978D01*
X0039300Y0089751D02*
X0109764Y0089751D01*
X0108837Y0091349D02*
X0039300Y0091349D01*
X0039300Y0092948D02*
X0108960Y0092948D01*
X0110061Y0094546D02*
X0039300Y0094546D01*
X0100006Y0156888D02*
X0148994Y0156888D01*
X0147395Y0158487D02*
X0101605Y0158487D01*
X0102384Y0160085D02*
X0146616Y0160085D01*
X0145954Y0161684D02*
X0103046Y0161684D01*
X0103071Y0163282D02*
X0145929Y0163282D01*
X0145929Y0164881D02*
X0103071Y0164881D01*
X0102481Y0166479D02*
X0146519Y0166479D01*
X0147181Y0168078D02*
X0101819Y0168078D01*
X0100242Y0169676D02*
X0148758Y0169676D01*
X0151517Y0171275D02*
X0097483Y0171275D01*
X0060982Y0185662D02*
X0039300Y0185662D01*
X0039300Y0187260D02*
X0060738Y0187260D01*
X0061198Y0188859D02*
X0039300Y0188859D01*
X0039300Y0190457D02*
X0063015Y0190457D01*
X0156983Y0171275D02*
X0192017Y0171275D01*
X0189258Y0169676D02*
X0159742Y0169676D01*
X0161319Y0168078D02*
X0187681Y0168078D01*
X0187019Y0166479D02*
X0161981Y0166479D01*
X0162571Y0164881D02*
X0186429Y0164881D01*
X0186429Y0163282D02*
X0162571Y0163282D01*
X0162546Y0161684D02*
X0186454Y0161684D01*
X0187116Y0160085D02*
X0161884Y0160085D01*
X0161105Y0158487D02*
X0187895Y0158487D01*
X0189494Y0156888D02*
X0159506Y0156888D01*
X0218489Y0161684D02*
X0222000Y0161684D01*
X0222000Y0163282D02*
X0219929Y0163282D01*
X0220172Y0164881D02*
X0222000Y0164881D01*
X0222000Y0166479D02*
X0219506Y0166479D01*
X0267000Y0166479D02*
X0384700Y0166479D01*
X0384700Y0164881D02*
X0267000Y0164881D01*
X0267000Y0163282D02*
X0384700Y0163282D01*
X0384700Y0161684D02*
X0267000Y0161684D01*
X0267000Y0160085D02*
X0276161Y0160085D01*
X0276369Y0160172D02*
X0275203Y0159689D01*
X0274311Y0158797D01*
X0273828Y0157631D01*
X0273828Y0156369D01*
X0274311Y0155203D01*
X0275015Y0154500D01*
X0274311Y0153797D01*
X0273828Y0152631D01*
X0273828Y0151369D01*
X0274311Y0150203D01*
X0275015Y0149500D01*
X0274311Y0148797D01*
X0273828Y0147631D01*
X0273828Y0146369D01*
X0274311Y0145203D01*
X0275015Y0144500D01*
X0274311Y0143797D01*
X0273828Y0142631D01*
X0273828Y0141369D01*
X0274311Y0140203D01*
X0275203Y0139311D01*
X0276369Y0138828D01*
X0277631Y0138828D01*
X0278797Y0139311D01*
X0279689Y0140203D01*
X0280172Y0141369D01*
X0280172Y0142631D01*
X0279689Y0143797D01*
X0278985Y0144500D01*
X0279689Y0145203D01*
X0280172Y0146369D01*
X0280172Y0146843D01*
X0280203Y0146811D01*
X0281369Y0146328D01*
X0282631Y0146328D01*
X0283797Y0146811D01*
X0283828Y0146843D01*
X0283828Y0146369D01*
X0284311Y0145203D01*
X0285203Y0144311D01*
X0286369Y0143828D01*
X0287631Y0143828D01*
X0288797Y0144311D01*
X0289689Y0145203D01*
X0290172Y0146369D01*
X0290172Y0147631D01*
X0289689Y0148797D01*
X0288797Y0149689D01*
X0287631Y0150172D01*
X0286369Y0150172D01*
X0285203Y0149689D01*
X0285172Y0149657D01*
X0285172Y0150131D01*
X0284689Y0151297D01*
X0283797Y0152189D01*
X0282631Y0152672D01*
X0281369Y0152672D01*
X0280203Y0152189D01*
X0280172Y0152157D01*
X0280172Y0152631D01*
X0279689Y0153797D01*
X0278985Y0154500D01*
X0279689Y0155203D01*
X0280172Y0156369D01*
X0280172Y0157631D01*
X0279689Y0158797D01*
X0278797Y0159689D01*
X0277631Y0160172D01*
X0276369Y0160172D01*
X0277839Y0160085D02*
X0384700Y0160085D01*
X0384700Y0158487D02*
X0279817Y0158487D01*
X0280172Y0156888D02*
X0384700Y0156888D01*
X0384700Y0155290D02*
X0279725Y0155290D01*
X0279732Y0153691D02*
X0384700Y0153691D01*
X0384700Y0152093D02*
X0283893Y0152093D01*
X0285021Y0150494D02*
X0384700Y0150494D01*
X0384700Y0148896D02*
X0289590Y0148896D01*
X0290172Y0147297D02*
X0384700Y0147297D01*
X0384700Y0145699D02*
X0289894Y0145699D01*
X0288287Y0144100D02*
X0308115Y0144100D01*
X0307811Y0143797D02*
X0307328Y0142631D01*
X0307328Y0141369D01*
X0307811Y0140203D01*
X0308703Y0139311D01*
X0309869Y0138828D01*
X0311131Y0138828D01*
X0312297Y0139311D01*
X0313189Y0140203D01*
X0313672Y0141369D01*
X0313672Y0142631D01*
X0313189Y0143797D01*
X0312297Y0144689D01*
X0311131Y0145172D01*
X0309869Y0145172D01*
X0308703Y0144689D01*
X0307811Y0143797D01*
X0307328Y0142502D02*
X0280172Y0142502D01*
X0279979Y0140903D02*
X0307521Y0140903D01*
X0308719Y0139305D02*
X0278781Y0139305D01*
X0278131Y0138172D02*
X0276869Y0138172D01*
X0275703Y0137689D01*
X0274811Y0136797D01*
X0274328Y0135631D01*
X0274328Y0134369D01*
X0274811Y0133203D01*
X0275703Y0132311D01*
X0276869Y0131828D01*
X0278131Y0131828D01*
X0279297Y0132311D01*
X0280189Y0133203D01*
X0280672Y0134369D01*
X0280672Y0135631D01*
X0280189Y0136797D01*
X0279297Y0137689D01*
X0278131Y0138172D01*
X0279255Y0137706D02*
X0326924Y0137706D01*
X0326850Y0137527D02*
X0326850Y0136473D01*
X0327253Y0135499D01*
X0327999Y0134753D01*
X0328611Y0134500D01*
X0327999Y0134247D01*
X0327253Y0133501D01*
X0326850Y0132527D01*
X0326850Y0131473D01*
X0327253Y0130499D01*
X0327999Y0129753D01*
X0328973Y0129350D01*
X0330027Y0129350D01*
X0331001Y0129753D01*
X0331747Y0130499D01*
X0332000Y0131111D01*
X0332253Y0130499D01*
X0332999Y0129753D01*
X0333973Y0129350D01*
X0335027Y0129350D01*
X0336001Y0129753D01*
X0336747Y0130499D01*
X0337000Y0131111D01*
X0337253Y0130499D01*
X0337999Y0129753D01*
X0338973Y0129350D01*
X0340027Y0129350D01*
X0341001Y0129753D01*
X0341747Y0130499D01*
X0342150Y0131473D01*
X0342150Y0132527D01*
X0341747Y0133501D01*
X0341001Y0134247D01*
X0340389Y0134500D01*
X0341001Y0134753D01*
X0341747Y0135499D01*
X0342150Y0136473D01*
X0342150Y0137527D01*
X0341747Y0138501D01*
X0341001Y0139247D01*
X0340389Y0139500D01*
X0341001Y0139753D01*
X0341747Y0140499D01*
X0342150Y0141473D01*
X0342150Y0142527D01*
X0341747Y0143501D01*
X0341001Y0144247D01*
X0340027Y0144650D01*
X0338973Y0144650D01*
X0337999Y0144247D01*
X0337253Y0143501D01*
X0337000Y0142889D01*
X0336747Y0143501D01*
X0336001Y0144247D01*
X0335027Y0144650D01*
X0333973Y0144650D01*
X0332999Y0144247D01*
X0332253Y0143501D01*
X0332000Y0142889D01*
X0331747Y0143501D01*
X0331001Y0144247D01*
X0330027Y0144650D01*
X0328973Y0144650D01*
X0327999Y0144247D01*
X0327253Y0143501D01*
X0326850Y0142527D01*
X0326850Y0141473D01*
X0327253Y0140499D01*
X0327999Y0139753D01*
X0328611Y0139500D01*
X0327999Y0139247D01*
X0327253Y0138501D01*
X0326850Y0137527D01*
X0327001Y0136108D02*
X0280474Y0136108D01*
X0280672Y0134509D02*
X0328589Y0134509D01*
X0327009Y0132911D02*
X0279896Y0132911D01*
X0275104Y0132911D02*
X0267000Y0132911D01*
X0267000Y0134509D02*
X0274328Y0134509D01*
X0274526Y0136108D02*
X0267000Y0136108D01*
X0267000Y0137706D02*
X0275745Y0137706D01*
X0275219Y0139305D02*
X0267000Y0139305D01*
X0267000Y0140903D02*
X0274021Y0140903D01*
X0273828Y0142502D02*
X0267000Y0142502D01*
X0267000Y0144100D02*
X0274615Y0144100D01*
X0274106Y0145699D02*
X0267000Y0145699D01*
X0267000Y0147297D02*
X0273828Y0147297D01*
X0274410Y0148896D02*
X0267000Y0148896D01*
X0267000Y0150494D02*
X0274191Y0150494D01*
X0273828Y0152093D02*
X0267000Y0152093D01*
X0267000Y0153691D02*
X0274268Y0153691D01*
X0274275Y0155290D02*
X0267000Y0155290D01*
X0267000Y0156888D02*
X0273828Y0156888D01*
X0274183Y0158487D02*
X0267000Y0158487D01*
X0267000Y0168078D02*
X0384700Y0168078D01*
X0384700Y0169676D02*
X0356662Y0169676D01*
X0356297Y0169311D02*
X0357189Y0170203D01*
X0357672Y0171369D01*
X0357672Y0172631D01*
X0357189Y0173797D01*
X0356485Y0174500D01*
X0357189Y0175203D01*
X0357672Y0176369D01*
X0357672Y0177631D01*
X0357189Y0178797D01*
X0356485Y0179500D01*
X0357189Y0180203D01*
X0357672Y0181369D01*
X0357672Y0182631D01*
X0357189Y0183797D01*
X0356297Y0184689D01*
X0355131Y0185172D01*
X0353869Y0185172D01*
X0352703Y0184689D01*
X0352000Y0183985D01*
X0351297Y0184689D01*
X0350131Y0185172D01*
X0348869Y0185172D01*
X0347703Y0184689D01*
X0346811Y0183797D01*
X0346328Y0182631D01*
X0346328Y0181369D01*
X0346811Y0180203D01*
X0347515Y0179500D01*
X0346811Y0178797D01*
X0346328Y0177631D01*
X0346328Y0176369D01*
X0346811Y0175203D01*
X0347515Y0174500D01*
X0346811Y0173797D01*
X0346328Y0172631D01*
X0346328Y0171369D01*
X0346811Y0170203D01*
X0347703Y0169311D01*
X0348869Y0168828D01*
X0350131Y0168828D01*
X0351297Y0169311D01*
X0352000Y0170015D01*
X0352703Y0169311D01*
X0353869Y0168828D01*
X0355131Y0168828D01*
X0356297Y0169311D01*
X0357633Y0171275D02*
X0384700Y0171275D01*
X0384700Y0172873D02*
X0357571Y0172873D01*
X0356513Y0174472D02*
X0384700Y0174472D01*
X0384700Y0176070D02*
X0357548Y0176070D01*
X0357656Y0177669D02*
X0384700Y0177669D01*
X0384700Y0179268D02*
X0356718Y0179268D01*
X0357463Y0180866D02*
X0384700Y0180866D01*
X0384700Y0182465D02*
X0357672Y0182465D01*
X0356922Y0184063D02*
X0384700Y0184063D01*
X0384700Y0185662D02*
X0322379Y0185662D01*
X0322189Y0185203D02*
X0322672Y0186369D01*
X0322672Y0187631D01*
X0322189Y0188797D01*
X0321485Y0189500D01*
X0322000Y0190015D01*
X0322703Y0189311D01*
X0323869Y0188828D01*
X0325131Y0188828D01*
X0326297Y0189311D01*
X0327000Y0190015D01*
X0327703Y0189311D01*
X0328869Y0188828D01*
X0330131Y0188828D01*
X0331297Y0189311D01*
X0332000Y0190015D01*
X0332703Y0189311D01*
X0333869Y0188828D01*
X0335131Y0188828D01*
X0336297Y0189311D01*
X0337189Y0190203D01*
X0337672Y0191369D01*
X0337672Y0192631D01*
X0337189Y0193797D01*
X0336297Y0194689D01*
X0335131Y0195172D01*
X0333869Y0195172D01*
X0332703Y0194689D01*
X0332000Y0193985D01*
X0331297Y0194689D01*
X0330131Y0195172D01*
X0328869Y0195172D01*
X0327703Y0194689D01*
X0327000Y0193985D01*
X0326297Y0194689D01*
X0325131Y0195172D01*
X0323869Y0195172D01*
X0322703Y0194689D01*
X0322000Y0193985D01*
X0321297Y0194689D01*
X0320131Y0195172D01*
X0318869Y0195172D01*
X0317703Y0194689D01*
X0316811Y0193797D01*
X0316328Y0192631D01*
X0316328Y0191369D01*
X0316811Y0190203D01*
X0317515Y0189500D01*
X0316811Y0188797D01*
X0316328Y0187631D01*
X0316328Y0186369D01*
X0316811Y0185203D01*
X0317703Y0184311D01*
X0318869Y0183828D01*
X0320131Y0183828D01*
X0321297Y0184311D01*
X0322189Y0185203D01*
X0320697Y0184063D02*
X0347078Y0184063D01*
X0346328Y0182465D02*
X0267000Y0182465D01*
X0267000Y0184063D02*
X0318302Y0184063D01*
X0316621Y0185662D02*
X0267000Y0185662D01*
X0267000Y0187260D02*
X0316328Y0187260D01*
X0316873Y0188859D02*
X0267000Y0188859D01*
X0267000Y0190457D02*
X0316706Y0190457D01*
X0316328Y0192056D02*
X0267000Y0192056D01*
X0267000Y0193654D02*
X0316752Y0193654D01*
X0322127Y0188859D02*
X0323796Y0188859D01*
X0325204Y0188859D02*
X0328796Y0188859D01*
X0330204Y0188859D02*
X0333796Y0188859D01*
X0335204Y0188859D02*
X0343796Y0188859D01*
X0343869Y0188828D02*
X0345131Y0188828D01*
X0346297Y0189311D01*
X0347189Y0190203D01*
X0347672Y0191369D01*
X0347672Y0192631D01*
X0347189Y0193797D01*
X0346297Y0194689D01*
X0345131Y0195172D01*
X0343869Y0195172D01*
X0342703Y0194689D01*
X0341811Y0193797D01*
X0341328Y0192631D01*
X0341328Y0191369D01*
X0341811Y0190203D01*
X0342703Y0189311D01*
X0343869Y0188828D01*
X0345204Y0188859D02*
X0384700Y0188859D01*
X0384700Y0190457D02*
X0347294Y0190457D01*
X0347672Y0192056D02*
X0384700Y0192056D01*
X0384700Y0193654D02*
X0347248Y0193654D01*
X0341752Y0193654D02*
X0337248Y0193654D01*
X0337672Y0192056D02*
X0341328Y0192056D01*
X0341706Y0190457D02*
X0337294Y0190457D01*
X0346537Y0180866D02*
X0267000Y0180866D01*
X0267000Y0179268D02*
X0347282Y0179268D01*
X0346344Y0177669D02*
X0267000Y0177669D01*
X0267000Y0176070D02*
X0346452Y0176070D01*
X0347487Y0174472D02*
X0267000Y0174472D01*
X0267000Y0172873D02*
X0346429Y0172873D01*
X0346367Y0171275D02*
X0267000Y0171275D01*
X0267000Y0169676D02*
X0347338Y0169676D01*
X0351662Y0169676D02*
X0352338Y0169676D01*
X0352078Y0184063D02*
X0351922Y0184063D01*
X0322672Y0187260D02*
X0384700Y0187260D01*
X0384700Y0195253D02*
X0304709Y0195253D01*
X0304689Y0195203D02*
X0305172Y0196369D01*
X0305172Y0197631D01*
X0304689Y0198797D01*
X0303797Y0199689D01*
X0302631Y0200172D01*
X0301369Y0200172D01*
X0300203Y0199689D01*
X0299500Y0198985D01*
X0298797Y0199689D01*
X0297631Y0200172D01*
X0296369Y0200172D01*
X0295203Y0199689D01*
X0294500Y0198985D01*
X0293797Y0199689D01*
X0292631Y0200172D01*
X0291369Y0200172D01*
X0290203Y0199689D01*
X0289500Y0198985D01*
X0288797Y0199689D01*
X0287631Y0200172D01*
X0286369Y0200172D01*
X0285203Y0199689D01*
X0284500Y0198985D01*
X0283797Y0199689D01*
X0282631Y0200172D01*
X0281369Y0200172D01*
X0280203Y0199689D01*
X0279311Y0198797D01*
X0278828Y0197631D01*
X0278828Y0196369D01*
X0279311Y0195203D01*
X0280203Y0194311D01*
X0281369Y0193828D01*
X0282631Y0193828D01*
X0283797Y0194311D01*
X0284500Y0195015D01*
X0285203Y0194311D01*
X0286369Y0193828D01*
X0287631Y0193828D01*
X0288797Y0194311D01*
X0289500Y0195015D01*
X0290203Y0194311D01*
X0291369Y0193828D01*
X0292631Y0193828D01*
X0293797Y0194311D01*
X0294500Y0195015D01*
X0295203Y0194311D01*
X0296369Y0193828D01*
X0297631Y0193828D01*
X0298797Y0194311D01*
X0299500Y0195015D01*
X0300203Y0194311D01*
X0301369Y0193828D01*
X0302631Y0193828D01*
X0303797Y0194311D01*
X0304689Y0195203D01*
X0305172Y0196851D02*
X0384700Y0196851D01*
X0384700Y0198450D02*
X0304833Y0198450D01*
X0302929Y0200048D02*
X0384700Y0200048D01*
X0384700Y0201647D02*
X0315899Y0201647D01*
X0316297Y0201811D02*
X0317189Y0202703D01*
X0317672Y0203869D01*
X0317672Y0205131D01*
X0317189Y0206297D01*
X0316297Y0207189D01*
X0315131Y0207672D01*
X0313869Y0207672D01*
X0312703Y0207189D01*
X0312000Y0206485D01*
X0311297Y0207189D01*
X0310131Y0207672D01*
X0308869Y0207672D01*
X0307703Y0207189D01*
X0306811Y0206297D01*
X0306328Y0205131D01*
X0306328Y0203869D01*
X0306811Y0202703D01*
X0307703Y0201811D01*
X0308869Y0201328D01*
X0310131Y0201328D01*
X0311297Y0201811D01*
X0312000Y0202515D01*
X0312703Y0201811D01*
X0313869Y0201328D01*
X0315131Y0201328D01*
X0316297Y0201811D01*
X0317413Y0203245D02*
X0384700Y0203245D01*
X0384700Y0204844D02*
X0317672Y0204844D01*
X0317043Y0206442D02*
X0343594Y0206442D01*
X0343869Y0206328D02*
X0345131Y0206328D01*
X0346297Y0206811D01*
X0347189Y0207703D01*
X0347672Y0208869D01*
X0347672Y0210131D01*
X0347189Y0211297D01*
X0346297Y0212189D01*
X0345131Y0212672D01*
X0343869Y0212672D01*
X0342703Y0212189D01*
X0341811Y0211297D01*
X0341328Y0210131D01*
X0341328Y0208869D01*
X0341811Y0207703D01*
X0342703Y0206811D01*
X0343869Y0206328D01*
X0345406Y0206442D02*
X0384700Y0206442D01*
X0384700Y0208041D02*
X0347329Y0208041D01*
X0347672Y0209639D02*
X0384700Y0209639D01*
X0384700Y0211238D02*
X0347213Y0211238D01*
X0341787Y0211238D02*
X0267000Y0211238D01*
X0267000Y0212836D02*
X0368515Y0212836D01*
X0370051Y0212200D02*
X0373949Y0212200D01*
X0377551Y0213692D01*
X0380308Y0216449D01*
X0381800Y0220051D01*
X0381800Y0223949D01*
X0380308Y0227551D01*
X0377551Y0230308D01*
X0373949Y0231800D01*
X0370051Y0231800D01*
X0366449Y0230308D01*
X0363692Y0227551D01*
X0362200Y0223949D01*
X0362200Y0220051D01*
X0363692Y0216449D01*
X0366449Y0213692D01*
X0370051Y0212200D01*
X0365706Y0214435D02*
X0336420Y0214435D01*
X0336297Y0214311D02*
X0337189Y0215203D01*
X0337672Y0216369D01*
X0337672Y0217631D01*
X0337189Y0218797D01*
X0336297Y0219689D01*
X0335131Y0220172D01*
X0333869Y0220172D01*
X0332703Y0219689D01*
X0331811Y0218797D01*
X0331328Y0217631D01*
X0331328Y0216369D01*
X0331811Y0215203D01*
X0332703Y0214311D01*
X0333869Y0213828D01*
X0335131Y0213828D01*
X0336297Y0214311D01*
X0337533Y0216033D02*
X0364107Y0216033D01*
X0363202Y0217632D02*
X0337671Y0217632D01*
X0336755Y0219230D02*
X0362540Y0219230D01*
X0362200Y0220829D02*
X0267000Y0220829D01*
X0267000Y0222427D02*
X0307087Y0222427D01*
X0306811Y0222703D02*
X0307703Y0221811D01*
X0308869Y0221328D01*
X0310131Y0221328D01*
X0311297Y0221811D01*
X0312000Y0222515D01*
X0312703Y0221811D01*
X0313869Y0221328D01*
X0315131Y0221328D01*
X0316297Y0221811D01*
X0317189Y0222703D01*
X0317672Y0223869D01*
X0317672Y0225131D01*
X0317189Y0226297D01*
X0316297Y0227189D01*
X0315131Y0227672D01*
X0313869Y0227672D01*
X0312703Y0227189D01*
X0312000Y0226485D01*
X0311297Y0227189D01*
X0310131Y0227672D01*
X0308869Y0227672D01*
X0307703Y0227189D01*
X0306811Y0226297D01*
X0306328Y0225131D01*
X0306328Y0223869D01*
X0306811Y0222703D01*
X0306328Y0224026D02*
X0267000Y0224026D01*
X0267000Y0225624D02*
X0306533Y0225624D01*
X0307786Y0227223D02*
X0267000Y0227223D01*
X0267000Y0228821D02*
X0364962Y0228821D01*
X0363556Y0227223D02*
X0316214Y0227223D01*
X0317467Y0225624D02*
X0362894Y0225624D01*
X0362232Y0224026D02*
X0317672Y0224026D01*
X0316913Y0222427D02*
X0362200Y0222427D01*
X0366719Y0230420D02*
X0267000Y0230420D01*
X0267000Y0232018D02*
X0384700Y0232018D01*
X0384700Y0230420D02*
X0377281Y0230420D01*
X0379038Y0228821D02*
X0384700Y0228821D01*
X0384700Y0227223D02*
X0380444Y0227223D01*
X0381106Y0225624D02*
X0384700Y0225624D01*
X0384700Y0224026D02*
X0381768Y0224026D01*
X0381800Y0222427D02*
X0384700Y0222427D01*
X0384700Y0220829D02*
X0381800Y0220829D01*
X0381460Y0219230D02*
X0384700Y0219230D01*
X0384700Y0217632D02*
X0380798Y0217632D01*
X0379893Y0216033D02*
X0384700Y0216033D01*
X0384700Y0214435D02*
X0378294Y0214435D01*
X0375485Y0212836D02*
X0384700Y0212836D01*
X0384700Y0233617D02*
X0267000Y0233617D01*
X0267000Y0234700D02*
X0384700Y0234700D01*
X0384700Y0039300D01*
X0267000Y0039300D01*
X0267000Y0087515D01*
X0267703Y0086811D01*
X0268869Y0086328D01*
X0270131Y0086328D01*
X0271297Y0086811D01*
X0272189Y0087703D01*
X0272672Y0088869D01*
X0272672Y0090131D01*
X0272189Y0091297D01*
X0271297Y0092189D01*
X0270131Y0092672D01*
X0268869Y0092672D01*
X0267703Y0092189D01*
X0267000Y0091485D01*
X0267000Y0125015D01*
X0267703Y0124311D01*
X0268869Y0123828D01*
X0270131Y0123828D01*
X0271297Y0124311D01*
X0272189Y0125203D01*
X0272672Y0126369D01*
X0272672Y0127631D01*
X0272189Y0128797D01*
X0271297Y0129689D01*
X0270131Y0130172D01*
X0268869Y0130172D01*
X0267703Y0129689D01*
X0267000Y0128985D01*
X0267000Y0234700D01*
X0267000Y0219230D02*
X0332245Y0219230D01*
X0331329Y0217632D02*
X0267000Y0217632D01*
X0267000Y0216033D02*
X0331467Y0216033D01*
X0332580Y0214435D02*
X0267000Y0214435D01*
X0267000Y0209639D02*
X0341328Y0209639D01*
X0341671Y0208041D02*
X0267000Y0208041D01*
X0267000Y0206442D02*
X0306957Y0206442D01*
X0306328Y0204844D02*
X0267000Y0204844D01*
X0267000Y0203245D02*
X0306587Y0203245D01*
X0308101Y0201647D02*
X0267000Y0201647D01*
X0267000Y0200048D02*
X0281071Y0200048D01*
X0282929Y0200048D02*
X0286071Y0200048D01*
X0287929Y0200048D02*
X0291071Y0200048D01*
X0292929Y0200048D02*
X0296071Y0200048D01*
X0297929Y0200048D02*
X0301071Y0200048D01*
X0310899Y0201647D02*
X0313101Y0201647D01*
X0312087Y0222427D02*
X0311913Y0222427D01*
X0311214Y0227223D02*
X0312786Y0227223D01*
X0279167Y0198450D02*
X0267000Y0198450D01*
X0267000Y0196851D02*
X0278828Y0196851D01*
X0279291Y0195253D02*
X0267000Y0195253D01*
X0279894Y0145699D02*
X0284106Y0145699D01*
X0285713Y0144100D02*
X0279385Y0144100D01*
X0267000Y0131312D02*
X0326917Y0131312D01*
X0328095Y0129714D02*
X0271237Y0129714D01*
X0272471Y0128115D02*
X0359029Y0128115D01*
X0358828Y0127631D02*
X0358828Y0126369D01*
X0359311Y0125203D01*
X0360203Y0124311D01*
X0361369Y0123828D01*
X0362631Y0123828D01*
X0363797Y0124311D01*
X0364689Y0125203D01*
X0365172Y0126369D01*
X0365172Y0127631D01*
X0364689Y0128797D01*
X0363797Y0129689D01*
X0362631Y0130172D01*
X0361369Y0130172D01*
X0360203Y0129689D01*
X0359311Y0128797D01*
X0358828Y0127631D01*
X0358828Y0126517D02*
X0272672Y0126517D01*
X0271904Y0124918D02*
X0359596Y0124918D01*
X0364404Y0124918D02*
X0384700Y0124918D01*
X0384700Y0123320D02*
X0267000Y0123320D01*
X0267000Y0124918D02*
X0267096Y0124918D01*
X0267000Y0129714D02*
X0267763Y0129714D01*
X0267000Y0121721D02*
X0299736Y0121721D01*
X0299311Y0121297D02*
X0300203Y0122189D01*
X0301369Y0122672D01*
X0302631Y0122672D01*
X0303797Y0122189D01*
X0304689Y0121297D01*
X0305172Y0120131D01*
X0305172Y0118869D01*
X0304689Y0117703D01*
X0303797Y0116811D01*
X0302631Y0116328D01*
X0301369Y0116328D01*
X0300203Y0116811D01*
X0299311Y0117703D01*
X0298828Y0118869D01*
X0298828Y0120131D01*
X0299311Y0121297D01*
X0298828Y0120123D02*
X0267000Y0120123D01*
X0267000Y0118524D02*
X0298971Y0118524D01*
X0300089Y0116926D02*
X0289060Y0116926D01*
X0288797Y0117189D02*
X0287631Y0117672D01*
X0286369Y0117672D01*
X0285203Y0117189D01*
X0284311Y0116297D01*
X0283828Y0115131D01*
X0283828Y0113869D01*
X0284311Y0112703D01*
X0285203Y0111811D01*
X0286369Y0111328D01*
X0287631Y0111328D01*
X0288797Y0111811D01*
X0289689Y0112703D01*
X0290172Y0113869D01*
X0290172Y0115131D01*
X0289689Y0116297D01*
X0288797Y0117189D01*
X0290090Y0115327D02*
X0384700Y0115327D01*
X0384700Y0113729D02*
X0290113Y0113729D01*
X0289115Y0112130D02*
X0292645Y0112130D01*
X0292703Y0112189D02*
X0291811Y0111297D01*
X0291328Y0110131D01*
X0291328Y0108869D01*
X0291811Y0107703D01*
X0292703Y0106811D01*
X0293869Y0106328D01*
X0295131Y0106328D01*
X0296297Y0106811D01*
X0297189Y0107703D01*
X0297672Y0108869D01*
X0297672Y0110131D01*
X0297189Y0111297D01*
X0296297Y0112189D01*
X0295131Y0112672D01*
X0293869Y0112672D01*
X0292703Y0112189D01*
X0291494Y0110532D02*
X0267000Y0110532D01*
X0267000Y0112130D02*
X0284885Y0112130D01*
X0283887Y0113729D02*
X0267000Y0113729D01*
X0267000Y0115327D02*
X0283910Y0115327D01*
X0284940Y0116926D02*
X0267000Y0116926D01*
X0267000Y0108933D02*
X0291328Y0108933D01*
X0292180Y0107334D02*
X0267000Y0107334D01*
X0267000Y0105736D02*
X0384700Y0105736D01*
X0384700Y0107334D02*
X0309320Y0107334D01*
X0309689Y0107703D02*
X0310172Y0108869D01*
X0310172Y0110131D01*
X0309689Y0111297D01*
X0308797Y0112189D01*
X0307631Y0112672D01*
X0306369Y0112672D01*
X0305203Y0112189D01*
X0304311Y0111297D01*
X0303828Y0110131D01*
X0303828Y0108869D01*
X0304311Y0107703D01*
X0305203Y0106811D01*
X0306369Y0106328D01*
X0307631Y0106328D01*
X0308797Y0106811D01*
X0309689Y0107703D01*
X0310172Y0108933D02*
X0384700Y0108933D01*
X0384700Y0110532D02*
X0310006Y0110532D01*
X0308855Y0112130D02*
X0384700Y0112130D01*
X0384700Y0116926D02*
X0343911Y0116926D01*
X0343797Y0116811D02*
X0344689Y0117703D01*
X0345172Y0118869D01*
X0345172Y0120131D01*
X0344689Y0121297D01*
X0343797Y0122189D01*
X0342631Y0122672D01*
X0341369Y0122672D01*
X0340203Y0122189D01*
X0339500Y0121485D01*
X0338797Y0122189D01*
X0337631Y0122672D01*
X0336369Y0122672D01*
X0335203Y0122189D01*
X0334500Y0121485D01*
X0333797Y0122189D01*
X0332631Y0122672D01*
X0331369Y0122672D01*
X0330203Y0122189D01*
X0329500Y0121485D01*
X0328797Y0122189D01*
X0327631Y0122672D01*
X0326369Y0122672D01*
X0325203Y0122189D01*
X0324500Y0121485D01*
X0323797Y0122189D01*
X0322631Y0122672D01*
X0321369Y0122672D01*
X0320203Y0122189D01*
X0319311Y0121297D01*
X0318828Y0120131D01*
X0318828Y0118869D01*
X0319311Y0117703D01*
X0320203Y0116811D01*
X0321369Y0116328D01*
X0322631Y0116328D01*
X0323797Y0116811D01*
X0324500Y0117515D01*
X0325203Y0116811D01*
X0326369Y0116328D01*
X0327631Y0116328D01*
X0328797Y0116811D01*
X0329500Y0117515D01*
X0330203Y0116811D01*
X0331369Y0116328D01*
X0332631Y0116328D01*
X0333797Y0116811D01*
X0334500Y0117515D01*
X0335203Y0116811D01*
X0336369Y0116328D01*
X0337631Y0116328D01*
X0338797Y0116811D01*
X0339500Y0117515D01*
X0340203Y0116811D01*
X0341369Y0116328D01*
X0342631Y0116328D01*
X0343797Y0116811D01*
X0345029Y0118524D02*
X0384700Y0118524D01*
X0384700Y0120123D02*
X0345172Y0120123D01*
X0344264Y0121721D02*
X0384700Y0121721D01*
X0384700Y0126517D02*
X0365172Y0126517D01*
X0364971Y0128115D02*
X0384700Y0128115D01*
X0384700Y0129714D02*
X0363737Y0129714D01*
X0360263Y0129714D02*
X0340905Y0129714D01*
X0342083Y0131312D02*
X0384700Y0131312D01*
X0384700Y0132911D02*
X0341991Y0132911D01*
X0340411Y0134509D02*
X0384700Y0134509D01*
X0384700Y0136108D02*
X0341999Y0136108D01*
X0342076Y0137706D02*
X0384700Y0137706D01*
X0384700Y0139305D02*
X0340861Y0139305D01*
X0341914Y0140903D02*
X0384700Y0140903D01*
X0384700Y0142502D02*
X0342150Y0142502D01*
X0341147Y0144100D02*
X0384700Y0144100D01*
X0339736Y0121721D02*
X0339264Y0121721D01*
X0334736Y0121721D02*
X0334264Y0121721D01*
X0329736Y0121721D02*
X0329264Y0121721D01*
X0324736Y0121721D02*
X0324264Y0121721D01*
X0319736Y0121721D02*
X0304264Y0121721D01*
X0305172Y0120123D02*
X0318828Y0120123D01*
X0318971Y0118524D02*
X0305029Y0118524D01*
X0303911Y0116926D02*
X0320089Y0116926D01*
X0323911Y0116926D02*
X0325089Y0116926D01*
X0328911Y0116926D02*
X0330089Y0116926D01*
X0333911Y0116926D02*
X0335089Y0116926D01*
X0338911Y0116926D02*
X0340089Y0116926D01*
X0338095Y0129714D02*
X0335905Y0129714D01*
X0333095Y0129714D02*
X0330905Y0129714D01*
X0328139Y0139305D02*
X0312281Y0139305D01*
X0313479Y0140903D02*
X0327086Y0140903D01*
X0326850Y0142502D02*
X0313672Y0142502D01*
X0312885Y0144100D02*
X0327853Y0144100D01*
X0331147Y0144100D02*
X0332853Y0144100D01*
X0336147Y0144100D02*
X0337853Y0144100D01*
X0305145Y0112130D02*
X0296355Y0112130D01*
X0297506Y0110532D02*
X0303994Y0110532D01*
X0303828Y0108933D02*
X0297672Y0108933D01*
X0296820Y0107334D02*
X0304680Y0107334D01*
X0308869Y0090172D02*
X0307703Y0089689D01*
X0306811Y0088797D01*
X0306328Y0087631D01*
X0306328Y0086369D01*
X0306811Y0085203D01*
X0307703Y0084311D01*
X0308869Y0083828D01*
X0310131Y0083828D01*
X0311297Y0084311D01*
X0312189Y0085203D01*
X0312672Y0086369D01*
X0312672Y0087631D01*
X0312189Y0088797D01*
X0311297Y0089689D01*
X0310131Y0090172D01*
X0308869Y0090172D01*
X0307853Y0089751D02*
X0280172Y0089751D01*
X0280172Y0090131D02*
X0280172Y0088869D01*
X0279689Y0087703D01*
X0278797Y0086811D01*
X0277631Y0086328D01*
X0276369Y0086328D01*
X0275203Y0086811D01*
X0274311Y0087703D01*
X0273828Y0088869D01*
X0273828Y0090131D01*
X0274311Y0091297D01*
X0275203Y0092189D01*
X0276369Y0092672D01*
X0277631Y0092672D01*
X0278797Y0092189D01*
X0279689Y0091297D01*
X0280172Y0090131D01*
X0279636Y0091349D02*
X0384700Y0091349D01*
X0384700Y0089751D02*
X0311147Y0089751D01*
X0312456Y0088152D02*
X0384700Y0088152D01*
X0384700Y0086554D02*
X0312672Y0086554D01*
X0311941Y0084955D02*
X0384700Y0084955D01*
X0384700Y0083357D02*
X0267000Y0083357D01*
X0267000Y0084955D02*
X0307059Y0084955D01*
X0306328Y0086554D02*
X0278175Y0086554D01*
X0279875Y0088152D02*
X0306544Y0088152D01*
X0275825Y0086554D02*
X0270675Y0086554D01*
X0272375Y0088152D02*
X0274125Y0088152D01*
X0273828Y0089751D02*
X0272672Y0089751D01*
X0272136Y0091349D02*
X0274364Y0091349D01*
X0267000Y0092948D02*
X0384700Y0092948D01*
X0384700Y0094546D02*
X0267000Y0094546D01*
X0267000Y0096145D02*
X0384700Y0096145D01*
X0384700Y0097743D02*
X0267000Y0097743D01*
X0267000Y0099342D02*
X0384700Y0099342D01*
X0384700Y0100940D02*
X0267000Y0100940D01*
X0267000Y0102539D02*
X0384700Y0102539D01*
X0384700Y0104137D02*
X0267000Y0104137D01*
X0267000Y0086554D02*
X0268325Y0086554D01*
X0267000Y0081758D02*
X0384700Y0081758D01*
X0384700Y0080160D02*
X0267000Y0080160D01*
X0267000Y0078561D02*
X0384700Y0078561D01*
X0384700Y0076963D02*
X0267000Y0076963D01*
X0267000Y0075364D02*
X0384700Y0075364D01*
X0384700Y0073766D02*
X0267000Y0073766D01*
X0267000Y0072167D02*
X0384700Y0072167D01*
X0384700Y0070569D02*
X0267000Y0070569D01*
X0267000Y0068970D02*
X0384700Y0068970D01*
X0384700Y0067372D02*
X0267000Y0067372D01*
X0267000Y0065773D02*
X0384700Y0065773D01*
X0384700Y0064175D02*
X0267000Y0064175D01*
X0267000Y0062576D02*
X0384700Y0062576D01*
X0384700Y0060978D02*
X0375935Y0060978D01*
X0377551Y0060308D02*
X0373949Y0061800D01*
X0370051Y0061800D01*
X0366449Y0060308D01*
X0363692Y0057551D01*
X0362200Y0053949D01*
X0362200Y0050051D01*
X0363692Y0046449D01*
X0366449Y0043692D01*
X0370051Y0042200D01*
X0373949Y0042200D01*
X0377551Y0043692D01*
X0380308Y0046449D01*
X0381800Y0050051D01*
X0381800Y0053949D01*
X0380308Y0057551D01*
X0377551Y0060308D01*
X0378480Y0059379D02*
X0384700Y0059379D01*
X0384700Y0057781D02*
X0380079Y0057781D01*
X0380875Y0056182D02*
X0384700Y0056182D01*
X0384700Y0054584D02*
X0381537Y0054584D01*
X0381800Y0052985D02*
X0384700Y0052985D01*
X0384700Y0051387D02*
X0381800Y0051387D01*
X0381691Y0049788D02*
X0384700Y0049788D01*
X0384700Y0048190D02*
X0381029Y0048190D01*
X0380367Y0046591D02*
X0384700Y0046591D01*
X0384700Y0044993D02*
X0378852Y0044993D01*
X0376832Y0043394D02*
X0384700Y0043394D01*
X0384700Y0041796D02*
X0267000Y0041796D01*
X0267000Y0043394D02*
X0367168Y0043394D01*
X0365148Y0044993D02*
X0267000Y0044993D01*
X0267000Y0046591D02*
X0363633Y0046591D01*
X0362971Y0048190D02*
X0267000Y0048190D01*
X0267000Y0049788D02*
X0362309Y0049788D01*
X0362200Y0051387D02*
X0267000Y0051387D01*
X0267000Y0052985D02*
X0362200Y0052985D01*
X0362463Y0054584D02*
X0267000Y0054584D01*
X0267000Y0056182D02*
X0363125Y0056182D01*
X0363921Y0057781D02*
X0267000Y0057781D01*
X0267000Y0059379D02*
X0365520Y0059379D01*
X0368065Y0060978D02*
X0267000Y0060978D01*
X0267000Y0040197D02*
X0384700Y0040197D01*
X0222000Y0124918D02*
X0220743Y0124918D01*
X0220585Y0126517D02*
X0222000Y0126517D01*
X0210061Y0094546D02*
X0180172Y0094546D01*
X0179790Y0092948D02*
X0208960Y0092948D01*
X0154689Y0064175D02*
X0154311Y0064175D01*
X0154273Y0049788D02*
X0154727Y0049788D01*
D15*
X0339500Y0234500D03*
X0349500Y0234500D03*
M02*
