G75*
%MOIN*%
%OFA0B0*%
%FSLAX25Y25*%
%IPPOS*%
%LPD*%
%AMOC8*
5,1,8,0,0,1.08239X$1,22.5*
%
%ADD10C,0.00000*%
D10*
X0037000Y0037000D02*
X0037000Y0238201D01*
X0386921Y0238201D01*
X0386921Y0037000D01*
X0037000Y0037000D01*
X0044500Y0052000D02*
X0044502Y0052184D01*
X0044509Y0052368D01*
X0044520Y0052552D01*
X0044536Y0052735D01*
X0044556Y0052918D01*
X0044581Y0053100D01*
X0044610Y0053282D01*
X0044644Y0053463D01*
X0044682Y0053643D01*
X0044725Y0053822D01*
X0044772Y0054000D01*
X0044823Y0054177D01*
X0044879Y0054353D01*
X0044938Y0054527D01*
X0045003Y0054699D01*
X0045071Y0054870D01*
X0045143Y0055039D01*
X0045220Y0055207D01*
X0045301Y0055372D01*
X0045386Y0055535D01*
X0045474Y0055697D01*
X0045567Y0055856D01*
X0045664Y0056012D01*
X0045764Y0056167D01*
X0045868Y0056319D01*
X0045976Y0056468D01*
X0046087Y0056614D01*
X0046202Y0056758D01*
X0046321Y0056899D01*
X0046443Y0057037D01*
X0046568Y0057172D01*
X0046697Y0057303D01*
X0046828Y0057432D01*
X0046963Y0057557D01*
X0047101Y0057679D01*
X0047242Y0057798D01*
X0047386Y0057913D01*
X0047532Y0058024D01*
X0047681Y0058132D01*
X0047833Y0058236D01*
X0047988Y0058336D01*
X0048144Y0058433D01*
X0048303Y0058526D01*
X0048465Y0058614D01*
X0048628Y0058699D01*
X0048793Y0058780D01*
X0048961Y0058857D01*
X0049130Y0058929D01*
X0049301Y0058997D01*
X0049473Y0059062D01*
X0049647Y0059121D01*
X0049823Y0059177D01*
X0050000Y0059228D01*
X0050178Y0059275D01*
X0050357Y0059318D01*
X0050537Y0059356D01*
X0050718Y0059390D01*
X0050900Y0059419D01*
X0051082Y0059444D01*
X0051265Y0059464D01*
X0051448Y0059480D01*
X0051632Y0059491D01*
X0051816Y0059498D01*
X0052000Y0059500D01*
X0052184Y0059498D01*
X0052368Y0059491D01*
X0052552Y0059480D01*
X0052735Y0059464D01*
X0052918Y0059444D01*
X0053100Y0059419D01*
X0053282Y0059390D01*
X0053463Y0059356D01*
X0053643Y0059318D01*
X0053822Y0059275D01*
X0054000Y0059228D01*
X0054177Y0059177D01*
X0054353Y0059121D01*
X0054527Y0059062D01*
X0054699Y0058997D01*
X0054870Y0058929D01*
X0055039Y0058857D01*
X0055207Y0058780D01*
X0055372Y0058699D01*
X0055535Y0058614D01*
X0055697Y0058526D01*
X0055856Y0058433D01*
X0056012Y0058336D01*
X0056167Y0058236D01*
X0056319Y0058132D01*
X0056468Y0058024D01*
X0056614Y0057913D01*
X0056758Y0057798D01*
X0056899Y0057679D01*
X0057037Y0057557D01*
X0057172Y0057432D01*
X0057303Y0057303D01*
X0057432Y0057172D01*
X0057557Y0057037D01*
X0057679Y0056899D01*
X0057798Y0056758D01*
X0057913Y0056614D01*
X0058024Y0056468D01*
X0058132Y0056319D01*
X0058236Y0056167D01*
X0058336Y0056012D01*
X0058433Y0055856D01*
X0058526Y0055697D01*
X0058614Y0055535D01*
X0058699Y0055372D01*
X0058780Y0055207D01*
X0058857Y0055039D01*
X0058929Y0054870D01*
X0058997Y0054699D01*
X0059062Y0054527D01*
X0059121Y0054353D01*
X0059177Y0054177D01*
X0059228Y0054000D01*
X0059275Y0053822D01*
X0059318Y0053643D01*
X0059356Y0053463D01*
X0059390Y0053282D01*
X0059419Y0053100D01*
X0059444Y0052918D01*
X0059464Y0052735D01*
X0059480Y0052552D01*
X0059491Y0052368D01*
X0059498Y0052184D01*
X0059500Y0052000D01*
X0059498Y0051816D01*
X0059491Y0051632D01*
X0059480Y0051448D01*
X0059464Y0051265D01*
X0059444Y0051082D01*
X0059419Y0050900D01*
X0059390Y0050718D01*
X0059356Y0050537D01*
X0059318Y0050357D01*
X0059275Y0050178D01*
X0059228Y0050000D01*
X0059177Y0049823D01*
X0059121Y0049647D01*
X0059062Y0049473D01*
X0058997Y0049301D01*
X0058929Y0049130D01*
X0058857Y0048961D01*
X0058780Y0048793D01*
X0058699Y0048628D01*
X0058614Y0048465D01*
X0058526Y0048303D01*
X0058433Y0048144D01*
X0058336Y0047988D01*
X0058236Y0047833D01*
X0058132Y0047681D01*
X0058024Y0047532D01*
X0057913Y0047386D01*
X0057798Y0047242D01*
X0057679Y0047101D01*
X0057557Y0046963D01*
X0057432Y0046828D01*
X0057303Y0046697D01*
X0057172Y0046568D01*
X0057037Y0046443D01*
X0056899Y0046321D01*
X0056758Y0046202D01*
X0056614Y0046087D01*
X0056468Y0045976D01*
X0056319Y0045868D01*
X0056167Y0045764D01*
X0056012Y0045664D01*
X0055856Y0045567D01*
X0055697Y0045474D01*
X0055535Y0045386D01*
X0055372Y0045301D01*
X0055207Y0045220D01*
X0055039Y0045143D01*
X0054870Y0045071D01*
X0054699Y0045003D01*
X0054527Y0044938D01*
X0054353Y0044879D01*
X0054177Y0044823D01*
X0054000Y0044772D01*
X0053822Y0044725D01*
X0053643Y0044682D01*
X0053463Y0044644D01*
X0053282Y0044610D01*
X0053100Y0044581D01*
X0052918Y0044556D01*
X0052735Y0044536D01*
X0052552Y0044520D01*
X0052368Y0044509D01*
X0052184Y0044502D01*
X0052000Y0044500D01*
X0051816Y0044502D01*
X0051632Y0044509D01*
X0051448Y0044520D01*
X0051265Y0044536D01*
X0051082Y0044556D01*
X0050900Y0044581D01*
X0050718Y0044610D01*
X0050537Y0044644D01*
X0050357Y0044682D01*
X0050178Y0044725D01*
X0050000Y0044772D01*
X0049823Y0044823D01*
X0049647Y0044879D01*
X0049473Y0044938D01*
X0049301Y0045003D01*
X0049130Y0045071D01*
X0048961Y0045143D01*
X0048793Y0045220D01*
X0048628Y0045301D01*
X0048465Y0045386D01*
X0048303Y0045474D01*
X0048144Y0045567D01*
X0047988Y0045664D01*
X0047833Y0045764D01*
X0047681Y0045868D01*
X0047532Y0045976D01*
X0047386Y0046087D01*
X0047242Y0046202D01*
X0047101Y0046321D01*
X0046963Y0046443D01*
X0046828Y0046568D01*
X0046697Y0046697D01*
X0046568Y0046828D01*
X0046443Y0046963D01*
X0046321Y0047101D01*
X0046202Y0047242D01*
X0046087Y0047386D01*
X0045976Y0047532D01*
X0045868Y0047681D01*
X0045764Y0047833D01*
X0045664Y0047988D01*
X0045567Y0048144D01*
X0045474Y0048303D01*
X0045386Y0048465D01*
X0045301Y0048628D01*
X0045220Y0048793D01*
X0045143Y0048961D01*
X0045071Y0049130D01*
X0045003Y0049301D01*
X0044938Y0049473D01*
X0044879Y0049647D01*
X0044823Y0049823D01*
X0044772Y0050000D01*
X0044725Y0050178D01*
X0044682Y0050357D01*
X0044644Y0050537D01*
X0044610Y0050718D01*
X0044581Y0050900D01*
X0044556Y0051082D01*
X0044536Y0051265D01*
X0044520Y0051448D01*
X0044509Y0051632D01*
X0044502Y0051816D01*
X0044500Y0052000D01*
X0367000Y0064500D02*
X0367002Y0064684D01*
X0367009Y0064868D01*
X0367020Y0065052D01*
X0367036Y0065235D01*
X0367056Y0065418D01*
X0367081Y0065600D01*
X0367110Y0065782D01*
X0367144Y0065963D01*
X0367182Y0066143D01*
X0367225Y0066322D01*
X0367272Y0066500D01*
X0367323Y0066677D01*
X0367379Y0066853D01*
X0367438Y0067027D01*
X0367503Y0067199D01*
X0367571Y0067370D01*
X0367643Y0067539D01*
X0367720Y0067707D01*
X0367801Y0067872D01*
X0367886Y0068035D01*
X0367974Y0068197D01*
X0368067Y0068356D01*
X0368164Y0068512D01*
X0368264Y0068667D01*
X0368368Y0068819D01*
X0368476Y0068968D01*
X0368587Y0069114D01*
X0368702Y0069258D01*
X0368821Y0069399D01*
X0368943Y0069537D01*
X0369068Y0069672D01*
X0369197Y0069803D01*
X0369328Y0069932D01*
X0369463Y0070057D01*
X0369601Y0070179D01*
X0369742Y0070298D01*
X0369886Y0070413D01*
X0370032Y0070524D01*
X0370181Y0070632D01*
X0370333Y0070736D01*
X0370488Y0070836D01*
X0370644Y0070933D01*
X0370803Y0071026D01*
X0370965Y0071114D01*
X0371128Y0071199D01*
X0371293Y0071280D01*
X0371461Y0071357D01*
X0371630Y0071429D01*
X0371801Y0071497D01*
X0371973Y0071562D01*
X0372147Y0071621D01*
X0372323Y0071677D01*
X0372500Y0071728D01*
X0372678Y0071775D01*
X0372857Y0071818D01*
X0373037Y0071856D01*
X0373218Y0071890D01*
X0373400Y0071919D01*
X0373582Y0071944D01*
X0373765Y0071964D01*
X0373948Y0071980D01*
X0374132Y0071991D01*
X0374316Y0071998D01*
X0374500Y0072000D01*
X0374684Y0071998D01*
X0374868Y0071991D01*
X0375052Y0071980D01*
X0375235Y0071964D01*
X0375418Y0071944D01*
X0375600Y0071919D01*
X0375782Y0071890D01*
X0375963Y0071856D01*
X0376143Y0071818D01*
X0376322Y0071775D01*
X0376500Y0071728D01*
X0376677Y0071677D01*
X0376853Y0071621D01*
X0377027Y0071562D01*
X0377199Y0071497D01*
X0377370Y0071429D01*
X0377539Y0071357D01*
X0377707Y0071280D01*
X0377872Y0071199D01*
X0378035Y0071114D01*
X0378197Y0071026D01*
X0378356Y0070933D01*
X0378512Y0070836D01*
X0378667Y0070736D01*
X0378819Y0070632D01*
X0378968Y0070524D01*
X0379114Y0070413D01*
X0379258Y0070298D01*
X0379399Y0070179D01*
X0379537Y0070057D01*
X0379672Y0069932D01*
X0379803Y0069803D01*
X0379932Y0069672D01*
X0380057Y0069537D01*
X0380179Y0069399D01*
X0380298Y0069258D01*
X0380413Y0069114D01*
X0380524Y0068968D01*
X0380632Y0068819D01*
X0380736Y0068667D01*
X0380836Y0068512D01*
X0380933Y0068356D01*
X0381026Y0068197D01*
X0381114Y0068035D01*
X0381199Y0067872D01*
X0381280Y0067707D01*
X0381357Y0067539D01*
X0381429Y0067370D01*
X0381497Y0067199D01*
X0381562Y0067027D01*
X0381621Y0066853D01*
X0381677Y0066677D01*
X0381728Y0066500D01*
X0381775Y0066322D01*
X0381818Y0066143D01*
X0381856Y0065963D01*
X0381890Y0065782D01*
X0381919Y0065600D01*
X0381944Y0065418D01*
X0381964Y0065235D01*
X0381980Y0065052D01*
X0381991Y0064868D01*
X0381998Y0064684D01*
X0382000Y0064500D01*
X0381998Y0064316D01*
X0381991Y0064132D01*
X0381980Y0063948D01*
X0381964Y0063765D01*
X0381944Y0063582D01*
X0381919Y0063400D01*
X0381890Y0063218D01*
X0381856Y0063037D01*
X0381818Y0062857D01*
X0381775Y0062678D01*
X0381728Y0062500D01*
X0381677Y0062323D01*
X0381621Y0062147D01*
X0381562Y0061973D01*
X0381497Y0061801D01*
X0381429Y0061630D01*
X0381357Y0061461D01*
X0381280Y0061293D01*
X0381199Y0061128D01*
X0381114Y0060965D01*
X0381026Y0060803D01*
X0380933Y0060644D01*
X0380836Y0060488D01*
X0380736Y0060333D01*
X0380632Y0060181D01*
X0380524Y0060032D01*
X0380413Y0059886D01*
X0380298Y0059742D01*
X0380179Y0059601D01*
X0380057Y0059463D01*
X0379932Y0059328D01*
X0379803Y0059197D01*
X0379672Y0059068D01*
X0379537Y0058943D01*
X0379399Y0058821D01*
X0379258Y0058702D01*
X0379114Y0058587D01*
X0378968Y0058476D01*
X0378819Y0058368D01*
X0378667Y0058264D01*
X0378512Y0058164D01*
X0378356Y0058067D01*
X0378197Y0057974D01*
X0378035Y0057886D01*
X0377872Y0057801D01*
X0377707Y0057720D01*
X0377539Y0057643D01*
X0377370Y0057571D01*
X0377199Y0057503D01*
X0377027Y0057438D01*
X0376853Y0057379D01*
X0376677Y0057323D01*
X0376500Y0057272D01*
X0376322Y0057225D01*
X0376143Y0057182D01*
X0375963Y0057144D01*
X0375782Y0057110D01*
X0375600Y0057081D01*
X0375418Y0057056D01*
X0375235Y0057036D01*
X0375052Y0057020D01*
X0374868Y0057009D01*
X0374684Y0057002D01*
X0374500Y0057000D01*
X0374316Y0057002D01*
X0374132Y0057009D01*
X0373948Y0057020D01*
X0373765Y0057036D01*
X0373582Y0057056D01*
X0373400Y0057081D01*
X0373218Y0057110D01*
X0373037Y0057144D01*
X0372857Y0057182D01*
X0372678Y0057225D01*
X0372500Y0057272D01*
X0372323Y0057323D01*
X0372147Y0057379D01*
X0371973Y0057438D01*
X0371801Y0057503D01*
X0371630Y0057571D01*
X0371461Y0057643D01*
X0371293Y0057720D01*
X0371128Y0057801D01*
X0370965Y0057886D01*
X0370803Y0057974D01*
X0370644Y0058067D01*
X0370488Y0058164D01*
X0370333Y0058264D01*
X0370181Y0058368D01*
X0370032Y0058476D01*
X0369886Y0058587D01*
X0369742Y0058702D01*
X0369601Y0058821D01*
X0369463Y0058943D01*
X0369328Y0059068D01*
X0369197Y0059197D01*
X0369068Y0059328D01*
X0368943Y0059463D01*
X0368821Y0059601D01*
X0368702Y0059742D01*
X0368587Y0059886D01*
X0368476Y0060032D01*
X0368368Y0060181D01*
X0368264Y0060333D01*
X0368164Y0060488D01*
X0368067Y0060644D01*
X0367974Y0060803D01*
X0367886Y0060965D01*
X0367801Y0061128D01*
X0367720Y0061293D01*
X0367643Y0061461D01*
X0367571Y0061630D01*
X0367503Y0061801D01*
X0367438Y0061973D01*
X0367379Y0062147D01*
X0367323Y0062323D01*
X0367272Y0062500D01*
X0367225Y0062678D01*
X0367182Y0062857D01*
X0367144Y0063037D01*
X0367110Y0063218D01*
X0367081Y0063400D01*
X0367056Y0063582D01*
X0367036Y0063765D01*
X0367020Y0063948D01*
X0367009Y0064132D01*
X0367002Y0064316D01*
X0367000Y0064500D01*
X0367000Y0224500D02*
X0367002Y0224684D01*
X0367009Y0224868D01*
X0367020Y0225052D01*
X0367036Y0225235D01*
X0367056Y0225418D01*
X0367081Y0225600D01*
X0367110Y0225782D01*
X0367144Y0225963D01*
X0367182Y0226143D01*
X0367225Y0226322D01*
X0367272Y0226500D01*
X0367323Y0226677D01*
X0367379Y0226853D01*
X0367438Y0227027D01*
X0367503Y0227199D01*
X0367571Y0227370D01*
X0367643Y0227539D01*
X0367720Y0227707D01*
X0367801Y0227872D01*
X0367886Y0228035D01*
X0367974Y0228197D01*
X0368067Y0228356D01*
X0368164Y0228512D01*
X0368264Y0228667D01*
X0368368Y0228819D01*
X0368476Y0228968D01*
X0368587Y0229114D01*
X0368702Y0229258D01*
X0368821Y0229399D01*
X0368943Y0229537D01*
X0369068Y0229672D01*
X0369197Y0229803D01*
X0369328Y0229932D01*
X0369463Y0230057D01*
X0369601Y0230179D01*
X0369742Y0230298D01*
X0369886Y0230413D01*
X0370032Y0230524D01*
X0370181Y0230632D01*
X0370333Y0230736D01*
X0370488Y0230836D01*
X0370644Y0230933D01*
X0370803Y0231026D01*
X0370965Y0231114D01*
X0371128Y0231199D01*
X0371293Y0231280D01*
X0371461Y0231357D01*
X0371630Y0231429D01*
X0371801Y0231497D01*
X0371973Y0231562D01*
X0372147Y0231621D01*
X0372323Y0231677D01*
X0372500Y0231728D01*
X0372678Y0231775D01*
X0372857Y0231818D01*
X0373037Y0231856D01*
X0373218Y0231890D01*
X0373400Y0231919D01*
X0373582Y0231944D01*
X0373765Y0231964D01*
X0373948Y0231980D01*
X0374132Y0231991D01*
X0374316Y0231998D01*
X0374500Y0232000D01*
X0374684Y0231998D01*
X0374868Y0231991D01*
X0375052Y0231980D01*
X0375235Y0231964D01*
X0375418Y0231944D01*
X0375600Y0231919D01*
X0375782Y0231890D01*
X0375963Y0231856D01*
X0376143Y0231818D01*
X0376322Y0231775D01*
X0376500Y0231728D01*
X0376677Y0231677D01*
X0376853Y0231621D01*
X0377027Y0231562D01*
X0377199Y0231497D01*
X0377370Y0231429D01*
X0377539Y0231357D01*
X0377707Y0231280D01*
X0377872Y0231199D01*
X0378035Y0231114D01*
X0378197Y0231026D01*
X0378356Y0230933D01*
X0378512Y0230836D01*
X0378667Y0230736D01*
X0378819Y0230632D01*
X0378968Y0230524D01*
X0379114Y0230413D01*
X0379258Y0230298D01*
X0379399Y0230179D01*
X0379537Y0230057D01*
X0379672Y0229932D01*
X0379803Y0229803D01*
X0379932Y0229672D01*
X0380057Y0229537D01*
X0380179Y0229399D01*
X0380298Y0229258D01*
X0380413Y0229114D01*
X0380524Y0228968D01*
X0380632Y0228819D01*
X0380736Y0228667D01*
X0380836Y0228512D01*
X0380933Y0228356D01*
X0381026Y0228197D01*
X0381114Y0228035D01*
X0381199Y0227872D01*
X0381280Y0227707D01*
X0381357Y0227539D01*
X0381429Y0227370D01*
X0381497Y0227199D01*
X0381562Y0227027D01*
X0381621Y0226853D01*
X0381677Y0226677D01*
X0381728Y0226500D01*
X0381775Y0226322D01*
X0381818Y0226143D01*
X0381856Y0225963D01*
X0381890Y0225782D01*
X0381919Y0225600D01*
X0381944Y0225418D01*
X0381964Y0225235D01*
X0381980Y0225052D01*
X0381991Y0224868D01*
X0381998Y0224684D01*
X0382000Y0224500D01*
X0381998Y0224316D01*
X0381991Y0224132D01*
X0381980Y0223948D01*
X0381964Y0223765D01*
X0381944Y0223582D01*
X0381919Y0223400D01*
X0381890Y0223218D01*
X0381856Y0223037D01*
X0381818Y0222857D01*
X0381775Y0222678D01*
X0381728Y0222500D01*
X0381677Y0222323D01*
X0381621Y0222147D01*
X0381562Y0221973D01*
X0381497Y0221801D01*
X0381429Y0221630D01*
X0381357Y0221461D01*
X0381280Y0221293D01*
X0381199Y0221128D01*
X0381114Y0220965D01*
X0381026Y0220803D01*
X0380933Y0220644D01*
X0380836Y0220488D01*
X0380736Y0220333D01*
X0380632Y0220181D01*
X0380524Y0220032D01*
X0380413Y0219886D01*
X0380298Y0219742D01*
X0380179Y0219601D01*
X0380057Y0219463D01*
X0379932Y0219328D01*
X0379803Y0219197D01*
X0379672Y0219068D01*
X0379537Y0218943D01*
X0379399Y0218821D01*
X0379258Y0218702D01*
X0379114Y0218587D01*
X0378968Y0218476D01*
X0378819Y0218368D01*
X0378667Y0218264D01*
X0378512Y0218164D01*
X0378356Y0218067D01*
X0378197Y0217974D01*
X0378035Y0217886D01*
X0377872Y0217801D01*
X0377707Y0217720D01*
X0377539Y0217643D01*
X0377370Y0217571D01*
X0377199Y0217503D01*
X0377027Y0217438D01*
X0376853Y0217379D01*
X0376677Y0217323D01*
X0376500Y0217272D01*
X0376322Y0217225D01*
X0376143Y0217182D01*
X0375963Y0217144D01*
X0375782Y0217110D01*
X0375600Y0217081D01*
X0375418Y0217056D01*
X0375235Y0217036D01*
X0375052Y0217020D01*
X0374868Y0217009D01*
X0374684Y0217002D01*
X0374500Y0217000D01*
X0374316Y0217002D01*
X0374132Y0217009D01*
X0373948Y0217020D01*
X0373765Y0217036D01*
X0373582Y0217056D01*
X0373400Y0217081D01*
X0373218Y0217110D01*
X0373037Y0217144D01*
X0372857Y0217182D01*
X0372678Y0217225D01*
X0372500Y0217272D01*
X0372323Y0217323D01*
X0372147Y0217379D01*
X0371973Y0217438D01*
X0371801Y0217503D01*
X0371630Y0217571D01*
X0371461Y0217643D01*
X0371293Y0217720D01*
X0371128Y0217801D01*
X0370965Y0217886D01*
X0370803Y0217974D01*
X0370644Y0218067D01*
X0370488Y0218164D01*
X0370333Y0218264D01*
X0370181Y0218368D01*
X0370032Y0218476D01*
X0369886Y0218587D01*
X0369742Y0218702D01*
X0369601Y0218821D01*
X0369463Y0218943D01*
X0369328Y0219068D01*
X0369197Y0219197D01*
X0369068Y0219328D01*
X0368943Y0219463D01*
X0368821Y0219601D01*
X0368702Y0219742D01*
X0368587Y0219886D01*
X0368476Y0220032D01*
X0368368Y0220181D01*
X0368264Y0220333D01*
X0368164Y0220488D01*
X0368067Y0220644D01*
X0367974Y0220803D01*
X0367886Y0220965D01*
X0367801Y0221128D01*
X0367720Y0221293D01*
X0367643Y0221461D01*
X0367571Y0221630D01*
X0367503Y0221801D01*
X0367438Y0221973D01*
X0367379Y0222147D01*
X0367323Y0222323D01*
X0367272Y0222500D01*
X0367225Y0222678D01*
X0367182Y0222857D01*
X0367144Y0223037D01*
X0367110Y0223218D01*
X0367081Y0223400D01*
X0367056Y0223582D01*
X0367036Y0223765D01*
X0367020Y0223948D01*
X0367009Y0224132D01*
X0367002Y0224316D01*
X0367000Y0224500D01*
M02*
