G75*
%MOIN*%
%OFA0B0*%
%FSLAX25Y25*%
%IPPOS*%
%LPD*%
%AMOC8*
5,1,8,0,0,1.08239X$1,22.5*
%
%ADD10R,0.17600X0.16800*%
%ADD11C,0.03500*%
%ADD12C,0.13843*%
%ADD13C,0.04724*%
%ADD14C,0.03543*%
%ADD15C,0.01600*%
%ADD16C,0.01000*%
D10*
X0334500Y0135700D03*
D11*
X0334500Y0137000D03*
X0329500Y0137000D03*
X0329500Y0132000D03*
X0334500Y0132000D03*
X0339500Y0132000D03*
X0339500Y0137000D03*
X0339500Y0142000D03*
X0334500Y0142000D03*
X0329500Y0142000D03*
D12*
X0194750Y0163400D03*
X0154250Y0163400D03*
X0094750Y0163400D03*
X0054250Y0163400D03*
D13*
X0064500Y0187000D03*
X0084500Y0187000D03*
X0164500Y0187000D03*
X0184500Y0187000D03*
D14*
X0109500Y0047000D03*
X0127000Y0074500D03*
X0147000Y0077000D03*
X0152000Y0062000D03*
X0157000Y0062000D03*
X0157000Y0057000D03*
X0152000Y0057000D03*
X0152000Y0052000D03*
X0157000Y0052000D03*
X0179500Y0047000D03*
X0184500Y0047000D03*
X0184500Y0042000D03*
X0179500Y0042000D03*
X0187000Y0084500D03*
X0177000Y0094500D03*
X0149500Y0094500D03*
X0112000Y0092000D03*
X0102000Y0092000D03*
X0097000Y0104500D03*
X0212000Y0092000D03*
X0219500Y0107000D03*
X0219500Y0117000D03*
X0219500Y0122000D03*
X0219500Y0129500D03*
X0212000Y0142000D03*
X0212000Y0147000D03*
X0212000Y0152000D03*
X0212000Y0164500D03*
X0217000Y0164500D03*
X0277000Y0157000D03*
X0277000Y0152000D03*
X0282000Y0149500D03*
X0277000Y0147000D03*
X0277000Y0142000D03*
X0287000Y0147000D03*
X0277500Y0135000D03*
X0269500Y0127000D03*
X0274500Y0114500D03*
X0269500Y0107000D03*
X0287000Y0114500D03*
X0294500Y0109500D03*
X0307000Y0109500D03*
X0302000Y0119500D03*
X0322000Y0119500D03*
X0327000Y0119500D03*
X0332000Y0119500D03*
X0337000Y0119500D03*
X0342000Y0119500D03*
X0362000Y0119500D03*
X0362000Y0127000D03*
X0367000Y0127000D03*
X0367000Y0132000D03*
X0367000Y0137000D03*
X0362000Y0152000D03*
X0362000Y0157000D03*
X0354500Y0172000D03*
X0349500Y0172000D03*
X0349500Y0177000D03*
X0354500Y0177000D03*
X0354500Y0182000D03*
X0349500Y0182000D03*
X0344500Y0192000D03*
X0334500Y0192000D03*
X0329500Y0192000D03*
X0324500Y0192000D03*
X0319500Y0192000D03*
X0319500Y0187000D03*
X0327000Y0182000D03*
X0327000Y0177000D03*
X0327000Y0172000D03*
X0307000Y0162000D03*
X0307000Y0157000D03*
X0307000Y0152000D03*
X0310500Y0142000D03*
X0304500Y0134500D03*
X0334500Y0104500D03*
X0342000Y0097000D03*
X0363437Y0099500D03*
X0364500Y0087000D03*
X0364500Y0082000D03*
X0309500Y0087000D03*
X0304500Y0082000D03*
X0297000Y0087000D03*
X0277000Y0089500D03*
X0269500Y0089500D03*
X0282000Y0177000D03*
X0287000Y0177000D03*
X0292000Y0177000D03*
X0297000Y0177000D03*
X0302000Y0177000D03*
X0302000Y0197000D03*
X0297000Y0197000D03*
X0292000Y0197000D03*
X0287000Y0197000D03*
X0282000Y0197000D03*
X0309500Y0204500D03*
X0314500Y0204500D03*
X0322000Y0202000D03*
X0327000Y0202000D03*
X0327000Y0207000D03*
X0334500Y0217000D03*
X0344500Y0209500D03*
X0357000Y0222000D03*
X0314500Y0224500D03*
X0309500Y0224500D03*
X0107000Y0222000D03*
X0107000Y0217000D03*
X0107000Y0212000D03*
X0102000Y0212000D03*
X0102000Y0217000D03*
X0102000Y0222000D03*
D15*
X0217000Y0164500D02*
X0217000Y0132000D01*
X0187000Y0102000D01*
X0187000Y0084500D01*
X0212000Y0092000D02*
X0212000Y0122000D01*
X0219500Y0129500D01*
X0219500Y0117000D02*
X0219500Y0107000D01*
X0269500Y0107000D02*
X0274500Y0112000D01*
X0274500Y0114500D01*
X0302000Y0119500D02*
X0302000Y0132000D01*
X0299500Y0134500D01*
X0299500Y0139500D01*
X0302000Y0142000D01*
X0310500Y0142000D01*
X0282000Y0139500D02*
X0282000Y0149500D01*
X0282000Y0139500D02*
X0277500Y0135000D01*
X0307000Y0109500D02*
X0292000Y0094500D01*
X0274500Y0094500D01*
X0269500Y0089500D01*
X0304500Y0082000D02*
X0364500Y0082000D01*
X0363437Y0099500D02*
X0358437Y0104500D01*
X0334500Y0104500D01*
X0324500Y0184500D02*
X0314500Y0184500D01*
X0314500Y0202000D01*
X0292000Y0202000D01*
X0292000Y0227000D01*
X0319500Y0227000D01*
X0319500Y0203985D01*
X0319311Y0203797D01*
X0318828Y0202631D01*
X0318828Y0201369D01*
X0319311Y0200203D01*
X0319500Y0200015D01*
X0319500Y0194500D01*
X0339500Y0194500D01*
X0339500Y0189500D01*
X0324500Y0189500D01*
X0324500Y0184500D01*
X0324500Y0185662D02*
X0314500Y0185662D01*
X0314500Y0187260D02*
X0324500Y0187260D01*
X0324500Y0188859D02*
X0314500Y0188859D01*
X0314500Y0190457D02*
X0339500Y0190457D01*
X0339500Y0192056D02*
X0314500Y0192056D01*
X0314500Y0193654D02*
X0339500Y0193654D01*
X0319500Y0195253D02*
X0314500Y0195253D01*
X0314500Y0196851D02*
X0319500Y0196851D01*
X0319500Y0198450D02*
X0314500Y0198450D01*
X0314500Y0200048D02*
X0319466Y0200048D01*
X0318828Y0201647D02*
X0314500Y0201647D01*
X0319083Y0203245D02*
X0292000Y0203245D01*
X0292000Y0204844D02*
X0319500Y0204844D01*
X0319500Y0206442D02*
X0292000Y0206442D01*
X0292000Y0208041D02*
X0319500Y0208041D01*
X0319500Y0209639D02*
X0292000Y0209639D01*
X0292000Y0211238D02*
X0319500Y0211238D01*
X0319500Y0212836D02*
X0292000Y0212836D01*
X0292000Y0214435D02*
X0319500Y0214435D01*
X0319500Y0216033D02*
X0292000Y0216033D01*
X0292000Y0217632D02*
X0319500Y0217632D01*
X0319500Y0219230D02*
X0292000Y0219230D01*
X0292000Y0220829D02*
X0319500Y0220829D01*
X0319500Y0222427D02*
X0292000Y0222427D01*
X0292000Y0224026D02*
X0319500Y0224026D01*
X0319500Y0225624D02*
X0292000Y0225624D01*
X0334500Y0217000D02*
X0337000Y0217000D01*
X0344500Y0209500D01*
X0149500Y0094500D02*
X0149500Y0090740D01*
X0133260Y0074500D01*
X0127000Y0074500D01*
D16*
X0287000Y0114500D02*
X0347000Y0114500D01*
X0359500Y0127000D01*
X0362000Y0127000D01*
M02*
