G75*
%MOIN*%
%OFA0B0*%
%FSLAX25Y25*%
%IPPOS*%
%LPD*%
%AMOC8*
5,1,8,0,0,1.08239X$1,22.5*
%
%ADD10C,0.00000*%
%ADD11C,0.00200*%
%ADD12R,0.30000X0.00100*%
%ADD13R,0.29800X0.00100*%
%ADD14R,0.29600X0.00100*%
%ADD15R,0.29500X0.00100*%
%ADD16R,0.29400X0.00100*%
%ADD17R,0.29200X0.00100*%
%ADD18R,0.29000X0.00100*%
%ADD19R,0.28800X0.00100*%
%ADD20R,0.28600X0.00100*%
%ADD21R,0.28500X0.00100*%
%ADD22R,0.28400X0.00100*%
%ADD23R,0.07900X0.00100*%
%ADD24R,0.09000X0.00100*%
%ADD25R,0.01600X0.00100*%
%ADD26R,0.02000X0.00100*%
%ADD27R,0.01800X0.00100*%
%ADD28R,0.01900X0.00100*%
%ADD29R,0.01700X0.00100*%
%ADD30R,0.00200X0.00100*%
%ADD31R,0.00100X0.00100*%
%ADD32R,0.00300X0.00100*%
%ADD33R,0.00500X0.00100*%
%ADD34R,0.00400X0.00100*%
%ADD35R,0.00600X0.00100*%
%ADD36R,0.00700X0.00100*%
%ADD37R,0.00900X0.00100*%
%ADD38R,0.01200X0.00100*%
%ADD39R,0.01100X0.00100*%
%ADD40R,0.01300X0.00100*%
%ADD41R,0.01500X0.00100*%
%ADD42R,0.01400X0.00100*%
%ADD43R,0.00800X0.00100*%
%ADD44R,0.01000X0.00100*%
%ADD45R,0.02200X0.00100*%
%ADD46R,0.02600X0.00100*%
%ADD47R,0.02700X0.00100*%
%ADD48R,0.02800X0.00100*%
%ADD49R,0.03100X0.00100*%
%ADD50R,0.04600X0.00100*%
%ADD51R,0.02900X0.00100*%
%ADD52R,0.02500X0.00100*%
%ADD53R,0.02300X0.00100*%
%ADD54R,0.02100X0.00100*%
%ADD55R,0.02400X0.00100*%
%ADD56R,0.03900X0.00100*%
%ADD57R,0.03800X0.00100*%
%ADD58R,0.03700X0.00100*%
%ADD59R,0.03600X0.00100*%
%ADD60R,0.03500X0.00100*%
%ADD61R,0.03300X0.00100*%
%ADD62R,0.03200X0.00100*%
%ADD63R,0.03000X0.00100*%
%ADD64C,0.01600*%
%ADD65C,0.01000*%
%ADD66C,0.00400*%
%ADD67C,0.04000*%
%ADD68R,0.11400X0.00100*%
%ADD69R,0.17100X0.00100*%
%ADD70R,0.21100X0.00100*%
%ADD71R,0.23800X0.00100*%
%ADD72R,0.25800X0.00100*%
%ADD73R,0.27400X0.00100*%
%ADD74R,0.13200X0.00100*%
%ADD75R,0.27800X0.00100*%
%ADD76R,0.28300X0.00100*%
%ADD77R,0.13300X0.00100*%
%ADD78R,0.13400X0.00100*%
%ADD79R,0.15700X0.00100*%
%ADD80R,0.07800X0.00100*%
%ADD81R,0.07600X0.00100*%
%ADD82R,0.04500X0.00100*%
%ADD83R,0.04100X0.00100*%
%ADD84R,0.07500X0.00100*%
%ADD85R,0.07400X0.00100*%
%ADD86R,0.07300X0.00100*%
%ADD87R,0.07200X0.00100*%
%ADD88R,0.07100X0.00100*%
%ADD89R,0.07000X0.00100*%
%ADD90R,0.06900X0.00100*%
%ADD91R,0.06800X0.00100*%
%ADD92R,0.06700X0.00100*%
%ADD93R,0.06600X0.00100*%
%ADD94R,0.06500X0.00100*%
%ADD95R,0.06400X0.00100*%
%ADD96R,0.06300X0.00100*%
%ADD97R,0.06200X0.00100*%
%ADD98R,0.06100X0.00100*%
%ADD99R,0.06000X0.00100*%
%ADD100R,0.05900X0.00100*%
%ADD101R,0.05800X0.00100*%
%ADD102R,0.05700X0.00100*%
%ADD103R,0.05600X0.00100*%
%ADD104R,0.05500X0.00100*%
%ADD105R,0.03400X0.00100*%
%ADD106R,0.05400X0.00100*%
%ADD107R,0.05300X0.00100*%
%ADD108R,0.04000X0.00100*%
%ADD109R,0.05200X0.00100*%
%ADD110R,0.05100X0.00100*%
%ADD111R,0.04300X0.00100*%
%ADD112R,0.04400X0.00100*%
%ADD113R,0.09500X0.00100*%
%ADD114R,0.09400X0.00100*%
%ADD115R,0.09300X0.00100*%
%ADD116R,0.09200X0.00100*%
%ADD117R,0.09100X0.00100*%
%ADD118R,0.08900X0.00100*%
%ADD119R,0.08800X0.00100*%
%ADD120R,0.08700X0.00100*%
%ADD121R,0.08600X0.00100*%
%ADD122R,0.08500X0.00100*%
%ADD123R,0.08400X0.00100*%
%ADD124R,0.04200X0.00100*%
%ADD125R,0.05000X0.00100*%
%ADD126R,0.04900X0.00100*%
%ADD127R,0.04700X0.00100*%
%ADD128R,0.10800X0.00100*%
%ADD129R,0.12300X0.00100*%
%ADD130R,0.13600X0.00100*%
%ADD131R,0.14900X0.00100*%
%ADD132R,0.16100X0.00100*%
%ADD133R,0.17300X0.00100*%
%ADD134R,0.18300X0.00100*%
%ADD135R,0.19400X0.00100*%
%ADD136R,0.04800X0.00100*%
%ADD137R,0.20500X0.00100*%
%ADD138R,0.21500X0.00100*%
%ADD139R,0.22500X0.00100*%
%ADD140R,0.23500X0.00100*%
%ADD141R,0.24100X0.00100*%
%ADD142R,0.24600X0.00100*%
%ADD143R,0.12100X0.00100*%
%ADD144R,0.12200X0.00100*%
%ADD145R,0.09900X0.00100*%
%ADD146R,0.09700X0.00100*%
%ADD147R,0.08200X0.00100*%
%ADD148R,0.07700X0.00100*%
%ADD149R,0.12000X0.00100*%
%ADD150R,0.11800X0.00100*%
%ADD151R,0.11100X0.00100*%
%ADD152R,0.12400X0.00100*%
%ADD153R,0.12600X0.00100*%
%ADD154R,0.10400X0.00100*%
%ADD155R,0.12800X0.00100*%
%ADD156R,0.10200X0.00100*%
%ADD157R,0.13100X0.00100*%
%ADD158R,0.13800X0.00100*%
%ADD159R,0.14100X0.00100*%
%ADD160R,0.08000X0.00100*%
%ADD161R,0.14200X0.00100*%
%ADD162R,0.11600X0.00100*%
%ADD163R,0.10900X0.00100*%
%ADD164R,0.10300X0.00100*%
%ADD165R,0.16400X0.00100*%
%ADD166R,0.16300X0.00100*%
%ADD167R,0.15900X0.00100*%
%ADD168R,0.15500X0.00100*%
%ADD169R,0.11200X0.00100*%
%ADD170R,0.09600X0.00100*%
%ADD171C,0.01969*%
%ADD172C,0.00500*%
%ADD173R,0.02559X0.05512*%
%ADD174R,0.05512X0.02559*%
%ADD175R,0.00787X0.00787*%
%ADD176C,0.00300*%
%ADD177C,0.00600*%
D10*
X0037000Y0037000D02*
X0037000Y0238201D01*
X0386921Y0238201D01*
X0386921Y0037000D01*
X0037000Y0037000D01*
X0044500Y0052000D02*
X0044502Y0052184D01*
X0044509Y0052368D01*
X0044520Y0052552D01*
X0044536Y0052735D01*
X0044556Y0052918D01*
X0044581Y0053100D01*
X0044610Y0053282D01*
X0044644Y0053463D01*
X0044682Y0053643D01*
X0044725Y0053822D01*
X0044772Y0054000D01*
X0044823Y0054177D01*
X0044879Y0054353D01*
X0044938Y0054527D01*
X0045003Y0054699D01*
X0045071Y0054870D01*
X0045143Y0055039D01*
X0045220Y0055207D01*
X0045301Y0055372D01*
X0045386Y0055535D01*
X0045474Y0055697D01*
X0045567Y0055856D01*
X0045664Y0056012D01*
X0045764Y0056167D01*
X0045868Y0056319D01*
X0045976Y0056468D01*
X0046087Y0056614D01*
X0046202Y0056758D01*
X0046321Y0056899D01*
X0046443Y0057037D01*
X0046568Y0057172D01*
X0046697Y0057303D01*
X0046828Y0057432D01*
X0046963Y0057557D01*
X0047101Y0057679D01*
X0047242Y0057798D01*
X0047386Y0057913D01*
X0047532Y0058024D01*
X0047681Y0058132D01*
X0047833Y0058236D01*
X0047988Y0058336D01*
X0048144Y0058433D01*
X0048303Y0058526D01*
X0048465Y0058614D01*
X0048628Y0058699D01*
X0048793Y0058780D01*
X0048961Y0058857D01*
X0049130Y0058929D01*
X0049301Y0058997D01*
X0049473Y0059062D01*
X0049647Y0059121D01*
X0049823Y0059177D01*
X0050000Y0059228D01*
X0050178Y0059275D01*
X0050357Y0059318D01*
X0050537Y0059356D01*
X0050718Y0059390D01*
X0050900Y0059419D01*
X0051082Y0059444D01*
X0051265Y0059464D01*
X0051448Y0059480D01*
X0051632Y0059491D01*
X0051816Y0059498D01*
X0052000Y0059500D01*
X0052184Y0059498D01*
X0052368Y0059491D01*
X0052552Y0059480D01*
X0052735Y0059464D01*
X0052918Y0059444D01*
X0053100Y0059419D01*
X0053282Y0059390D01*
X0053463Y0059356D01*
X0053643Y0059318D01*
X0053822Y0059275D01*
X0054000Y0059228D01*
X0054177Y0059177D01*
X0054353Y0059121D01*
X0054527Y0059062D01*
X0054699Y0058997D01*
X0054870Y0058929D01*
X0055039Y0058857D01*
X0055207Y0058780D01*
X0055372Y0058699D01*
X0055535Y0058614D01*
X0055697Y0058526D01*
X0055856Y0058433D01*
X0056012Y0058336D01*
X0056167Y0058236D01*
X0056319Y0058132D01*
X0056468Y0058024D01*
X0056614Y0057913D01*
X0056758Y0057798D01*
X0056899Y0057679D01*
X0057037Y0057557D01*
X0057172Y0057432D01*
X0057303Y0057303D01*
X0057432Y0057172D01*
X0057557Y0057037D01*
X0057679Y0056899D01*
X0057798Y0056758D01*
X0057913Y0056614D01*
X0058024Y0056468D01*
X0058132Y0056319D01*
X0058236Y0056167D01*
X0058336Y0056012D01*
X0058433Y0055856D01*
X0058526Y0055697D01*
X0058614Y0055535D01*
X0058699Y0055372D01*
X0058780Y0055207D01*
X0058857Y0055039D01*
X0058929Y0054870D01*
X0058997Y0054699D01*
X0059062Y0054527D01*
X0059121Y0054353D01*
X0059177Y0054177D01*
X0059228Y0054000D01*
X0059275Y0053822D01*
X0059318Y0053643D01*
X0059356Y0053463D01*
X0059390Y0053282D01*
X0059419Y0053100D01*
X0059444Y0052918D01*
X0059464Y0052735D01*
X0059480Y0052552D01*
X0059491Y0052368D01*
X0059498Y0052184D01*
X0059500Y0052000D01*
X0059498Y0051816D01*
X0059491Y0051632D01*
X0059480Y0051448D01*
X0059464Y0051265D01*
X0059444Y0051082D01*
X0059419Y0050900D01*
X0059390Y0050718D01*
X0059356Y0050537D01*
X0059318Y0050357D01*
X0059275Y0050178D01*
X0059228Y0050000D01*
X0059177Y0049823D01*
X0059121Y0049647D01*
X0059062Y0049473D01*
X0058997Y0049301D01*
X0058929Y0049130D01*
X0058857Y0048961D01*
X0058780Y0048793D01*
X0058699Y0048628D01*
X0058614Y0048465D01*
X0058526Y0048303D01*
X0058433Y0048144D01*
X0058336Y0047988D01*
X0058236Y0047833D01*
X0058132Y0047681D01*
X0058024Y0047532D01*
X0057913Y0047386D01*
X0057798Y0047242D01*
X0057679Y0047101D01*
X0057557Y0046963D01*
X0057432Y0046828D01*
X0057303Y0046697D01*
X0057172Y0046568D01*
X0057037Y0046443D01*
X0056899Y0046321D01*
X0056758Y0046202D01*
X0056614Y0046087D01*
X0056468Y0045976D01*
X0056319Y0045868D01*
X0056167Y0045764D01*
X0056012Y0045664D01*
X0055856Y0045567D01*
X0055697Y0045474D01*
X0055535Y0045386D01*
X0055372Y0045301D01*
X0055207Y0045220D01*
X0055039Y0045143D01*
X0054870Y0045071D01*
X0054699Y0045003D01*
X0054527Y0044938D01*
X0054353Y0044879D01*
X0054177Y0044823D01*
X0054000Y0044772D01*
X0053822Y0044725D01*
X0053643Y0044682D01*
X0053463Y0044644D01*
X0053282Y0044610D01*
X0053100Y0044581D01*
X0052918Y0044556D01*
X0052735Y0044536D01*
X0052552Y0044520D01*
X0052368Y0044509D01*
X0052184Y0044502D01*
X0052000Y0044500D01*
X0051816Y0044502D01*
X0051632Y0044509D01*
X0051448Y0044520D01*
X0051265Y0044536D01*
X0051082Y0044556D01*
X0050900Y0044581D01*
X0050718Y0044610D01*
X0050537Y0044644D01*
X0050357Y0044682D01*
X0050178Y0044725D01*
X0050000Y0044772D01*
X0049823Y0044823D01*
X0049647Y0044879D01*
X0049473Y0044938D01*
X0049301Y0045003D01*
X0049130Y0045071D01*
X0048961Y0045143D01*
X0048793Y0045220D01*
X0048628Y0045301D01*
X0048465Y0045386D01*
X0048303Y0045474D01*
X0048144Y0045567D01*
X0047988Y0045664D01*
X0047833Y0045764D01*
X0047681Y0045868D01*
X0047532Y0045976D01*
X0047386Y0046087D01*
X0047242Y0046202D01*
X0047101Y0046321D01*
X0046963Y0046443D01*
X0046828Y0046568D01*
X0046697Y0046697D01*
X0046568Y0046828D01*
X0046443Y0046963D01*
X0046321Y0047101D01*
X0046202Y0047242D01*
X0046087Y0047386D01*
X0045976Y0047532D01*
X0045868Y0047681D01*
X0045764Y0047833D01*
X0045664Y0047988D01*
X0045567Y0048144D01*
X0045474Y0048303D01*
X0045386Y0048465D01*
X0045301Y0048628D01*
X0045220Y0048793D01*
X0045143Y0048961D01*
X0045071Y0049130D01*
X0045003Y0049301D01*
X0044938Y0049473D01*
X0044879Y0049647D01*
X0044823Y0049823D01*
X0044772Y0050000D01*
X0044725Y0050178D01*
X0044682Y0050357D01*
X0044644Y0050537D01*
X0044610Y0050718D01*
X0044581Y0050900D01*
X0044556Y0051082D01*
X0044536Y0051265D01*
X0044520Y0051448D01*
X0044509Y0051632D01*
X0044502Y0051816D01*
X0044500Y0052000D01*
X0161700Y0093300D02*
X0161631Y0093302D01*
X0161563Y0093308D01*
X0161495Y0093318D01*
X0161428Y0093331D01*
X0161362Y0093349D01*
X0161297Y0093370D01*
X0161233Y0093395D01*
X0161171Y0093423D01*
X0161110Y0093455D01*
X0161051Y0093490D01*
X0160995Y0093529D01*
X0160940Y0093571D01*
X0160889Y0093616D01*
X0160839Y0093664D01*
X0160793Y0093714D01*
X0160750Y0093767D01*
X0160709Y0093823D01*
X0160672Y0093880D01*
X0160639Y0093940D01*
X0160608Y0094002D01*
X0160582Y0094065D01*
X0160559Y0094129D01*
X0160539Y0094195D01*
X0160524Y0094262D01*
X0160512Y0094329D01*
X0160504Y0094397D01*
X0160500Y0094466D01*
X0160500Y0094534D01*
X0160504Y0094603D01*
X0160512Y0094671D01*
X0160524Y0094738D01*
X0160539Y0094805D01*
X0160559Y0094871D01*
X0160582Y0094935D01*
X0160608Y0094998D01*
X0160639Y0095060D01*
X0160672Y0095120D01*
X0160709Y0095177D01*
X0160750Y0095233D01*
X0160793Y0095286D01*
X0160839Y0095336D01*
X0160889Y0095384D01*
X0160940Y0095429D01*
X0160995Y0095471D01*
X0161051Y0095510D01*
X0161110Y0095545D01*
X0161171Y0095577D01*
X0161233Y0095605D01*
X0161297Y0095630D01*
X0161362Y0095651D01*
X0161428Y0095669D01*
X0161495Y0095682D01*
X0161563Y0095692D01*
X0161631Y0095698D01*
X0161700Y0095700D01*
X0161631Y0095698D01*
X0161563Y0095692D01*
X0161495Y0095682D01*
X0161428Y0095669D01*
X0161362Y0095651D01*
X0161297Y0095630D01*
X0161233Y0095605D01*
X0161171Y0095577D01*
X0161110Y0095545D01*
X0161051Y0095510D01*
X0160995Y0095471D01*
X0160940Y0095429D01*
X0160889Y0095384D01*
X0160839Y0095336D01*
X0160793Y0095286D01*
X0160750Y0095233D01*
X0160709Y0095177D01*
X0160672Y0095120D01*
X0160639Y0095060D01*
X0160608Y0094998D01*
X0160582Y0094935D01*
X0160559Y0094871D01*
X0160539Y0094805D01*
X0160524Y0094738D01*
X0160512Y0094671D01*
X0160504Y0094603D01*
X0160500Y0094534D01*
X0160500Y0094466D01*
X0160504Y0094397D01*
X0160512Y0094329D01*
X0160524Y0094262D01*
X0160539Y0094195D01*
X0160559Y0094129D01*
X0160582Y0094065D01*
X0160608Y0094002D01*
X0160639Y0093940D01*
X0160672Y0093880D01*
X0160709Y0093823D01*
X0160750Y0093767D01*
X0160793Y0093714D01*
X0160839Y0093664D01*
X0160889Y0093616D01*
X0160940Y0093571D01*
X0160995Y0093529D01*
X0161051Y0093490D01*
X0161110Y0093455D01*
X0161171Y0093423D01*
X0161233Y0093395D01*
X0161297Y0093370D01*
X0161362Y0093349D01*
X0161428Y0093331D01*
X0161495Y0093318D01*
X0161563Y0093308D01*
X0161631Y0093302D01*
X0161700Y0093300D01*
X0161631Y0093302D01*
X0161563Y0093308D01*
X0161495Y0093318D01*
X0161428Y0093331D01*
X0161362Y0093349D01*
X0161297Y0093370D01*
X0161233Y0093395D01*
X0161171Y0093423D01*
X0161110Y0093455D01*
X0161051Y0093490D01*
X0160995Y0093529D01*
X0160940Y0093571D01*
X0160889Y0093616D01*
X0160839Y0093664D01*
X0160793Y0093714D01*
X0160750Y0093767D01*
X0160709Y0093823D01*
X0160672Y0093880D01*
X0160639Y0093940D01*
X0160608Y0094002D01*
X0160582Y0094065D01*
X0160559Y0094129D01*
X0160539Y0094195D01*
X0160524Y0094262D01*
X0160512Y0094329D01*
X0160504Y0094397D01*
X0160500Y0094466D01*
X0160500Y0094534D01*
X0160504Y0094603D01*
X0160512Y0094671D01*
X0160524Y0094738D01*
X0160539Y0094805D01*
X0160559Y0094871D01*
X0160582Y0094935D01*
X0160608Y0094998D01*
X0160639Y0095060D01*
X0160672Y0095120D01*
X0160709Y0095177D01*
X0160750Y0095233D01*
X0160793Y0095286D01*
X0160839Y0095336D01*
X0160889Y0095384D01*
X0160940Y0095429D01*
X0160995Y0095471D01*
X0161051Y0095510D01*
X0161110Y0095545D01*
X0161171Y0095577D01*
X0161233Y0095605D01*
X0161297Y0095630D01*
X0161362Y0095651D01*
X0161428Y0095669D01*
X0161495Y0095682D01*
X0161563Y0095692D01*
X0161631Y0095698D01*
X0161700Y0095700D01*
X0161631Y0095698D01*
X0161563Y0095692D01*
X0161495Y0095682D01*
X0161428Y0095669D01*
X0161362Y0095651D01*
X0161297Y0095630D01*
X0161233Y0095605D01*
X0161171Y0095577D01*
X0161110Y0095545D01*
X0161051Y0095510D01*
X0160995Y0095471D01*
X0160940Y0095429D01*
X0160889Y0095384D01*
X0160839Y0095336D01*
X0160793Y0095286D01*
X0160750Y0095233D01*
X0160709Y0095177D01*
X0160672Y0095120D01*
X0160639Y0095060D01*
X0160608Y0094998D01*
X0160582Y0094935D01*
X0160559Y0094871D01*
X0160539Y0094805D01*
X0160524Y0094738D01*
X0160512Y0094671D01*
X0160504Y0094603D01*
X0160500Y0094534D01*
X0160500Y0094466D01*
X0160504Y0094397D01*
X0160512Y0094329D01*
X0160524Y0094262D01*
X0160539Y0094195D01*
X0160559Y0094129D01*
X0160582Y0094065D01*
X0160608Y0094002D01*
X0160639Y0093940D01*
X0160672Y0093880D01*
X0160709Y0093823D01*
X0160750Y0093767D01*
X0160793Y0093714D01*
X0160839Y0093664D01*
X0160889Y0093616D01*
X0160940Y0093571D01*
X0160995Y0093529D01*
X0161051Y0093490D01*
X0161110Y0093455D01*
X0161171Y0093423D01*
X0161233Y0093395D01*
X0161297Y0093370D01*
X0161362Y0093349D01*
X0161428Y0093331D01*
X0161495Y0093318D01*
X0161563Y0093308D01*
X0161631Y0093302D01*
X0161700Y0093300D01*
X0161631Y0093302D01*
X0161563Y0093308D01*
X0161495Y0093318D01*
X0161428Y0093331D01*
X0161362Y0093349D01*
X0161297Y0093370D01*
X0161233Y0093395D01*
X0161171Y0093423D01*
X0161110Y0093455D01*
X0161051Y0093490D01*
X0160995Y0093529D01*
X0160940Y0093571D01*
X0160889Y0093616D01*
X0160839Y0093664D01*
X0160793Y0093714D01*
X0160750Y0093767D01*
X0160709Y0093823D01*
X0160672Y0093880D01*
X0160639Y0093940D01*
X0160608Y0094002D01*
X0160582Y0094065D01*
X0160559Y0094129D01*
X0160539Y0094195D01*
X0160524Y0094262D01*
X0160512Y0094329D01*
X0160504Y0094397D01*
X0160500Y0094466D01*
X0160500Y0094534D01*
X0160504Y0094603D01*
X0160512Y0094671D01*
X0160524Y0094738D01*
X0160539Y0094805D01*
X0160559Y0094871D01*
X0160582Y0094935D01*
X0160608Y0094998D01*
X0160639Y0095060D01*
X0160672Y0095120D01*
X0160709Y0095177D01*
X0160750Y0095233D01*
X0160793Y0095286D01*
X0160839Y0095336D01*
X0160889Y0095384D01*
X0160940Y0095429D01*
X0160995Y0095471D01*
X0161051Y0095510D01*
X0161110Y0095545D01*
X0161171Y0095577D01*
X0161233Y0095605D01*
X0161297Y0095630D01*
X0161362Y0095651D01*
X0161428Y0095669D01*
X0161495Y0095682D01*
X0161563Y0095692D01*
X0161631Y0095698D01*
X0161700Y0095700D01*
X0161631Y0095698D01*
X0161563Y0095692D01*
X0161495Y0095682D01*
X0161428Y0095669D01*
X0161362Y0095651D01*
X0161297Y0095630D01*
X0161233Y0095605D01*
X0161171Y0095577D01*
X0161110Y0095545D01*
X0161051Y0095510D01*
X0160995Y0095471D01*
X0160940Y0095429D01*
X0160889Y0095384D01*
X0160839Y0095336D01*
X0160793Y0095286D01*
X0160750Y0095233D01*
X0160709Y0095177D01*
X0160672Y0095120D01*
X0160639Y0095060D01*
X0160608Y0094998D01*
X0160582Y0094935D01*
X0160559Y0094871D01*
X0160539Y0094805D01*
X0160524Y0094738D01*
X0160512Y0094671D01*
X0160504Y0094603D01*
X0160500Y0094534D01*
X0160500Y0094466D01*
X0160504Y0094397D01*
X0160512Y0094329D01*
X0160524Y0094262D01*
X0160539Y0094195D01*
X0160559Y0094129D01*
X0160582Y0094065D01*
X0160608Y0094002D01*
X0160639Y0093940D01*
X0160672Y0093880D01*
X0160709Y0093823D01*
X0160750Y0093767D01*
X0160793Y0093714D01*
X0160839Y0093664D01*
X0160889Y0093616D01*
X0160940Y0093571D01*
X0160995Y0093529D01*
X0161051Y0093490D01*
X0161110Y0093455D01*
X0161171Y0093423D01*
X0161233Y0093395D01*
X0161297Y0093370D01*
X0161362Y0093349D01*
X0161428Y0093331D01*
X0161495Y0093318D01*
X0161563Y0093308D01*
X0161631Y0093302D01*
X0161700Y0093300D01*
X0161631Y0093302D01*
X0161563Y0093308D01*
X0161495Y0093318D01*
X0161428Y0093331D01*
X0161362Y0093349D01*
X0161297Y0093370D01*
X0161233Y0093395D01*
X0161171Y0093423D01*
X0161110Y0093455D01*
X0161051Y0093490D01*
X0160995Y0093529D01*
X0160940Y0093571D01*
X0160889Y0093616D01*
X0160839Y0093664D01*
X0160793Y0093714D01*
X0160750Y0093767D01*
X0160709Y0093823D01*
X0160672Y0093880D01*
X0160639Y0093940D01*
X0160608Y0094002D01*
X0160582Y0094065D01*
X0160559Y0094129D01*
X0160539Y0094195D01*
X0160524Y0094262D01*
X0160512Y0094329D01*
X0160504Y0094397D01*
X0160500Y0094466D01*
X0160500Y0094534D01*
X0160504Y0094603D01*
X0160512Y0094671D01*
X0160524Y0094738D01*
X0160539Y0094805D01*
X0160559Y0094871D01*
X0160582Y0094935D01*
X0160608Y0094998D01*
X0160639Y0095060D01*
X0160672Y0095120D01*
X0160709Y0095177D01*
X0160750Y0095233D01*
X0160793Y0095286D01*
X0160839Y0095336D01*
X0160889Y0095384D01*
X0160940Y0095429D01*
X0160995Y0095471D01*
X0161051Y0095510D01*
X0161110Y0095545D01*
X0161171Y0095577D01*
X0161233Y0095605D01*
X0161297Y0095630D01*
X0161362Y0095651D01*
X0161428Y0095669D01*
X0161495Y0095682D01*
X0161563Y0095692D01*
X0161631Y0095698D01*
X0161700Y0095700D01*
X0367000Y0064500D02*
X0367002Y0064684D01*
X0367009Y0064868D01*
X0367020Y0065052D01*
X0367036Y0065235D01*
X0367056Y0065418D01*
X0367081Y0065600D01*
X0367110Y0065782D01*
X0367144Y0065963D01*
X0367182Y0066143D01*
X0367225Y0066322D01*
X0367272Y0066500D01*
X0367323Y0066677D01*
X0367379Y0066853D01*
X0367438Y0067027D01*
X0367503Y0067199D01*
X0367571Y0067370D01*
X0367643Y0067539D01*
X0367720Y0067707D01*
X0367801Y0067872D01*
X0367886Y0068035D01*
X0367974Y0068197D01*
X0368067Y0068356D01*
X0368164Y0068512D01*
X0368264Y0068667D01*
X0368368Y0068819D01*
X0368476Y0068968D01*
X0368587Y0069114D01*
X0368702Y0069258D01*
X0368821Y0069399D01*
X0368943Y0069537D01*
X0369068Y0069672D01*
X0369197Y0069803D01*
X0369328Y0069932D01*
X0369463Y0070057D01*
X0369601Y0070179D01*
X0369742Y0070298D01*
X0369886Y0070413D01*
X0370032Y0070524D01*
X0370181Y0070632D01*
X0370333Y0070736D01*
X0370488Y0070836D01*
X0370644Y0070933D01*
X0370803Y0071026D01*
X0370965Y0071114D01*
X0371128Y0071199D01*
X0371293Y0071280D01*
X0371461Y0071357D01*
X0371630Y0071429D01*
X0371801Y0071497D01*
X0371973Y0071562D01*
X0372147Y0071621D01*
X0372323Y0071677D01*
X0372500Y0071728D01*
X0372678Y0071775D01*
X0372857Y0071818D01*
X0373037Y0071856D01*
X0373218Y0071890D01*
X0373400Y0071919D01*
X0373582Y0071944D01*
X0373765Y0071964D01*
X0373948Y0071980D01*
X0374132Y0071991D01*
X0374316Y0071998D01*
X0374500Y0072000D01*
X0374684Y0071998D01*
X0374868Y0071991D01*
X0375052Y0071980D01*
X0375235Y0071964D01*
X0375418Y0071944D01*
X0375600Y0071919D01*
X0375782Y0071890D01*
X0375963Y0071856D01*
X0376143Y0071818D01*
X0376322Y0071775D01*
X0376500Y0071728D01*
X0376677Y0071677D01*
X0376853Y0071621D01*
X0377027Y0071562D01*
X0377199Y0071497D01*
X0377370Y0071429D01*
X0377539Y0071357D01*
X0377707Y0071280D01*
X0377872Y0071199D01*
X0378035Y0071114D01*
X0378197Y0071026D01*
X0378356Y0070933D01*
X0378512Y0070836D01*
X0378667Y0070736D01*
X0378819Y0070632D01*
X0378968Y0070524D01*
X0379114Y0070413D01*
X0379258Y0070298D01*
X0379399Y0070179D01*
X0379537Y0070057D01*
X0379672Y0069932D01*
X0379803Y0069803D01*
X0379932Y0069672D01*
X0380057Y0069537D01*
X0380179Y0069399D01*
X0380298Y0069258D01*
X0380413Y0069114D01*
X0380524Y0068968D01*
X0380632Y0068819D01*
X0380736Y0068667D01*
X0380836Y0068512D01*
X0380933Y0068356D01*
X0381026Y0068197D01*
X0381114Y0068035D01*
X0381199Y0067872D01*
X0381280Y0067707D01*
X0381357Y0067539D01*
X0381429Y0067370D01*
X0381497Y0067199D01*
X0381562Y0067027D01*
X0381621Y0066853D01*
X0381677Y0066677D01*
X0381728Y0066500D01*
X0381775Y0066322D01*
X0381818Y0066143D01*
X0381856Y0065963D01*
X0381890Y0065782D01*
X0381919Y0065600D01*
X0381944Y0065418D01*
X0381964Y0065235D01*
X0381980Y0065052D01*
X0381991Y0064868D01*
X0381998Y0064684D01*
X0382000Y0064500D01*
X0381998Y0064316D01*
X0381991Y0064132D01*
X0381980Y0063948D01*
X0381964Y0063765D01*
X0381944Y0063582D01*
X0381919Y0063400D01*
X0381890Y0063218D01*
X0381856Y0063037D01*
X0381818Y0062857D01*
X0381775Y0062678D01*
X0381728Y0062500D01*
X0381677Y0062323D01*
X0381621Y0062147D01*
X0381562Y0061973D01*
X0381497Y0061801D01*
X0381429Y0061630D01*
X0381357Y0061461D01*
X0381280Y0061293D01*
X0381199Y0061128D01*
X0381114Y0060965D01*
X0381026Y0060803D01*
X0380933Y0060644D01*
X0380836Y0060488D01*
X0380736Y0060333D01*
X0380632Y0060181D01*
X0380524Y0060032D01*
X0380413Y0059886D01*
X0380298Y0059742D01*
X0380179Y0059601D01*
X0380057Y0059463D01*
X0379932Y0059328D01*
X0379803Y0059197D01*
X0379672Y0059068D01*
X0379537Y0058943D01*
X0379399Y0058821D01*
X0379258Y0058702D01*
X0379114Y0058587D01*
X0378968Y0058476D01*
X0378819Y0058368D01*
X0378667Y0058264D01*
X0378512Y0058164D01*
X0378356Y0058067D01*
X0378197Y0057974D01*
X0378035Y0057886D01*
X0377872Y0057801D01*
X0377707Y0057720D01*
X0377539Y0057643D01*
X0377370Y0057571D01*
X0377199Y0057503D01*
X0377027Y0057438D01*
X0376853Y0057379D01*
X0376677Y0057323D01*
X0376500Y0057272D01*
X0376322Y0057225D01*
X0376143Y0057182D01*
X0375963Y0057144D01*
X0375782Y0057110D01*
X0375600Y0057081D01*
X0375418Y0057056D01*
X0375235Y0057036D01*
X0375052Y0057020D01*
X0374868Y0057009D01*
X0374684Y0057002D01*
X0374500Y0057000D01*
X0374316Y0057002D01*
X0374132Y0057009D01*
X0373948Y0057020D01*
X0373765Y0057036D01*
X0373582Y0057056D01*
X0373400Y0057081D01*
X0373218Y0057110D01*
X0373037Y0057144D01*
X0372857Y0057182D01*
X0372678Y0057225D01*
X0372500Y0057272D01*
X0372323Y0057323D01*
X0372147Y0057379D01*
X0371973Y0057438D01*
X0371801Y0057503D01*
X0371630Y0057571D01*
X0371461Y0057643D01*
X0371293Y0057720D01*
X0371128Y0057801D01*
X0370965Y0057886D01*
X0370803Y0057974D01*
X0370644Y0058067D01*
X0370488Y0058164D01*
X0370333Y0058264D01*
X0370181Y0058368D01*
X0370032Y0058476D01*
X0369886Y0058587D01*
X0369742Y0058702D01*
X0369601Y0058821D01*
X0369463Y0058943D01*
X0369328Y0059068D01*
X0369197Y0059197D01*
X0369068Y0059328D01*
X0368943Y0059463D01*
X0368821Y0059601D01*
X0368702Y0059742D01*
X0368587Y0059886D01*
X0368476Y0060032D01*
X0368368Y0060181D01*
X0368264Y0060333D01*
X0368164Y0060488D01*
X0368067Y0060644D01*
X0367974Y0060803D01*
X0367886Y0060965D01*
X0367801Y0061128D01*
X0367720Y0061293D01*
X0367643Y0061461D01*
X0367571Y0061630D01*
X0367503Y0061801D01*
X0367438Y0061973D01*
X0367379Y0062147D01*
X0367323Y0062323D01*
X0367272Y0062500D01*
X0367225Y0062678D01*
X0367182Y0062857D01*
X0367144Y0063037D01*
X0367110Y0063218D01*
X0367081Y0063400D01*
X0367056Y0063582D01*
X0367036Y0063765D01*
X0367020Y0063948D01*
X0367009Y0064132D01*
X0367002Y0064316D01*
X0367000Y0064500D01*
X0367000Y0224500D02*
X0367002Y0224684D01*
X0367009Y0224868D01*
X0367020Y0225052D01*
X0367036Y0225235D01*
X0367056Y0225418D01*
X0367081Y0225600D01*
X0367110Y0225782D01*
X0367144Y0225963D01*
X0367182Y0226143D01*
X0367225Y0226322D01*
X0367272Y0226500D01*
X0367323Y0226677D01*
X0367379Y0226853D01*
X0367438Y0227027D01*
X0367503Y0227199D01*
X0367571Y0227370D01*
X0367643Y0227539D01*
X0367720Y0227707D01*
X0367801Y0227872D01*
X0367886Y0228035D01*
X0367974Y0228197D01*
X0368067Y0228356D01*
X0368164Y0228512D01*
X0368264Y0228667D01*
X0368368Y0228819D01*
X0368476Y0228968D01*
X0368587Y0229114D01*
X0368702Y0229258D01*
X0368821Y0229399D01*
X0368943Y0229537D01*
X0369068Y0229672D01*
X0369197Y0229803D01*
X0369328Y0229932D01*
X0369463Y0230057D01*
X0369601Y0230179D01*
X0369742Y0230298D01*
X0369886Y0230413D01*
X0370032Y0230524D01*
X0370181Y0230632D01*
X0370333Y0230736D01*
X0370488Y0230836D01*
X0370644Y0230933D01*
X0370803Y0231026D01*
X0370965Y0231114D01*
X0371128Y0231199D01*
X0371293Y0231280D01*
X0371461Y0231357D01*
X0371630Y0231429D01*
X0371801Y0231497D01*
X0371973Y0231562D01*
X0372147Y0231621D01*
X0372323Y0231677D01*
X0372500Y0231728D01*
X0372678Y0231775D01*
X0372857Y0231818D01*
X0373037Y0231856D01*
X0373218Y0231890D01*
X0373400Y0231919D01*
X0373582Y0231944D01*
X0373765Y0231964D01*
X0373948Y0231980D01*
X0374132Y0231991D01*
X0374316Y0231998D01*
X0374500Y0232000D01*
X0374684Y0231998D01*
X0374868Y0231991D01*
X0375052Y0231980D01*
X0375235Y0231964D01*
X0375418Y0231944D01*
X0375600Y0231919D01*
X0375782Y0231890D01*
X0375963Y0231856D01*
X0376143Y0231818D01*
X0376322Y0231775D01*
X0376500Y0231728D01*
X0376677Y0231677D01*
X0376853Y0231621D01*
X0377027Y0231562D01*
X0377199Y0231497D01*
X0377370Y0231429D01*
X0377539Y0231357D01*
X0377707Y0231280D01*
X0377872Y0231199D01*
X0378035Y0231114D01*
X0378197Y0231026D01*
X0378356Y0230933D01*
X0378512Y0230836D01*
X0378667Y0230736D01*
X0378819Y0230632D01*
X0378968Y0230524D01*
X0379114Y0230413D01*
X0379258Y0230298D01*
X0379399Y0230179D01*
X0379537Y0230057D01*
X0379672Y0229932D01*
X0379803Y0229803D01*
X0379932Y0229672D01*
X0380057Y0229537D01*
X0380179Y0229399D01*
X0380298Y0229258D01*
X0380413Y0229114D01*
X0380524Y0228968D01*
X0380632Y0228819D01*
X0380736Y0228667D01*
X0380836Y0228512D01*
X0380933Y0228356D01*
X0381026Y0228197D01*
X0381114Y0228035D01*
X0381199Y0227872D01*
X0381280Y0227707D01*
X0381357Y0227539D01*
X0381429Y0227370D01*
X0381497Y0227199D01*
X0381562Y0227027D01*
X0381621Y0226853D01*
X0381677Y0226677D01*
X0381728Y0226500D01*
X0381775Y0226322D01*
X0381818Y0226143D01*
X0381856Y0225963D01*
X0381890Y0225782D01*
X0381919Y0225600D01*
X0381944Y0225418D01*
X0381964Y0225235D01*
X0381980Y0225052D01*
X0381991Y0224868D01*
X0381998Y0224684D01*
X0382000Y0224500D01*
X0381998Y0224316D01*
X0381991Y0224132D01*
X0381980Y0223948D01*
X0381964Y0223765D01*
X0381944Y0223582D01*
X0381919Y0223400D01*
X0381890Y0223218D01*
X0381856Y0223037D01*
X0381818Y0222857D01*
X0381775Y0222678D01*
X0381728Y0222500D01*
X0381677Y0222323D01*
X0381621Y0222147D01*
X0381562Y0221973D01*
X0381497Y0221801D01*
X0381429Y0221630D01*
X0381357Y0221461D01*
X0381280Y0221293D01*
X0381199Y0221128D01*
X0381114Y0220965D01*
X0381026Y0220803D01*
X0380933Y0220644D01*
X0380836Y0220488D01*
X0380736Y0220333D01*
X0380632Y0220181D01*
X0380524Y0220032D01*
X0380413Y0219886D01*
X0380298Y0219742D01*
X0380179Y0219601D01*
X0380057Y0219463D01*
X0379932Y0219328D01*
X0379803Y0219197D01*
X0379672Y0219068D01*
X0379537Y0218943D01*
X0379399Y0218821D01*
X0379258Y0218702D01*
X0379114Y0218587D01*
X0378968Y0218476D01*
X0378819Y0218368D01*
X0378667Y0218264D01*
X0378512Y0218164D01*
X0378356Y0218067D01*
X0378197Y0217974D01*
X0378035Y0217886D01*
X0377872Y0217801D01*
X0377707Y0217720D01*
X0377539Y0217643D01*
X0377370Y0217571D01*
X0377199Y0217503D01*
X0377027Y0217438D01*
X0376853Y0217379D01*
X0376677Y0217323D01*
X0376500Y0217272D01*
X0376322Y0217225D01*
X0376143Y0217182D01*
X0375963Y0217144D01*
X0375782Y0217110D01*
X0375600Y0217081D01*
X0375418Y0217056D01*
X0375235Y0217036D01*
X0375052Y0217020D01*
X0374868Y0217009D01*
X0374684Y0217002D01*
X0374500Y0217000D01*
X0374316Y0217002D01*
X0374132Y0217009D01*
X0373948Y0217020D01*
X0373765Y0217036D01*
X0373582Y0217056D01*
X0373400Y0217081D01*
X0373218Y0217110D01*
X0373037Y0217144D01*
X0372857Y0217182D01*
X0372678Y0217225D01*
X0372500Y0217272D01*
X0372323Y0217323D01*
X0372147Y0217379D01*
X0371973Y0217438D01*
X0371801Y0217503D01*
X0371630Y0217571D01*
X0371461Y0217643D01*
X0371293Y0217720D01*
X0371128Y0217801D01*
X0370965Y0217886D01*
X0370803Y0217974D01*
X0370644Y0218067D01*
X0370488Y0218164D01*
X0370333Y0218264D01*
X0370181Y0218368D01*
X0370032Y0218476D01*
X0369886Y0218587D01*
X0369742Y0218702D01*
X0369601Y0218821D01*
X0369463Y0218943D01*
X0369328Y0219068D01*
X0369197Y0219197D01*
X0369068Y0219328D01*
X0368943Y0219463D01*
X0368821Y0219601D01*
X0368702Y0219742D01*
X0368587Y0219886D01*
X0368476Y0220032D01*
X0368368Y0220181D01*
X0368264Y0220333D01*
X0368164Y0220488D01*
X0368067Y0220644D01*
X0367974Y0220803D01*
X0367886Y0220965D01*
X0367801Y0221128D01*
X0367720Y0221293D01*
X0367643Y0221461D01*
X0367571Y0221630D01*
X0367503Y0221801D01*
X0367438Y0221973D01*
X0367379Y0222147D01*
X0367323Y0222323D01*
X0367272Y0222500D01*
X0367225Y0222678D01*
X0367182Y0222857D01*
X0367144Y0223037D01*
X0367110Y0223218D01*
X0367081Y0223400D01*
X0367056Y0223582D01*
X0367036Y0223765D01*
X0367020Y0223948D01*
X0367009Y0224132D01*
X0367002Y0224316D01*
X0367000Y0224500D01*
D11*
X0181900Y0215387D02*
X0179098Y0215387D01*
X0179098Y0216788D01*
X0179565Y0217255D01*
X0180499Y0217255D01*
X0180966Y0216788D01*
X0180966Y0215387D01*
X0181900Y0214493D02*
X0179098Y0214493D01*
X0180032Y0213559D01*
X0179098Y0212625D01*
X0181900Y0212625D01*
X0181433Y0211731D02*
X0181900Y0211264D01*
X0181900Y0210329D01*
X0181433Y0209862D01*
X0180499Y0210329D02*
X0180499Y0211264D01*
X0180966Y0211731D01*
X0181433Y0211731D01*
X0180499Y0210329D02*
X0180032Y0209862D01*
X0179565Y0209862D01*
X0179098Y0210329D01*
X0179098Y0211264D01*
X0179565Y0211731D01*
X0179098Y0208968D02*
X0179098Y0207100D01*
X0179098Y0208034D02*
X0181900Y0208034D01*
X0180499Y0218149D02*
X0180499Y0220018D01*
X0179565Y0219084D02*
X0181433Y0219084D01*
X0134400Y0220018D02*
X0132532Y0220018D01*
X0131598Y0219084D01*
X0132532Y0218149D01*
X0134400Y0218149D01*
X0133933Y0217255D02*
X0134400Y0216788D01*
X0134400Y0215387D01*
X0131598Y0215387D01*
X0131598Y0216788D01*
X0132065Y0217255D01*
X0132532Y0217255D01*
X0132999Y0216788D01*
X0132999Y0215387D01*
X0132999Y0216788D02*
X0133466Y0217255D01*
X0133933Y0217255D01*
X0132999Y0218149D02*
X0132999Y0220018D01*
X0131598Y0220912D02*
X0131598Y0222780D01*
X0131598Y0223674D02*
X0131598Y0225542D01*
X0131598Y0224608D02*
X0134400Y0224608D01*
X0132999Y0226436D02*
X0132999Y0228305D01*
X0132065Y0227371D02*
X0133933Y0227371D01*
X0126900Y0224608D02*
X0124098Y0224608D01*
X0124098Y0223674D02*
X0124098Y0225542D01*
X0125499Y0226436D02*
X0125499Y0228305D01*
X0124098Y0222780D02*
X0124098Y0220912D01*
X0124098Y0221846D02*
X0126900Y0221846D01*
X0126900Y0220018D02*
X0125032Y0220018D01*
X0124098Y0219084D01*
X0125032Y0218149D01*
X0126900Y0218149D01*
X0126433Y0217255D02*
X0126900Y0216788D01*
X0126900Y0215387D01*
X0124098Y0215387D01*
X0124098Y0216788D01*
X0124565Y0217255D01*
X0125032Y0217255D01*
X0125499Y0216788D01*
X0125499Y0215387D01*
X0125499Y0216788D02*
X0125966Y0217255D01*
X0126433Y0217255D01*
X0125499Y0218149D02*
X0125499Y0220018D01*
X0131598Y0221846D02*
X0134400Y0221846D01*
X0133466Y0211731D02*
X0131598Y0211731D01*
X0133466Y0211731D02*
X0134400Y0210796D01*
X0133466Y0209862D01*
X0131598Y0209862D01*
X0131598Y0208968D02*
X0134400Y0208968D01*
X0132999Y0208968D02*
X0132999Y0207100D01*
X0134400Y0207100D02*
X0131598Y0207100D01*
X0126900Y0207100D02*
X0124098Y0207100D01*
X0125499Y0207100D02*
X0125499Y0208968D01*
X0125966Y0209862D02*
X0126900Y0210796D01*
X0125966Y0211731D01*
X0124098Y0211731D01*
X0124098Y0209862D02*
X0125966Y0209862D01*
X0126900Y0208968D02*
X0124098Y0208968D01*
X0079400Y0208034D02*
X0076598Y0208034D01*
X0076598Y0207100D02*
X0076598Y0208968D01*
X0077065Y0209862D02*
X0077532Y0209862D01*
X0077999Y0210329D01*
X0077999Y0211264D01*
X0078466Y0211731D01*
X0078933Y0211731D01*
X0079400Y0211264D01*
X0079400Y0210329D01*
X0078933Y0209862D01*
X0077065Y0209862D02*
X0076598Y0210329D01*
X0076598Y0211264D01*
X0077065Y0211731D01*
X0076598Y0212625D02*
X0077532Y0213559D01*
X0076598Y0214493D01*
X0079400Y0214493D01*
X0079400Y0215387D02*
X0076598Y0215387D01*
X0076598Y0216788D01*
X0077065Y0217255D01*
X0077999Y0217255D01*
X0078466Y0216788D01*
X0078466Y0215387D01*
X0077999Y0218149D02*
X0077999Y0220018D01*
X0079400Y0212625D02*
X0076598Y0212625D01*
X0296575Y0106902D02*
X0298444Y0106902D01*
X0297509Y0106902D02*
X0297509Y0104100D01*
X0299338Y0104567D02*
X0299805Y0104100D01*
X0300739Y0104100D01*
X0301206Y0104567D01*
X0301206Y0105034D01*
X0300739Y0105501D01*
X0300272Y0105501D01*
X0300739Y0105501D02*
X0301206Y0105968D01*
X0301206Y0106435D01*
X0300739Y0106902D01*
X0299805Y0106902D01*
X0299338Y0106435D01*
D12*
X0203250Y0041400D03*
X0203250Y0041300D03*
X0203250Y0041200D03*
D13*
X0203250Y0041500D03*
X0203250Y0041600D03*
X0318750Y0058300D03*
D14*
X0203250Y0041700D03*
D15*
X0203300Y0041800D03*
D16*
X0203250Y0041900D03*
X0318350Y0058200D03*
D17*
X0203250Y0042100D03*
X0203250Y0042000D03*
D18*
X0203250Y0042200D03*
X0203250Y0042300D03*
X0318050Y0058100D03*
D19*
X0203250Y0042500D03*
X0203250Y0042400D03*
D20*
X0203250Y0042600D03*
X0317650Y0058000D03*
D21*
X0203300Y0042700D03*
D22*
X0203250Y0042800D03*
D23*
X0193100Y0042900D03*
X0314900Y0073700D03*
X0326300Y0079100D03*
X0326400Y0079200D03*
X0326400Y0079300D03*
X0326500Y0079700D03*
X0326500Y0079800D03*
X0326500Y0079900D03*
X0326500Y0080000D03*
X0334100Y0073500D03*
X0330500Y0058400D03*
D24*
X0325150Y0063600D03*
X0324850Y0063400D03*
X0324750Y0063300D03*
X0303350Y0077000D03*
X0209650Y0042900D03*
D25*
X0214950Y0045800D03*
X0214850Y0046000D03*
X0214750Y0046200D03*
X0214350Y0046900D03*
X0214250Y0047100D03*
X0213850Y0047800D03*
X0213750Y0048000D03*
X0215150Y0045500D03*
X0215250Y0045300D03*
X0215350Y0045100D03*
X0215450Y0044900D03*
X0215650Y0044600D03*
X0215750Y0044400D03*
X0215850Y0044200D03*
X0215950Y0044000D03*
X0216150Y0043700D03*
X0216250Y0043500D03*
X0216350Y0043300D03*
X0216450Y0043100D03*
X0216550Y0043000D03*
X0216550Y0042900D03*
X0204150Y0053000D03*
X0201450Y0053700D03*
X0201450Y0053800D03*
X0201350Y0053600D03*
X0201250Y0053200D03*
X0201150Y0053100D03*
X0201150Y0052800D03*
X0201550Y0054100D03*
X0202850Y0059100D03*
X0281150Y0062700D03*
X0281150Y0062800D03*
X0281250Y0062500D03*
X0281250Y0062400D03*
X0281250Y0062300D03*
X0281350Y0062100D03*
X0281350Y0062000D03*
X0281450Y0061800D03*
X0296950Y0073500D03*
X0325850Y0066200D03*
X0325450Y0060500D03*
X0335250Y0066600D03*
X0335250Y0070900D03*
X0339150Y0072700D03*
X0339250Y0072900D03*
X0339350Y0073000D03*
X0339450Y0073100D03*
X0339450Y0073200D03*
X0339550Y0073300D03*
X0339650Y0073400D03*
X0339750Y0073600D03*
X0339850Y0073700D03*
X0340050Y0074000D03*
X0356050Y0073500D03*
X0340350Y0062700D03*
X0340350Y0062600D03*
X0340450Y0062400D03*
X0340450Y0062300D03*
X0340450Y0062200D03*
X0340550Y0062000D03*
X0340650Y0061700D03*
X0355150Y0090800D03*
X0355250Y0090900D03*
X0355350Y0091000D03*
X0355450Y0091100D03*
D26*
X0356450Y0091900D03*
X0356550Y0092000D03*
X0356850Y0092200D03*
X0344050Y0089700D03*
X0343950Y0089400D03*
X0343850Y0089100D03*
X0343750Y0088800D03*
X0343650Y0088500D03*
X0343550Y0088200D03*
X0343350Y0087700D03*
X0343250Y0087400D03*
X0343150Y0087100D03*
X0343050Y0086800D03*
X0342250Y0084600D03*
X0342050Y0084100D03*
X0341950Y0083800D03*
X0341750Y0083300D03*
X0341650Y0083000D03*
X0341550Y0082800D03*
X0341450Y0082500D03*
X0341250Y0082000D03*
X0341150Y0081700D03*
X0341050Y0081500D03*
X0340950Y0081200D03*
X0340950Y0081100D03*
X0340150Y0079300D03*
X0340150Y0079200D03*
X0340050Y0079000D03*
X0339950Y0078800D03*
X0339850Y0078600D03*
X0339850Y0078500D03*
X0339750Y0078300D03*
X0339650Y0078100D03*
X0339550Y0077900D03*
X0339450Y0077700D03*
X0339350Y0077500D03*
X0339350Y0077400D03*
X0339250Y0077300D03*
X0339250Y0077200D03*
X0339150Y0077100D03*
X0339150Y0077000D03*
X0339050Y0076900D03*
X0339050Y0076800D03*
X0338950Y0076700D03*
X0338950Y0076600D03*
X0338850Y0076500D03*
X0338850Y0076400D03*
X0338750Y0076300D03*
X0338650Y0076100D03*
X0338550Y0076000D03*
X0338550Y0075900D03*
X0338450Y0075800D03*
X0338350Y0075600D03*
X0338250Y0075400D03*
X0338150Y0075300D03*
X0337550Y0070400D03*
X0337450Y0070300D03*
X0335350Y0067000D03*
X0340050Y0065700D03*
X0340050Y0065600D03*
X0340050Y0065500D03*
X0340050Y0065400D03*
X0340050Y0065300D03*
X0340050Y0065200D03*
X0340050Y0065100D03*
X0325650Y0066000D03*
X0325550Y0060700D03*
X0310250Y0063900D03*
X0309950Y0063200D03*
X0309850Y0063100D03*
X0309850Y0063000D03*
X0309750Y0062900D03*
X0309650Y0062700D03*
X0309550Y0062600D03*
X0309550Y0062500D03*
X0309450Y0062400D03*
X0309350Y0062200D03*
X0309250Y0062100D03*
X0310750Y0066400D03*
X0310750Y0066500D03*
X0310750Y0066600D03*
X0310750Y0066700D03*
X0310650Y0067500D03*
X0310650Y0067600D03*
X0310650Y0067700D03*
X0310650Y0067800D03*
X0310550Y0067900D03*
X0310550Y0068000D03*
X0310550Y0068100D03*
X0305950Y0072900D03*
X0305150Y0078200D03*
X0323950Y0081400D03*
X0324050Y0081700D03*
X0324150Y0081900D03*
X0324250Y0082100D03*
X0324250Y0082200D03*
X0324350Y0082300D03*
X0324350Y0082400D03*
X0324450Y0082500D03*
X0324450Y0082600D03*
X0324550Y0082700D03*
X0324650Y0082900D03*
X0324750Y0083000D03*
X0280850Y0065800D03*
X0280850Y0065700D03*
X0280850Y0065600D03*
X0280850Y0065500D03*
X0280850Y0065400D03*
X0280850Y0065300D03*
X0280850Y0065200D03*
X0280850Y0065100D03*
X0280850Y0065000D03*
X0280850Y0064900D03*
X0280850Y0064800D03*
X0280850Y0064700D03*
X0268950Y0065100D03*
X0268850Y0065000D03*
X0268750Y0064900D03*
X0268750Y0064800D03*
X0268650Y0064700D03*
X0268450Y0063300D03*
X0268450Y0063200D03*
X0268450Y0063100D03*
X0204750Y0064100D03*
X0204650Y0064300D03*
X0202250Y0064500D03*
X0201750Y0063600D03*
X0201350Y0062900D03*
X0200850Y0062000D03*
X0200450Y0061300D03*
X0200050Y0060600D03*
X0199950Y0060400D03*
X0199550Y0059700D03*
X0199150Y0059000D03*
X0199050Y0058800D03*
X0198650Y0058100D03*
X0198250Y0057400D03*
X0198150Y0057200D03*
X0197750Y0056500D03*
X0197350Y0055800D03*
X0197250Y0055600D03*
X0196850Y0054900D03*
X0196450Y0054200D03*
X0195950Y0053300D03*
X0195550Y0052600D03*
X0195050Y0051700D03*
X0194650Y0051000D03*
X0194150Y0050100D03*
X0193750Y0049400D03*
X0193350Y0048700D03*
X0193250Y0048500D03*
X0192850Y0047800D03*
X0192450Y0047100D03*
X0192350Y0046900D03*
X0191950Y0046200D03*
X0191550Y0045500D03*
X0191450Y0045300D03*
X0191050Y0044600D03*
X0190650Y0043900D03*
X0190150Y0043000D03*
X0201050Y0051400D03*
X0204050Y0052800D03*
X0202150Y0055800D03*
X0202150Y0055900D03*
X0202250Y0056200D03*
X0202350Y0056400D03*
X0202450Y0056700D03*
X0203350Y0066500D03*
D27*
X0203350Y0066700D03*
X0204450Y0064700D03*
X0204550Y0064500D03*
X0204650Y0064400D03*
X0204750Y0064200D03*
X0204850Y0064000D03*
X0204950Y0063800D03*
X0205050Y0063700D03*
X0205050Y0063600D03*
X0205150Y0063500D03*
X0205250Y0063300D03*
X0205350Y0063100D03*
X0205450Y0062900D03*
X0205550Y0062800D03*
X0205550Y0062700D03*
X0205650Y0062600D03*
X0205750Y0062400D03*
X0205850Y0062200D03*
X0205950Y0062000D03*
X0206050Y0061900D03*
X0206150Y0061700D03*
X0206150Y0061600D03*
X0206250Y0061500D03*
X0206350Y0061300D03*
X0206450Y0061200D03*
X0206450Y0061100D03*
X0206550Y0061000D03*
X0206650Y0060800D03*
X0206650Y0060700D03*
X0206750Y0060600D03*
X0206750Y0060500D03*
X0206850Y0060400D03*
X0206950Y0060300D03*
X0207050Y0060100D03*
X0207150Y0059900D03*
X0207150Y0059800D03*
X0207250Y0059700D03*
X0207250Y0059600D03*
X0207350Y0059500D03*
X0207450Y0059400D03*
X0207550Y0059200D03*
X0207550Y0059100D03*
X0207650Y0059000D03*
X0207650Y0058900D03*
X0207750Y0058800D03*
X0207850Y0058600D03*
X0208050Y0058300D03*
X0208050Y0058200D03*
X0208150Y0058100D03*
X0208150Y0058000D03*
X0208250Y0057900D03*
X0208550Y0057400D03*
X0208550Y0057300D03*
X0208650Y0057200D03*
X0208650Y0057100D03*
X0208750Y0057000D03*
X0208950Y0056600D03*
X0209050Y0056500D03*
X0209050Y0056400D03*
X0209150Y0056300D03*
X0209250Y0056100D03*
X0209450Y0055700D03*
X0209550Y0055500D03*
X0209650Y0055400D03*
X0209850Y0055000D03*
X0209950Y0054800D03*
X0210150Y0054500D03*
X0210350Y0054100D03*
X0210450Y0053900D03*
X0210650Y0053600D03*
X0210850Y0053200D03*
X0210950Y0053000D03*
X0211050Y0052700D03*
X0211250Y0052500D03*
X0211350Y0052300D03*
X0211550Y0051800D03*
X0211750Y0051600D03*
X0211850Y0051400D03*
X0211950Y0051100D03*
X0212050Y0050900D03*
X0212350Y0050500D03*
X0212450Y0050200D03*
X0212950Y0049300D03*
X0213350Y0048600D03*
X0213850Y0047700D03*
X0214350Y0046800D03*
X0214750Y0046100D03*
X0215250Y0045200D03*
X0215750Y0044300D03*
X0216150Y0043600D03*
X0203250Y0045800D03*
X0203150Y0045500D03*
X0194450Y0050700D03*
X0194550Y0050900D03*
X0194650Y0051100D03*
X0194950Y0051600D03*
X0195050Y0051800D03*
X0195150Y0052000D03*
X0195350Y0052300D03*
X0195450Y0052500D03*
X0195550Y0052700D03*
X0195850Y0053200D03*
X0195950Y0053400D03*
X0196050Y0053600D03*
X0196250Y0053900D03*
X0196350Y0054100D03*
X0196450Y0054300D03*
X0196750Y0054800D03*
X0196850Y0055000D03*
X0196950Y0055200D03*
X0197250Y0055700D03*
X0197350Y0055900D03*
X0197650Y0056400D03*
X0197750Y0056600D03*
X0198150Y0057300D03*
X0198250Y0057500D03*
X0198550Y0058000D03*
X0198650Y0058200D03*
X0199050Y0058900D03*
X0199150Y0059100D03*
X0199450Y0059600D03*
X0199550Y0059800D03*
X0199950Y0060500D03*
X0200050Y0060700D03*
X0200350Y0061200D03*
X0200450Y0061400D03*
X0200850Y0062100D03*
X0200950Y0062300D03*
X0201250Y0062800D03*
X0201350Y0063000D03*
X0201750Y0063700D03*
X0201850Y0063900D03*
X0202150Y0064400D03*
X0202250Y0064600D03*
X0201950Y0055300D03*
X0201950Y0055200D03*
X0201350Y0053500D03*
X0194250Y0050400D03*
X0194150Y0050200D03*
X0194050Y0050000D03*
X0193750Y0049500D03*
X0193650Y0049300D03*
X0193550Y0049100D03*
X0193350Y0048800D03*
X0193250Y0048600D03*
X0193150Y0048400D03*
X0192850Y0047900D03*
X0192750Y0047700D03*
X0192650Y0047500D03*
X0192450Y0047200D03*
X0192350Y0047000D03*
X0192250Y0046800D03*
X0191950Y0046300D03*
X0191850Y0046100D03*
X0191750Y0045900D03*
X0191550Y0045600D03*
X0191450Y0045400D03*
X0191350Y0045200D03*
X0191050Y0044700D03*
X0190950Y0044500D03*
X0190850Y0044300D03*
X0190650Y0044000D03*
X0190550Y0043800D03*
X0190450Y0043600D03*
X0190350Y0043400D03*
X0190150Y0043100D03*
X0268450Y0064200D03*
X0280950Y0064000D03*
X0280950Y0063900D03*
X0280950Y0063800D03*
X0280950Y0063700D03*
X0280950Y0063600D03*
X0281050Y0063200D03*
X0310450Y0064500D03*
X0310650Y0065400D03*
X0325750Y0066100D03*
X0325450Y0060600D03*
X0340150Y0063500D03*
X0340150Y0063600D03*
X0340150Y0063700D03*
X0340150Y0063800D03*
X0340050Y0064100D03*
X0340050Y0064200D03*
X0340050Y0064300D03*
X0340050Y0064400D03*
X0337950Y0071000D03*
X0338050Y0071100D03*
X0338150Y0071300D03*
X0338250Y0071400D03*
X0338350Y0071500D03*
X0338350Y0071600D03*
X0338450Y0071700D03*
X0338650Y0072000D03*
X0335250Y0070800D03*
X0322950Y0075800D03*
X0355750Y0073700D03*
X0355850Y0091400D03*
X0355950Y0091500D03*
X0356050Y0091600D03*
D28*
X0356200Y0091700D03*
X0356300Y0091800D03*
X0344100Y0089800D03*
X0344000Y0089600D03*
X0344000Y0089500D03*
X0343900Y0089300D03*
X0343900Y0089200D03*
X0343800Y0089000D03*
X0343800Y0088900D03*
X0343700Y0088700D03*
X0343700Y0088600D03*
X0343600Y0088400D03*
X0343600Y0088300D03*
X0343500Y0088100D03*
X0343500Y0088000D03*
X0343400Y0087900D03*
X0343400Y0087800D03*
X0343300Y0087600D03*
X0343300Y0087500D03*
X0343200Y0087300D03*
X0343200Y0087200D03*
X0343100Y0087000D03*
X0343100Y0086900D03*
X0343000Y0086700D03*
X0343000Y0086600D03*
X0342900Y0086500D03*
X0342300Y0084700D03*
X0342200Y0084500D03*
X0342200Y0084400D03*
X0342100Y0084300D03*
X0342100Y0084200D03*
X0342000Y0084000D03*
X0342000Y0083900D03*
X0341900Y0083700D03*
X0341900Y0083600D03*
X0341800Y0083500D03*
X0341800Y0083400D03*
X0341700Y0083200D03*
X0341700Y0083100D03*
X0341600Y0082900D03*
X0341500Y0082700D03*
X0341500Y0082600D03*
X0341400Y0082400D03*
X0341400Y0082300D03*
X0341300Y0082200D03*
X0341300Y0082100D03*
X0341200Y0081900D03*
X0341200Y0081800D03*
X0341100Y0081600D03*
X0341000Y0081400D03*
X0341000Y0081300D03*
X0340100Y0079100D03*
X0340000Y0078900D03*
X0339900Y0078700D03*
X0339800Y0078400D03*
X0339700Y0078200D03*
X0339600Y0078000D03*
X0339500Y0077800D03*
X0339400Y0077600D03*
X0338700Y0076200D03*
X0338100Y0071200D03*
X0337900Y0070900D03*
X0337800Y0070800D03*
X0337700Y0070700D03*
X0337700Y0070600D03*
X0337600Y0070500D03*
X0335200Y0070700D03*
X0335300Y0066900D03*
X0335300Y0066800D03*
X0340000Y0065000D03*
X0340000Y0064900D03*
X0340000Y0064800D03*
X0340000Y0064700D03*
X0340000Y0064600D03*
X0340000Y0064500D03*
X0340100Y0064000D03*
X0340100Y0063900D03*
X0355600Y0073800D03*
X0324200Y0082000D03*
X0324100Y0081800D03*
X0324000Y0081600D03*
X0324000Y0081500D03*
X0323900Y0081300D03*
X0323900Y0081200D03*
X0323800Y0081100D03*
X0323800Y0081000D03*
X0323800Y0080900D03*
X0323800Y0080800D03*
X0323700Y0080700D03*
X0323700Y0080600D03*
X0310700Y0067400D03*
X0310700Y0067300D03*
X0310700Y0067200D03*
X0310700Y0067100D03*
X0310700Y0067000D03*
X0310700Y0066900D03*
X0310700Y0066800D03*
X0310700Y0066300D03*
X0310700Y0066200D03*
X0310700Y0066100D03*
X0310700Y0066000D03*
X0310700Y0065900D03*
X0310700Y0065800D03*
X0310700Y0065700D03*
X0310700Y0065600D03*
X0310700Y0065500D03*
X0310600Y0065300D03*
X0310600Y0065200D03*
X0310600Y0065100D03*
X0310600Y0065000D03*
X0310600Y0064900D03*
X0310500Y0064800D03*
X0310500Y0064700D03*
X0310500Y0064600D03*
X0310400Y0064400D03*
X0310400Y0064300D03*
X0310400Y0064200D03*
X0310300Y0064100D03*
X0310300Y0064000D03*
X0310200Y0063800D03*
X0310200Y0063700D03*
X0310100Y0063600D03*
X0310100Y0063500D03*
X0310000Y0063400D03*
X0310000Y0063300D03*
X0309700Y0062800D03*
X0296600Y0073700D03*
X0296400Y0073800D03*
X0280900Y0064600D03*
X0280900Y0064500D03*
X0280900Y0064400D03*
X0280900Y0064300D03*
X0280900Y0064200D03*
X0280900Y0064100D03*
X0268600Y0064500D03*
X0268600Y0064600D03*
X0268500Y0064400D03*
X0268500Y0064300D03*
X0268400Y0064100D03*
X0268400Y0064000D03*
X0268400Y0063900D03*
X0268400Y0063800D03*
X0268400Y0063700D03*
X0268400Y0063600D03*
X0268400Y0063500D03*
X0268400Y0063400D03*
X0210700Y0053400D03*
X0210200Y0054300D03*
X0209700Y0055200D03*
X0209300Y0055900D03*
X0208800Y0056800D03*
X0208400Y0057500D03*
X0208300Y0057700D03*
X0207900Y0058400D03*
X0207400Y0059300D03*
X0207000Y0060000D03*
X0206900Y0060200D03*
X0206500Y0060900D03*
X0206300Y0061400D03*
X0206000Y0061800D03*
X0205900Y0062100D03*
X0205800Y0062300D03*
X0205600Y0062500D03*
X0205400Y0063000D03*
X0205300Y0063200D03*
X0205100Y0063400D03*
X0204900Y0063900D03*
X0204500Y0064600D03*
X0202300Y0064700D03*
X0202100Y0064300D03*
X0202000Y0064200D03*
X0202000Y0064100D03*
X0201900Y0064000D03*
X0201800Y0063800D03*
X0201600Y0063500D03*
X0201600Y0063400D03*
X0201500Y0063300D03*
X0201500Y0063200D03*
X0201400Y0063100D03*
X0201200Y0062700D03*
X0201100Y0062600D03*
X0201100Y0062500D03*
X0201000Y0062400D03*
X0200900Y0062200D03*
X0200700Y0061900D03*
X0200700Y0061800D03*
X0200600Y0061700D03*
X0200600Y0061600D03*
X0200500Y0061500D03*
X0200300Y0061100D03*
X0200200Y0061000D03*
X0200200Y0060900D03*
X0200100Y0060800D03*
X0199800Y0060300D03*
X0199800Y0060200D03*
X0199700Y0060100D03*
X0199700Y0060000D03*
X0199600Y0059900D03*
X0199400Y0059500D03*
X0199300Y0059400D03*
X0199300Y0059300D03*
X0199200Y0059200D03*
X0198900Y0058700D03*
X0198900Y0058600D03*
X0198800Y0058500D03*
X0198800Y0058400D03*
X0198700Y0058300D03*
X0198500Y0057900D03*
X0198400Y0057800D03*
X0198400Y0057700D03*
X0198300Y0057600D03*
X0198000Y0057100D03*
X0198000Y0057000D03*
X0197900Y0056900D03*
X0197900Y0056800D03*
X0197800Y0056700D03*
X0197600Y0056300D03*
X0197500Y0056200D03*
X0197500Y0056100D03*
X0197400Y0056000D03*
X0197100Y0055500D03*
X0197100Y0055400D03*
X0197000Y0055300D03*
X0196900Y0055100D03*
X0196700Y0054700D03*
X0196600Y0054600D03*
X0196600Y0054500D03*
X0196500Y0054400D03*
X0196300Y0054000D03*
X0196200Y0053800D03*
X0196100Y0053700D03*
X0196000Y0053500D03*
X0195800Y0053100D03*
X0195700Y0053000D03*
X0195700Y0052900D03*
X0195600Y0052800D03*
X0195400Y0052400D03*
X0195300Y0052200D03*
X0195200Y0052100D03*
X0195100Y0051900D03*
X0194900Y0051500D03*
X0194800Y0051400D03*
X0194800Y0051300D03*
X0194700Y0051200D03*
X0194500Y0050800D03*
X0194400Y0050600D03*
X0194300Y0050500D03*
X0194200Y0050300D03*
X0194000Y0049900D03*
X0193900Y0049800D03*
X0193900Y0049700D03*
X0193800Y0049600D03*
X0193600Y0049200D03*
X0193500Y0049000D03*
X0193400Y0048900D03*
X0193100Y0048300D03*
X0193000Y0048200D03*
X0193000Y0048100D03*
X0192900Y0048000D03*
X0192700Y0047600D03*
X0192600Y0047400D03*
X0192500Y0047300D03*
X0192200Y0046700D03*
X0192100Y0046600D03*
X0192100Y0046500D03*
X0192000Y0046400D03*
X0191800Y0046000D03*
X0191700Y0045800D03*
X0191600Y0045700D03*
X0191300Y0045100D03*
X0191200Y0045000D03*
X0191200Y0044900D03*
X0191100Y0044800D03*
X0190900Y0044400D03*
X0190800Y0044200D03*
X0190700Y0044100D03*
X0190500Y0043700D03*
X0190400Y0043500D03*
X0190300Y0043300D03*
X0190200Y0043200D03*
X0200900Y0051300D03*
X0201600Y0054200D03*
X0201700Y0054600D03*
X0201800Y0054700D03*
X0201900Y0054900D03*
X0201800Y0055000D03*
X0201900Y0055100D03*
X0202000Y0055500D03*
X0202100Y0055600D03*
X0202100Y0055700D03*
X0202200Y0056000D03*
X0203400Y0066600D03*
D29*
X0203400Y0066800D03*
X0207800Y0058700D03*
X0207900Y0058500D03*
X0208300Y0057800D03*
X0208400Y0057600D03*
X0208800Y0056900D03*
X0208900Y0056700D03*
X0209200Y0056200D03*
X0209300Y0056000D03*
X0209400Y0055800D03*
X0209500Y0055600D03*
X0209700Y0055300D03*
X0209800Y0055100D03*
X0209900Y0054900D03*
X0210000Y0054700D03*
X0210100Y0054600D03*
X0210200Y0054400D03*
X0210300Y0054200D03*
X0210400Y0054000D03*
X0210500Y0053800D03*
X0210600Y0053700D03*
X0210700Y0053500D03*
X0210800Y0053300D03*
X0210900Y0053100D03*
X0211000Y0052900D03*
X0211100Y0052800D03*
X0211200Y0052600D03*
X0211300Y0052400D03*
X0211400Y0052200D03*
X0211500Y0052100D03*
X0211500Y0052000D03*
X0211600Y0051900D03*
X0211700Y0051700D03*
X0211800Y0051500D03*
X0211900Y0051300D03*
X0212000Y0051200D03*
X0212100Y0051000D03*
X0212200Y0050800D03*
X0212200Y0050700D03*
X0212300Y0050600D03*
X0212400Y0050400D03*
X0212500Y0050300D03*
X0212600Y0050100D03*
X0212600Y0050000D03*
X0212700Y0049900D03*
X0212700Y0049800D03*
X0212800Y0049700D03*
X0212900Y0049600D03*
X0212900Y0049500D03*
X0213000Y0049400D03*
X0213100Y0049200D03*
X0213100Y0049100D03*
X0213200Y0049000D03*
X0213200Y0048900D03*
X0213300Y0048800D03*
X0213400Y0048700D03*
X0213500Y0048500D03*
X0213500Y0048400D03*
X0213600Y0048300D03*
X0213600Y0048200D03*
X0213700Y0048100D03*
X0213800Y0047900D03*
X0214000Y0047600D03*
X0214000Y0047500D03*
X0214100Y0047400D03*
X0214100Y0047300D03*
X0214200Y0047200D03*
X0214300Y0047000D03*
X0214500Y0046700D03*
X0214500Y0046600D03*
X0214600Y0046500D03*
X0214600Y0046400D03*
X0214700Y0046300D03*
X0214900Y0045900D03*
X0215000Y0045700D03*
X0215100Y0045600D03*
X0215200Y0045400D03*
X0215400Y0045000D03*
X0215500Y0044800D03*
X0215600Y0044700D03*
X0215700Y0044500D03*
X0215900Y0044100D03*
X0216000Y0043900D03*
X0216100Y0043800D03*
X0216300Y0043400D03*
X0216400Y0043200D03*
X0203200Y0045700D03*
X0203100Y0045600D03*
X0200700Y0051200D03*
X0201500Y0053900D03*
X0201500Y0054000D03*
X0201600Y0054300D03*
X0201700Y0054400D03*
X0201700Y0054500D03*
X0201800Y0054800D03*
X0204100Y0052900D03*
X0281000Y0063300D03*
X0281000Y0063400D03*
X0281000Y0063500D03*
X0281100Y0063100D03*
X0281100Y0063000D03*
X0281100Y0062900D03*
X0281200Y0062600D03*
X0296800Y0073600D03*
X0305900Y0073000D03*
X0335300Y0066700D03*
X0340200Y0063400D03*
X0340200Y0063300D03*
X0340200Y0063200D03*
X0340200Y0063100D03*
X0340300Y0063000D03*
X0340300Y0062900D03*
X0340300Y0062800D03*
X0340400Y0062500D03*
X0338500Y0071800D03*
X0338600Y0071900D03*
X0338700Y0072100D03*
X0338800Y0072200D03*
X0338900Y0072300D03*
X0338900Y0072400D03*
X0339000Y0072500D03*
X0339100Y0072600D03*
X0339200Y0072800D03*
X0355900Y0073600D03*
X0335300Y0087600D03*
X0355600Y0091200D03*
X0355700Y0091300D03*
D30*
X0341950Y0077400D03*
X0341450Y0073600D03*
X0330350Y0081200D03*
X0326450Y0067000D03*
X0325050Y0059400D03*
X0335050Y0065200D03*
X0344950Y0056500D03*
X0358850Y0070700D03*
X0358750Y0070800D03*
X0358650Y0071000D03*
X0305450Y0073500D03*
X0299750Y0070600D03*
X0299650Y0070700D03*
X0299650Y0070800D03*
X0299550Y0070900D03*
X0205050Y0053900D03*
X0203950Y0059100D03*
X0203350Y0059200D03*
X0202650Y0059300D03*
X0199850Y0050500D03*
X0202350Y0046200D03*
X0202750Y0043400D03*
D31*
X0202800Y0043600D03*
X0204200Y0045900D03*
X0202700Y0046200D03*
X0202200Y0046300D03*
X0200100Y0050500D03*
X0199700Y0050400D03*
X0200800Y0050800D03*
X0201500Y0051100D03*
X0202200Y0051400D03*
X0202900Y0051700D03*
X0202400Y0052500D03*
X0203100Y0052900D03*
X0203800Y0053300D03*
X0204700Y0053800D03*
X0205200Y0054000D03*
X0205300Y0054100D03*
X0204500Y0059000D03*
X0202100Y0059400D03*
X0285900Y0056400D03*
X0299900Y0070400D03*
X0299800Y0070500D03*
X0335100Y0065100D03*
X0335600Y0071800D03*
X0342000Y0077500D03*
X0358900Y0070600D03*
X0359000Y0070500D03*
X0359000Y0070400D03*
X0345100Y0056400D03*
X0360600Y0096500D03*
D32*
X0363000Y0095400D03*
X0341900Y0077300D03*
X0341900Y0077200D03*
X0341500Y0073800D03*
X0341500Y0073700D03*
X0335100Y0065300D03*
X0344800Y0056600D03*
X0358700Y0070900D03*
X0358600Y0071100D03*
X0358500Y0071200D03*
X0299500Y0071000D03*
X0299400Y0071100D03*
X0285800Y0056500D03*
X0285600Y0056600D03*
X0205000Y0053800D03*
X0200000Y0050600D03*
X0202800Y0043800D03*
X0202800Y0043700D03*
X0202200Y0059300D03*
X0203400Y0068000D03*
X0203400Y0068100D03*
D33*
X0203400Y0067900D03*
X0203400Y0067800D03*
X0203400Y0047000D03*
X0203400Y0046800D03*
X0203400Y0046700D03*
X0203300Y0046300D03*
X0202900Y0044200D03*
X0202800Y0043900D03*
X0284900Y0057100D03*
X0285000Y0057000D03*
X0285200Y0056900D03*
X0299100Y0071500D03*
X0299000Y0071600D03*
X0305600Y0073400D03*
X0305700Y0078500D03*
X0326300Y0066800D03*
X0325100Y0059600D03*
X0335400Y0058600D03*
X0335100Y0065400D03*
X0335100Y0065500D03*
X0335500Y0071600D03*
X0341500Y0073900D03*
X0341800Y0077000D03*
X0358100Y0071700D03*
X0358200Y0071600D03*
X0344200Y0057000D03*
X0344900Y0090000D03*
D34*
X0362350Y0096600D03*
X0341850Y0077100D03*
X0335550Y0071700D03*
X0326350Y0066900D03*
X0325050Y0059500D03*
X0344350Y0056900D03*
X0344450Y0056800D03*
X0344650Y0056700D03*
X0358450Y0071300D03*
X0358350Y0071400D03*
X0358250Y0071500D03*
X0322250Y0075400D03*
X0299350Y0071200D03*
X0299250Y0071300D03*
X0299150Y0071400D03*
X0285350Y0056800D03*
X0285450Y0056700D03*
X0203350Y0046600D03*
X0203250Y0046200D03*
X0203250Y0046100D03*
X0202850Y0044000D03*
D35*
X0202950Y0044100D03*
X0203350Y0046400D03*
X0203350Y0046500D03*
X0203450Y0046900D03*
X0203350Y0047100D03*
X0203450Y0047500D03*
X0203550Y0047900D03*
X0203550Y0048000D03*
X0200150Y0050700D03*
X0204950Y0053700D03*
X0284650Y0057300D03*
X0284750Y0057200D03*
X0298950Y0071700D03*
X0298850Y0071800D03*
X0298750Y0071900D03*
X0298650Y0072000D03*
X0325150Y0059700D03*
X0335150Y0065600D03*
X0335450Y0071500D03*
X0341550Y0074000D03*
X0341550Y0074100D03*
X0341750Y0076800D03*
X0341750Y0076900D03*
X0357750Y0072100D03*
X0357850Y0072000D03*
X0357950Y0071900D03*
X0358050Y0071800D03*
X0343850Y0057300D03*
X0343950Y0057200D03*
X0344050Y0057100D03*
X0362950Y0095300D03*
D36*
X0360500Y0096400D03*
X0341700Y0076700D03*
X0326200Y0066700D03*
X0325200Y0059800D03*
X0343600Y0057500D03*
X0343700Y0057400D03*
X0298600Y0072100D03*
X0298500Y0072200D03*
X0298400Y0072300D03*
X0284300Y0057600D03*
X0284400Y0057500D03*
X0284500Y0057400D03*
X0204800Y0053600D03*
X0203600Y0048100D03*
X0203500Y0047700D03*
X0203500Y0047600D03*
X0203400Y0047200D03*
X0202500Y0046100D03*
X0202900Y0044300D03*
X0203400Y0067700D03*
D37*
X0203400Y0067500D03*
X0204700Y0053500D03*
X0204600Y0053400D03*
X0203900Y0050300D03*
X0203800Y0049200D03*
X0203700Y0049000D03*
X0203700Y0048700D03*
X0203600Y0048600D03*
X0203600Y0048300D03*
X0203000Y0044700D03*
X0203000Y0044600D03*
X0202900Y0044500D03*
X0202900Y0044400D03*
X0200200Y0050800D03*
X0283300Y0058600D03*
X0283400Y0058500D03*
X0298100Y0072600D03*
X0298200Y0072500D03*
X0298300Y0072400D03*
X0325200Y0059900D03*
X0335200Y0065900D03*
X0335400Y0071300D03*
X0341600Y0074300D03*
X0341600Y0076400D03*
X0341600Y0076500D03*
X0342700Y0058300D03*
X0342800Y0058200D03*
X0342900Y0058100D03*
D38*
X0341850Y0059400D03*
X0341750Y0059500D03*
X0341750Y0059600D03*
X0341650Y0059700D03*
X0341550Y0059800D03*
X0341550Y0059900D03*
X0341450Y0060000D03*
X0335250Y0066200D03*
X0335350Y0071200D03*
X0345250Y0079500D03*
X0345550Y0079900D03*
X0345650Y0080000D03*
X0345850Y0080300D03*
X0345950Y0080400D03*
X0346050Y0080500D03*
X0346150Y0080700D03*
X0346250Y0080800D03*
X0346350Y0080900D03*
X0346450Y0081000D03*
X0346550Y0081200D03*
X0346650Y0081300D03*
X0346750Y0081400D03*
X0346850Y0081500D03*
X0346950Y0081600D03*
X0346950Y0081700D03*
X0347050Y0081800D03*
X0347150Y0081900D03*
X0347250Y0082000D03*
X0347350Y0082100D03*
X0347350Y0082200D03*
X0347450Y0082300D03*
X0347550Y0082400D03*
X0347650Y0082500D03*
X0347750Y0082600D03*
X0347850Y0082800D03*
X0347950Y0082900D03*
X0348050Y0083000D03*
X0348150Y0083100D03*
X0348350Y0083400D03*
X0348450Y0083500D03*
X0348550Y0083600D03*
X0348650Y0083700D03*
X0348850Y0084000D03*
X0348950Y0084100D03*
X0349050Y0084200D03*
X0349150Y0084300D03*
X0349350Y0084600D03*
X0349450Y0084700D03*
X0349550Y0084800D03*
X0349650Y0084900D03*
X0349750Y0085000D03*
X0349950Y0085300D03*
X0350050Y0085400D03*
X0350150Y0085500D03*
X0350250Y0085600D03*
X0350350Y0085700D03*
X0350550Y0086000D03*
X0350650Y0086100D03*
X0350750Y0086200D03*
X0350850Y0086300D03*
X0350950Y0086400D03*
X0351050Y0086500D03*
X0351250Y0086800D03*
X0351350Y0086900D03*
X0351450Y0087000D03*
X0351550Y0087100D03*
X0351650Y0087200D03*
X0351750Y0087300D03*
X0351850Y0087400D03*
X0351950Y0087500D03*
X0352050Y0087700D03*
X0352150Y0087800D03*
X0352250Y0087900D03*
X0352350Y0088000D03*
X0352450Y0088100D03*
X0352550Y0088200D03*
X0352650Y0088300D03*
X0352750Y0088400D03*
X0352850Y0088500D03*
X0356650Y0073100D03*
X0356750Y0073000D03*
X0282750Y0059300D03*
X0282550Y0059600D03*
X0282450Y0059700D03*
X0282450Y0059800D03*
X0282350Y0059900D03*
X0204150Y0051800D03*
X0204150Y0051700D03*
X0204050Y0051300D03*
X0203950Y0050900D03*
X0203950Y0050800D03*
X0200550Y0051000D03*
X0202850Y0045900D03*
X0203050Y0044800D03*
D39*
X0203000Y0044900D03*
X0203800Y0049600D03*
X0203900Y0050100D03*
X0204000Y0050500D03*
X0203900Y0050700D03*
X0204000Y0051100D03*
X0204000Y0051200D03*
X0204100Y0051500D03*
X0204100Y0051600D03*
X0204500Y0053300D03*
X0203400Y0067300D03*
X0282600Y0059500D03*
X0282700Y0059400D03*
X0282800Y0059200D03*
X0282900Y0059100D03*
X0283000Y0059000D03*
X0297700Y0072900D03*
X0297600Y0073000D03*
X0305700Y0073200D03*
X0322600Y0075600D03*
X0329900Y0081100D03*
X0347800Y0082700D03*
X0348200Y0083200D03*
X0348300Y0083300D03*
X0348700Y0083800D03*
X0348800Y0083900D03*
X0349200Y0084400D03*
X0349300Y0084500D03*
X0349800Y0085100D03*
X0349900Y0085200D03*
X0350400Y0085800D03*
X0350500Y0085900D03*
X0351100Y0086600D03*
X0351200Y0086700D03*
X0360500Y0096300D03*
X0362200Y0096400D03*
X0362800Y0095100D03*
X0356900Y0072900D03*
X0357000Y0072800D03*
X0342100Y0059100D03*
X0342000Y0059200D03*
X0341900Y0059300D03*
X0342200Y0058900D03*
X0342300Y0058800D03*
X0335200Y0066100D03*
X0326100Y0066500D03*
X0325300Y0060100D03*
D40*
X0325300Y0060200D03*
X0326000Y0066400D03*
X0335200Y0066300D03*
X0335300Y0071100D03*
X0342800Y0076300D03*
X0343000Y0076600D03*
X0343100Y0076700D03*
X0343200Y0076800D03*
X0343300Y0077000D03*
X0343400Y0077100D03*
X0343500Y0077200D03*
X0345300Y0079600D03*
X0345400Y0079700D03*
X0345500Y0079800D03*
X0345700Y0080100D03*
X0345800Y0080200D03*
X0346100Y0080600D03*
X0346500Y0081100D03*
X0352000Y0087600D03*
X0352900Y0088600D03*
X0353000Y0088700D03*
X0353100Y0088800D03*
X0353200Y0088900D03*
X0353300Y0089000D03*
X0353400Y0089100D03*
X0353500Y0089200D03*
X0353600Y0089300D03*
X0353700Y0089400D03*
X0353800Y0089500D03*
X0353900Y0089600D03*
X0354000Y0089700D03*
X0354100Y0089800D03*
X0354200Y0089900D03*
X0354300Y0090000D03*
X0362100Y0096300D03*
X0362700Y0095000D03*
X0356500Y0073200D03*
X0341200Y0060500D03*
X0341200Y0060400D03*
X0341300Y0060300D03*
X0341300Y0060200D03*
X0341400Y0060100D03*
X0297500Y0073100D03*
X0281900Y0060700D03*
X0282000Y0060500D03*
X0282100Y0060300D03*
X0282200Y0060200D03*
X0282200Y0060100D03*
X0282300Y0060000D03*
X0204100Y0051400D03*
X0204000Y0051000D03*
X0200900Y0052200D03*
X0203100Y0045200D03*
X0203100Y0045100D03*
X0203000Y0045000D03*
X0203400Y0067100D03*
X0203400Y0067200D03*
D41*
X0203400Y0067000D03*
X0203400Y0066900D03*
X0201300Y0053400D03*
X0201300Y0053300D03*
X0201200Y0053000D03*
X0201000Y0052700D03*
X0200900Y0052300D03*
X0200900Y0052100D03*
X0204100Y0051900D03*
X0204300Y0053100D03*
X0203100Y0045400D03*
X0203100Y0045300D03*
X0281300Y0062200D03*
X0281400Y0061900D03*
X0281500Y0061700D03*
X0281500Y0061600D03*
X0281600Y0061400D03*
X0297100Y0073400D03*
X0297200Y0073300D03*
X0305800Y0073100D03*
X0305300Y0078300D03*
X0322800Y0075700D03*
X0325900Y0066300D03*
X0325400Y0060400D03*
X0335300Y0066500D03*
X0335300Y0071000D03*
X0339700Y0073500D03*
X0339900Y0073800D03*
X0340000Y0073900D03*
X0340100Y0074100D03*
X0340200Y0074200D03*
X0356200Y0073400D03*
X0340500Y0062100D03*
X0340600Y0061900D03*
X0340600Y0061800D03*
X0340700Y0061600D03*
X0340700Y0061500D03*
X0340800Y0061300D03*
X0344300Y0089900D03*
X0354700Y0090400D03*
X0354800Y0090500D03*
X0354900Y0090600D03*
X0355000Y0090700D03*
X0362000Y0096200D03*
D42*
X0360450Y0096200D03*
X0359450Y0092500D03*
X0354550Y0090300D03*
X0354450Y0090200D03*
X0354350Y0090100D03*
X0343550Y0077300D03*
X0343250Y0076900D03*
X0342950Y0076500D03*
X0342850Y0076400D03*
X0340250Y0074300D03*
X0335250Y0066400D03*
X0340750Y0061400D03*
X0340850Y0061200D03*
X0340850Y0061100D03*
X0340950Y0061000D03*
X0340950Y0060900D03*
X0341050Y0060800D03*
X0341050Y0060700D03*
X0341150Y0060600D03*
X0325350Y0060300D03*
X0297350Y0073200D03*
X0281550Y0061500D03*
X0281650Y0061300D03*
X0281650Y0061200D03*
X0281750Y0061100D03*
X0281750Y0061000D03*
X0281850Y0060900D03*
X0281850Y0060800D03*
X0281950Y0060600D03*
X0282050Y0060400D03*
X0356350Y0073300D03*
X0204450Y0053200D03*
X0201150Y0052900D03*
X0201050Y0052600D03*
X0201050Y0052500D03*
X0200950Y0052400D03*
X0200650Y0051100D03*
X0202850Y0046000D03*
D43*
X0203450Y0047300D03*
X0203450Y0047400D03*
X0203550Y0047800D03*
X0203650Y0048200D03*
X0203550Y0048400D03*
X0203550Y0048500D03*
X0203650Y0048800D03*
X0203650Y0048900D03*
X0203750Y0049100D03*
X0203750Y0049300D03*
X0203750Y0049400D03*
X0203350Y0067600D03*
X0284150Y0057700D03*
X0305650Y0073300D03*
X0322450Y0075500D03*
X0335450Y0071400D03*
X0341550Y0074200D03*
X0341650Y0076600D03*
X0335150Y0065800D03*
X0335150Y0065700D03*
X0343050Y0058000D03*
X0343150Y0057900D03*
X0343250Y0057800D03*
X0343350Y0057700D03*
X0343450Y0057600D03*
X0357650Y0072200D03*
X0357550Y0072300D03*
X0357450Y0072400D03*
X0357350Y0072500D03*
X0359450Y0092400D03*
X0362850Y0095200D03*
X0362250Y0096500D03*
D44*
X0341550Y0076300D03*
X0335150Y0066000D03*
X0326150Y0066600D03*
X0325250Y0060000D03*
X0342150Y0059000D03*
X0342350Y0058700D03*
X0342450Y0058600D03*
X0342550Y0058500D03*
X0342650Y0058400D03*
X0357150Y0072700D03*
X0357250Y0072600D03*
X0305550Y0078400D03*
X0297950Y0072700D03*
X0297850Y0072800D03*
X0283250Y0058700D03*
X0283150Y0058800D03*
X0283050Y0058900D03*
X0203950Y0050600D03*
X0203950Y0050400D03*
X0203850Y0050200D03*
X0203850Y0050000D03*
X0203850Y0049900D03*
X0203750Y0049800D03*
X0203750Y0049700D03*
X0203750Y0049500D03*
X0200350Y0050900D03*
X0202450Y0059200D03*
X0203350Y0067400D03*
D45*
X0203350Y0066300D03*
X0203150Y0059000D03*
X0202750Y0057600D03*
X0202650Y0057400D03*
X0202650Y0057200D03*
X0202550Y0057000D03*
X0202450Y0056900D03*
X0202550Y0056800D03*
X0202350Y0056500D03*
X0202250Y0056100D03*
X0201150Y0051500D03*
X0268650Y0062600D03*
X0268750Y0062500D03*
X0268750Y0062400D03*
X0269250Y0065500D03*
X0269350Y0065600D03*
X0269450Y0065700D03*
X0269550Y0065800D03*
X0269650Y0065900D03*
X0269750Y0066000D03*
X0280950Y0066500D03*
X0280950Y0066600D03*
X0280950Y0066700D03*
X0280950Y0066800D03*
X0280950Y0066900D03*
X0307550Y0060200D03*
X0307650Y0060300D03*
X0307750Y0060400D03*
X0307850Y0060500D03*
X0307950Y0060600D03*
X0308050Y0060700D03*
X0308150Y0060800D03*
X0308250Y0060900D03*
X0308350Y0061000D03*
X0308450Y0061100D03*
X0308550Y0061200D03*
X0310350Y0068600D03*
X0310350Y0068700D03*
X0310250Y0068800D03*
X0310150Y0069000D03*
X0325650Y0065900D03*
X0325650Y0060900D03*
X0335350Y0067200D03*
X0340150Y0067000D03*
X0340150Y0066900D03*
X0340150Y0066800D03*
X0340150Y0066700D03*
X0340050Y0066200D03*
X0340050Y0066100D03*
X0335150Y0070600D03*
X0337550Y0074500D03*
X0337650Y0074600D03*
X0337750Y0074700D03*
X0342150Y0084800D03*
X0325450Y0083800D03*
X0325350Y0083700D03*
X0325250Y0083600D03*
X0325150Y0083500D03*
X0325050Y0083400D03*
X0357150Y0092400D03*
X0357250Y0092500D03*
D46*
X0342050Y0084900D03*
X0341150Y0080800D03*
X0340850Y0074400D03*
X0340850Y0069300D03*
X0340850Y0069200D03*
X0340750Y0069100D03*
X0340750Y0069000D03*
X0340650Y0068800D03*
X0335450Y0067600D03*
X0335050Y0070300D03*
X0325450Y0065700D03*
X0325750Y0061200D03*
X0309750Y0069600D03*
X0309650Y0069700D03*
X0309550Y0069800D03*
X0306050Y0072700D03*
X0304950Y0078100D03*
X0326050Y0084300D03*
X0326250Y0084400D03*
X0305850Y0058800D03*
X0281650Y0069100D03*
X0281650Y0069200D03*
X0281750Y0069400D03*
X0281550Y0069000D03*
X0281550Y0068900D03*
X0281450Y0068700D03*
X0271550Y0067400D03*
X0271450Y0067300D03*
X0271250Y0067200D03*
X0271150Y0067100D03*
X0270850Y0066900D03*
X0270050Y0060500D03*
X0270150Y0060400D03*
X0270250Y0060300D03*
X0270250Y0060200D03*
X0270350Y0060100D03*
X0270450Y0060000D03*
X0270550Y0059900D03*
X0270650Y0059800D03*
X0203350Y0066000D03*
X0201250Y0051600D03*
D47*
X0201400Y0051700D03*
X0203400Y0065900D03*
X0270700Y0059700D03*
X0271700Y0067500D03*
X0271900Y0067600D03*
X0272000Y0067700D03*
X0272200Y0067800D03*
X0281700Y0069300D03*
X0281800Y0069500D03*
X0281800Y0069600D03*
X0281900Y0069700D03*
X0290400Y0076400D03*
X0309500Y0069900D03*
X0323400Y0076100D03*
X0326400Y0084500D03*
X0341100Y0069800D03*
X0341000Y0069600D03*
X0341000Y0069500D03*
X0340900Y0069400D03*
X0335400Y0067700D03*
X0325400Y0065600D03*
X0354700Y0074200D03*
D48*
X0341250Y0070100D03*
X0341250Y0070000D03*
X0341150Y0069900D03*
X0341050Y0069700D03*
X0337150Y0074300D03*
X0326550Y0084600D03*
X0306150Y0072600D03*
X0309250Y0070100D03*
X0309350Y0070000D03*
X0295550Y0074200D03*
X0282150Y0070200D03*
X0282050Y0070000D03*
X0281950Y0069900D03*
X0281950Y0069800D03*
X0272550Y0068000D03*
X0270850Y0059600D03*
X0270950Y0059500D03*
X0271050Y0059400D03*
X0271150Y0059300D03*
X0271250Y0059200D03*
X0271350Y0059100D03*
X0325750Y0061300D03*
X0203350Y0065800D03*
X0203550Y0052300D03*
X0201550Y0051800D03*
D49*
X0201700Y0051900D03*
X0203400Y0065500D03*
X0271900Y0058600D03*
X0272000Y0058500D03*
X0273600Y0068600D03*
X0273800Y0068700D03*
X0308700Y0070600D03*
X0308800Y0070500D03*
X0325200Y0065400D03*
X0325900Y0061600D03*
X0341800Y0071000D03*
X0341900Y0071100D03*
X0341300Y0080600D03*
D50*
X0341750Y0079800D03*
X0345250Y0077400D03*
X0344550Y0073600D03*
X0336050Y0074000D03*
X0341250Y0085400D03*
X0359050Y0093100D03*
X0359950Y0093800D03*
X0307050Y0076300D03*
X0285550Y0073700D03*
X0283750Y0072700D03*
X0202450Y0052000D03*
D51*
X0203300Y0052100D03*
X0203400Y0052200D03*
X0203400Y0065700D03*
X0271500Y0059000D03*
X0272400Y0067900D03*
X0272700Y0068100D03*
X0272900Y0068200D03*
X0282100Y0070100D03*
X0282200Y0070300D03*
X0282300Y0070400D03*
X0282300Y0070500D03*
X0282400Y0070600D03*
X0309200Y0070200D03*
X0323500Y0076200D03*
X0329000Y0080900D03*
X0341200Y0080700D03*
X0341500Y0070500D03*
X0341400Y0070400D03*
X0341400Y0070300D03*
X0341300Y0070200D03*
X0325300Y0065500D03*
X0325800Y0061400D03*
D52*
X0325700Y0061100D03*
X0335400Y0067500D03*
X0335100Y0070400D03*
X0340600Y0068700D03*
X0340600Y0068600D03*
X0340600Y0068500D03*
X0340500Y0068400D03*
X0340500Y0068300D03*
X0340400Y0068000D03*
X0340700Y0068900D03*
X0340900Y0074500D03*
X0341000Y0074600D03*
X0341100Y0074700D03*
X0341100Y0074800D03*
X0341200Y0074900D03*
X0341300Y0075000D03*
X0341400Y0075100D03*
X0341400Y0075200D03*
X0341500Y0075300D03*
X0341600Y0075400D03*
X0341700Y0075600D03*
X0341800Y0075700D03*
X0341900Y0075800D03*
X0342100Y0076100D03*
X0342200Y0076200D03*
X0341100Y0080900D03*
X0355000Y0074100D03*
X0325900Y0084200D03*
X0325800Y0084100D03*
X0309900Y0069400D03*
X0309800Y0069500D03*
X0295800Y0074100D03*
X0281500Y0068800D03*
X0281400Y0068600D03*
X0281400Y0068500D03*
X0281300Y0068300D03*
X0281300Y0068200D03*
X0271000Y0067000D03*
X0270700Y0066800D03*
X0270600Y0066700D03*
X0269300Y0061500D03*
X0269500Y0061200D03*
X0269600Y0061100D03*
X0269700Y0061000D03*
X0269700Y0060900D03*
X0269800Y0060800D03*
X0269900Y0060700D03*
X0270000Y0060600D03*
X0305700Y0058700D03*
X0306000Y0058900D03*
X0306100Y0059000D03*
X0306400Y0059200D03*
X0306500Y0059300D03*
X0203600Y0052400D03*
X0202900Y0058000D03*
X0203000Y0058200D03*
X0203000Y0058400D03*
X0203200Y0058700D03*
X0203100Y0058800D03*
X0203200Y0058900D03*
X0203400Y0066100D03*
D53*
X0203400Y0066200D03*
X0203100Y0058600D03*
X0203000Y0058300D03*
X0202900Y0058100D03*
X0202900Y0057900D03*
X0202800Y0057800D03*
X0202800Y0057700D03*
X0202800Y0057500D03*
X0202600Y0057300D03*
X0203800Y0052600D03*
X0203700Y0052500D03*
X0268800Y0062300D03*
X0268900Y0062200D03*
X0268900Y0062100D03*
X0269000Y0062000D03*
X0269100Y0061800D03*
X0269900Y0066100D03*
X0270000Y0066200D03*
X0270100Y0066300D03*
X0270200Y0066400D03*
X0281000Y0067000D03*
X0281000Y0067100D03*
X0281000Y0067200D03*
X0281100Y0067300D03*
X0281100Y0067400D03*
X0281100Y0067500D03*
X0281100Y0067600D03*
X0281200Y0067900D03*
X0296000Y0074000D03*
X0306000Y0072800D03*
X0310100Y0069100D03*
X0310200Y0068900D03*
X0307400Y0060100D03*
X0307300Y0060000D03*
X0307200Y0059900D03*
X0307100Y0059800D03*
X0307000Y0059700D03*
X0335400Y0067300D03*
X0340200Y0067300D03*
X0340200Y0067200D03*
X0340200Y0067100D03*
X0340300Y0067500D03*
X0340300Y0067600D03*
X0340300Y0067700D03*
X0335100Y0070500D03*
X0337500Y0074400D03*
X0341000Y0081000D03*
X0325600Y0083900D03*
X0355200Y0074000D03*
D54*
X0355400Y0073900D03*
X0340100Y0066600D03*
X0340100Y0066500D03*
X0340100Y0066400D03*
X0340100Y0066300D03*
X0340000Y0066000D03*
X0340000Y0065900D03*
X0340000Y0065800D03*
X0335300Y0067100D03*
X0337800Y0074800D03*
X0337900Y0074900D03*
X0338000Y0075000D03*
X0338000Y0075100D03*
X0338100Y0075200D03*
X0338300Y0075500D03*
X0338400Y0075700D03*
X0329400Y0081000D03*
X0325000Y0083300D03*
X0324900Y0083200D03*
X0324800Y0083100D03*
X0324600Y0082800D03*
X0323100Y0075900D03*
X0310400Y0068500D03*
X0310400Y0068400D03*
X0310500Y0068300D03*
X0310500Y0068200D03*
X0309400Y0062300D03*
X0309200Y0062000D03*
X0309100Y0061900D03*
X0309000Y0061800D03*
X0309000Y0061700D03*
X0308900Y0061600D03*
X0308800Y0061500D03*
X0308700Y0061400D03*
X0308600Y0061300D03*
X0321100Y0057100D03*
X0325600Y0060800D03*
X0296200Y0073900D03*
X0280900Y0066400D03*
X0280900Y0066300D03*
X0280900Y0066200D03*
X0280900Y0066100D03*
X0280900Y0066000D03*
X0280900Y0065900D03*
X0269200Y0065400D03*
X0269100Y0065300D03*
X0269000Y0065200D03*
X0268500Y0063000D03*
X0268500Y0062900D03*
X0268600Y0062800D03*
X0268600Y0062700D03*
X0203400Y0066400D03*
X0202600Y0057100D03*
X0202400Y0056600D03*
X0202300Y0056300D03*
X0202000Y0055400D03*
X0203900Y0052700D03*
X0356700Y0092100D03*
X0357000Y0092300D03*
D55*
X0342050Y0076000D03*
X0341950Y0075900D03*
X0341650Y0075500D03*
X0340450Y0068200D03*
X0340450Y0068100D03*
X0340350Y0067900D03*
X0340350Y0067800D03*
X0340250Y0067400D03*
X0335350Y0067400D03*
X0325550Y0065800D03*
X0325650Y0061000D03*
X0310050Y0069200D03*
X0309950Y0069300D03*
X0306850Y0059600D03*
X0306750Y0059500D03*
X0306650Y0059400D03*
X0306250Y0059100D03*
X0281150Y0067700D03*
X0281150Y0067800D03*
X0281250Y0068000D03*
X0281250Y0068100D03*
X0281350Y0068400D03*
X0270450Y0066600D03*
X0270350Y0066500D03*
X0269050Y0061900D03*
X0269150Y0061700D03*
X0269250Y0061600D03*
X0269350Y0061400D03*
X0269450Y0061300D03*
X0323250Y0076000D03*
X0325650Y0084000D03*
X0203050Y0058500D03*
D56*
X0203400Y0064800D03*
X0276800Y0070100D03*
X0277000Y0070200D03*
X0290400Y0076300D03*
X0307200Y0071600D03*
X0328500Y0080800D03*
X0335400Y0087500D03*
X0341500Y0080200D03*
X0345200Y0077700D03*
X0343700Y0073000D03*
X0343600Y0072900D03*
D57*
X0343450Y0072800D03*
X0343350Y0072700D03*
X0345150Y0077800D03*
X0341550Y0085200D03*
X0359850Y0095000D03*
X0324950Y0065000D03*
X0326050Y0062100D03*
X0307350Y0071500D03*
X0304650Y0077900D03*
X0276550Y0070000D03*
X0203350Y0064900D03*
D58*
X0203400Y0065000D03*
X0276100Y0069800D03*
X0276300Y0069900D03*
X0306300Y0072200D03*
X0307500Y0071400D03*
X0307700Y0071300D03*
X0323900Y0076500D03*
X0327700Y0085100D03*
X0343600Y0079000D03*
X0343200Y0072600D03*
X0343100Y0072500D03*
X0329400Y0065100D03*
X0328800Y0064600D03*
X0325000Y0065100D03*
X0359900Y0095100D03*
D59*
X0341450Y0080300D03*
X0343650Y0078900D03*
X0343950Y0078700D03*
X0343050Y0072400D03*
X0342950Y0072300D03*
X0330050Y0065700D03*
X0329950Y0065600D03*
X0329850Y0065500D03*
X0329750Y0065400D03*
X0329650Y0065300D03*
X0329550Y0065200D03*
X0329250Y0065000D03*
X0329150Y0064900D03*
X0329050Y0064800D03*
X0328950Y0064700D03*
X0326050Y0062000D03*
X0307850Y0071200D03*
X0306250Y0072300D03*
X0275850Y0069700D03*
X0275650Y0069600D03*
X0203350Y0065100D03*
D60*
X0203400Y0065200D03*
X0275200Y0069400D03*
X0275400Y0069500D03*
X0294900Y0074400D03*
X0308000Y0071100D03*
X0324500Y0071500D03*
X0323800Y0076400D03*
X0327400Y0085000D03*
X0341400Y0080400D03*
X0343800Y0078800D03*
X0344100Y0078600D03*
X0344300Y0078500D03*
X0344400Y0078400D03*
X0344700Y0078200D03*
X0345000Y0078000D03*
X0345100Y0077900D03*
X0354100Y0074400D03*
X0342800Y0072200D03*
X0342700Y0072100D03*
X0331300Y0066800D03*
X0331200Y0066700D03*
X0331100Y0066600D03*
X0331000Y0066500D03*
X0330600Y0066200D03*
X0330500Y0066100D03*
X0330400Y0066000D03*
X0330300Y0065900D03*
X0330200Y0065800D03*
X0326000Y0061900D03*
X0359900Y0095200D03*
D61*
X0359900Y0095400D03*
X0360100Y0095500D03*
X0361000Y0096000D03*
X0341700Y0085100D03*
X0341300Y0080500D03*
X0346600Y0076900D03*
X0342400Y0071700D03*
X0342300Y0071600D03*
X0342200Y0071500D03*
X0332300Y0067700D03*
X0332200Y0067600D03*
X0332100Y0067500D03*
X0332000Y0067400D03*
X0325900Y0061700D03*
X0308400Y0070800D03*
X0308300Y0070900D03*
X0306200Y0072400D03*
X0274600Y0069100D03*
X0274400Y0069000D03*
X0274200Y0068900D03*
X0203400Y0065300D03*
D62*
X0203350Y0065400D03*
X0274050Y0068800D03*
X0304850Y0078000D03*
X0308550Y0070700D03*
X0323650Y0076300D03*
X0326950Y0084800D03*
X0327150Y0084900D03*
X0341950Y0071200D03*
X0342050Y0071300D03*
X0342150Y0071400D03*
X0325150Y0065300D03*
X0361150Y0096100D03*
D63*
X0341850Y0085000D03*
X0326750Y0084700D03*
X0341650Y0070800D03*
X0341650Y0070700D03*
X0341550Y0070600D03*
X0341750Y0070900D03*
X0354450Y0074300D03*
X0325850Y0061500D03*
X0309050Y0070300D03*
X0308950Y0070400D03*
X0306150Y0072500D03*
X0295250Y0074300D03*
X0282550Y0070800D03*
X0282450Y0070700D03*
X0273450Y0068500D03*
X0273250Y0068400D03*
X0273050Y0068300D03*
X0271550Y0058900D03*
X0271650Y0058800D03*
X0271750Y0058700D03*
X0203350Y0065600D03*
D64*
X0040700Y0052000D02*
X0040703Y0052277D01*
X0040714Y0052554D01*
X0040731Y0052831D01*
X0040754Y0053108D01*
X0040785Y0053383D01*
X0040822Y0053658D01*
X0040866Y0053932D01*
X0040917Y0054205D01*
X0040975Y0054476D01*
X0041039Y0054746D01*
X0041109Y0055014D01*
X0041187Y0055280D01*
X0041270Y0055545D01*
X0041361Y0055807D01*
X0041457Y0056067D01*
X0041560Y0056324D01*
X0041669Y0056579D01*
X0041785Y0056831D01*
X0041907Y0057081D01*
X0042034Y0057327D01*
X0042168Y0057570D01*
X0042308Y0057809D01*
X0042453Y0058045D01*
X0042604Y0058278D01*
X0042761Y0058507D01*
X0042924Y0058731D01*
X0043092Y0058952D01*
X0043265Y0059169D01*
X0043444Y0059381D01*
X0043627Y0059589D01*
X0043816Y0059792D01*
X0044010Y0059990D01*
X0044208Y0060184D01*
X0044411Y0060373D01*
X0044619Y0060556D01*
X0044831Y0060735D01*
X0045048Y0060908D01*
X0045269Y0061076D01*
X0045493Y0061239D01*
X0045722Y0061396D01*
X0045955Y0061547D01*
X0046191Y0061692D01*
X0046430Y0061832D01*
X0046673Y0061966D01*
X0046919Y0062093D01*
X0047169Y0062215D01*
X0047421Y0062331D01*
X0047676Y0062440D01*
X0047933Y0062543D01*
X0048193Y0062639D01*
X0048455Y0062730D01*
X0048720Y0062813D01*
X0048986Y0062891D01*
X0049254Y0062961D01*
X0049524Y0063025D01*
X0049795Y0063083D01*
X0050068Y0063134D01*
X0050342Y0063178D01*
X0050617Y0063215D01*
X0050892Y0063246D01*
X0051169Y0063269D01*
X0051446Y0063286D01*
X0051723Y0063297D01*
X0052000Y0063300D01*
X0052277Y0063297D01*
X0052554Y0063286D01*
X0052831Y0063269D01*
X0053108Y0063246D01*
X0053383Y0063215D01*
X0053658Y0063178D01*
X0053932Y0063134D01*
X0054205Y0063083D01*
X0054476Y0063025D01*
X0054746Y0062961D01*
X0055014Y0062891D01*
X0055280Y0062813D01*
X0055545Y0062730D01*
X0055807Y0062639D01*
X0056067Y0062543D01*
X0056324Y0062440D01*
X0056579Y0062331D01*
X0056831Y0062215D01*
X0057081Y0062093D01*
X0057327Y0061966D01*
X0057570Y0061832D01*
X0057809Y0061692D01*
X0058045Y0061547D01*
X0058278Y0061396D01*
X0058507Y0061239D01*
X0058731Y0061076D01*
X0058952Y0060908D01*
X0059169Y0060735D01*
X0059381Y0060556D01*
X0059589Y0060373D01*
X0059792Y0060184D01*
X0059990Y0059990D01*
X0060184Y0059792D01*
X0060373Y0059589D01*
X0060556Y0059381D01*
X0060735Y0059169D01*
X0060908Y0058952D01*
X0061076Y0058731D01*
X0061239Y0058507D01*
X0061396Y0058278D01*
X0061547Y0058045D01*
X0061692Y0057809D01*
X0061832Y0057570D01*
X0061966Y0057327D01*
X0062093Y0057081D01*
X0062215Y0056831D01*
X0062331Y0056579D01*
X0062440Y0056324D01*
X0062543Y0056067D01*
X0062639Y0055807D01*
X0062730Y0055545D01*
X0062813Y0055280D01*
X0062891Y0055014D01*
X0062961Y0054746D01*
X0063025Y0054476D01*
X0063083Y0054205D01*
X0063134Y0053932D01*
X0063178Y0053658D01*
X0063215Y0053383D01*
X0063246Y0053108D01*
X0063269Y0052831D01*
X0063286Y0052554D01*
X0063297Y0052277D01*
X0063300Y0052000D01*
X0063297Y0051723D01*
X0063286Y0051446D01*
X0063269Y0051169D01*
X0063246Y0050892D01*
X0063215Y0050617D01*
X0063178Y0050342D01*
X0063134Y0050068D01*
X0063083Y0049795D01*
X0063025Y0049524D01*
X0062961Y0049254D01*
X0062891Y0048986D01*
X0062813Y0048720D01*
X0062730Y0048455D01*
X0062639Y0048193D01*
X0062543Y0047933D01*
X0062440Y0047676D01*
X0062331Y0047421D01*
X0062215Y0047169D01*
X0062093Y0046919D01*
X0061966Y0046673D01*
X0061832Y0046430D01*
X0061692Y0046191D01*
X0061547Y0045955D01*
X0061396Y0045722D01*
X0061239Y0045493D01*
X0061076Y0045269D01*
X0060908Y0045048D01*
X0060735Y0044831D01*
X0060556Y0044619D01*
X0060373Y0044411D01*
X0060184Y0044208D01*
X0059990Y0044010D01*
X0059792Y0043816D01*
X0059589Y0043627D01*
X0059381Y0043444D01*
X0059169Y0043265D01*
X0058952Y0043092D01*
X0058731Y0042924D01*
X0058507Y0042761D01*
X0058278Y0042604D01*
X0058045Y0042453D01*
X0057809Y0042308D01*
X0057570Y0042168D01*
X0057327Y0042034D01*
X0057081Y0041907D01*
X0056831Y0041785D01*
X0056579Y0041669D01*
X0056324Y0041560D01*
X0056067Y0041457D01*
X0055807Y0041361D01*
X0055545Y0041270D01*
X0055280Y0041187D01*
X0055014Y0041109D01*
X0054746Y0041039D01*
X0054476Y0040975D01*
X0054205Y0040917D01*
X0053932Y0040866D01*
X0053658Y0040822D01*
X0053383Y0040785D01*
X0053108Y0040754D01*
X0052831Y0040731D01*
X0052554Y0040714D01*
X0052277Y0040703D01*
X0052000Y0040700D01*
X0051723Y0040703D01*
X0051446Y0040714D01*
X0051169Y0040731D01*
X0050892Y0040754D01*
X0050617Y0040785D01*
X0050342Y0040822D01*
X0050068Y0040866D01*
X0049795Y0040917D01*
X0049524Y0040975D01*
X0049254Y0041039D01*
X0048986Y0041109D01*
X0048720Y0041187D01*
X0048455Y0041270D01*
X0048193Y0041361D01*
X0047933Y0041457D01*
X0047676Y0041560D01*
X0047421Y0041669D01*
X0047169Y0041785D01*
X0046919Y0041907D01*
X0046673Y0042034D01*
X0046430Y0042168D01*
X0046191Y0042308D01*
X0045955Y0042453D01*
X0045722Y0042604D01*
X0045493Y0042761D01*
X0045269Y0042924D01*
X0045048Y0043092D01*
X0044831Y0043265D01*
X0044619Y0043444D01*
X0044411Y0043627D01*
X0044208Y0043816D01*
X0044010Y0044010D01*
X0043816Y0044208D01*
X0043627Y0044411D01*
X0043444Y0044619D01*
X0043265Y0044831D01*
X0043092Y0045048D01*
X0042924Y0045269D01*
X0042761Y0045493D01*
X0042604Y0045722D01*
X0042453Y0045955D01*
X0042308Y0046191D01*
X0042168Y0046430D01*
X0042034Y0046673D01*
X0041907Y0046919D01*
X0041785Y0047169D01*
X0041669Y0047421D01*
X0041560Y0047676D01*
X0041457Y0047933D01*
X0041361Y0048193D01*
X0041270Y0048455D01*
X0041187Y0048720D01*
X0041109Y0048986D01*
X0041039Y0049254D01*
X0040975Y0049524D01*
X0040917Y0049795D01*
X0040866Y0050068D01*
X0040822Y0050342D01*
X0040785Y0050617D01*
X0040754Y0050892D01*
X0040731Y0051169D01*
X0040714Y0051446D01*
X0040703Y0051723D01*
X0040700Y0052000D01*
X0363200Y0064500D02*
X0363203Y0064777D01*
X0363214Y0065054D01*
X0363231Y0065331D01*
X0363254Y0065608D01*
X0363285Y0065883D01*
X0363322Y0066158D01*
X0363366Y0066432D01*
X0363417Y0066705D01*
X0363475Y0066976D01*
X0363539Y0067246D01*
X0363609Y0067514D01*
X0363687Y0067780D01*
X0363770Y0068045D01*
X0363861Y0068307D01*
X0363957Y0068567D01*
X0364060Y0068824D01*
X0364169Y0069079D01*
X0364285Y0069331D01*
X0364407Y0069581D01*
X0364534Y0069827D01*
X0364668Y0070070D01*
X0364808Y0070309D01*
X0364953Y0070545D01*
X0365104Y0070778D01*
X0365261Y0071007D01*
X0365424Y0071231D01*
X0365592Y0071452D01*
X0365765Y0071669D01*
X0365944Y0071881D01*
X0366127Y0072089D01*
X0366316Y0072292D01*
X0366510Y0072490D01*
X0366708Y0072684D01*
X0366911Y0072873D01*
X0367119Y0073056D01*
X0367331Y0073235D01*
X0367548Y0073408D01*
X0367769Y0073576D01*
X0367993Y0073739D01*
X0368222Y0073896D01*
X0368455Y0074047D01*
X0368691Y0074192D01*
X0368930Y0074332D01*
X0369173Y0074466D01*
X0369419Y0074593D01*
X0369669Y0074715D01*
X0369921Y0074831D01*
X0370176Y0074940D01*
X0370433Y0075043D01*
X0370693Y0075139D01*
X0370955Y0075230D01*
X0371220Y0075313D01*
X0371486Y0075391D01*
X0371754Y0075461D01*
X0372024Y0075525D01*
X0372295Y0075583D01*
X0372568Y0075634D01*
X0372842Y0075678D01*
X0373117Y0075715D01*
X0373392Y0075746D01*
X0373669Y0075769D01*
X0373946Y0075786D01*
X0374223Y0075797D01*
X0374500Y0075800D01*
X0374777Y0075797D01*
X0375054Y0075786D01*
X0375331Y0075769D01*
X0375608Y0075746D01*
X0375883Y0075715D01*
X0376158Y0075678D01*
X0376432Y0075634D01*
X0376705Y0075583D01*
X0376976Y0075525D01*
X0377246Y0075461D01*
X0377514Y0075391D01*
X0377780Y0075313D01*
X0378045Y0075230D01*
X0378307Y0075139D01*
X0378567Y0075043D01*
X0378824Y0074940D01*
X0379079Y0074831D01*
X0379331Y0074715D01*
X0379581Y0074593D01*
X0379827Y0074466D01*
X0380070Y0074332D01*
X0380309Y0074192D01*
X0380545Y0074047D01*
X0380778Y0073896D01*
X0381007Y0073739D01*
X0381231Y0073576D01*
X0381452Y0073408D01*
X0381669Y0073235D01*
X0381881Y0073056D01*
X0382089Y0072873D01*
X0382292Y0072684D01*
X0382490Y0072490D01*
X0382684Y0072292D01*
X0382873Y0072089D01*
X0383056Y0071881D01*
X0383235Y0071669D01*
X0383408Y0071452D01*
X0383576Y0071231D01*
X0383739Y0071007D01*
X0383896Y0070778D01*
X0384047Y0070545D01*
X0384192Y0070309D01*
X0384332Y0070070D01*
X0384466Y0069827D01*
X0384593Y0069581D01*
X0384715Y0069331D01*
X0384831Y0069079D01*
X0384940Y0068824D01*
X0385043Y0068567D01*
X0385139Y0068307D01*
X0385230Y0068045D01*
X0385313Y0067780D01*
X0385391Y0067514D01*
X0385461Y0067246D01*
X0385525Y0066976D01*
X0385583Y0066705D01*
X0385634Y0066432D01*
X0385678Y0066158D01*
X0385715Y0065883D01*
X0385746Y0065608D01*
X0385769Y0065331D01*
X0385786Y0065054D01*
X0385797Y0064777D01*
X0385800Y0064500D01*
X0385797Y0064223D01*
X0385786Y0063946D01*
X0385769Y0063669D01*
X0385746Y0063392D01*
X0385715Y0063117D01*
X0385678Y0062842D01*
X0385634Y0062568D01*
X0385583Y0062295D01*
X0385525Y0062024D01*
X0385461Y0061754D01*
X0385391Y0061486D01*
X0385313Y0061220D01*
X0385230Y0060955D01*
X0385139Y0060693D01*
X0385043Y0060433D01*
X0384940Y0060176D01*
X0384831Y0059921D01*
X0384715Y0059669D01*
X0384593Y0059419D01*
X0384466Y0059173D01*
X0384332Y0058930D01*
X0384192Y0058691D01*
X0384047Y0058455D01*
X0383896Y0058222D01*
X0383739Y0057993D01*
X0383576Y0057769D01*
X0383408Y0057548D01*
X0383235Y0057331D01*
X0383056Y0057119D01*
X0382873Y0056911D01*
X0382684Y0056708D01*
X0382490Y0056510D01*
X0382292Y0056316D01*
X0382089Y0056127D01*
X0381881Y0055944D01*
X0381669Y0055765D01*
X0381452Y0055592D01*
X0381231Y0055424D01*
X0381007Y0055261D01*
X0380778Y0055104D01*
X0380545Y0054953D01*
X0380309Y0054808D01*
X0380070Y0054668D01*
X0379827Y0054534D01*
X0379581Y0054407D01*
X0379331Y0054285D01*
X0379079Y0054169D01*
X0378824Y0054060D01*
X0378567Y0053957D01*
X0378307Y0053861D01*
X0378045Y0053770D01*
X0377780Y0053687D01*
X0377514Y0053609D01*
X0377246Y0053539D01*
X0376976Y0053475D01*
X0376705Y0053417D01*
X0376432Y0053366D01*
X0376158Y0053322D01*
X0375883Y0053285D01*
X0375608Y0053254D01*
X0375331Y0053231D01*
X0375054Y0053214D01*
X0374777Y0053203D01*
X0374500Y0053200D01*
X0374223Y0053203D01*
X0373946Y0053214D01*
X0373669Y0053231D01*
X0373392Y0053254D01*
X0373117Y0053285D01*
X0372842Y0053322D01*
X0372568Y0053366D01*
X0372295Y0053417D01*
X0372024Y0053475D01*
X0371754Y0053539D01*
X0371486Y0053609D01*
X0371220Y0053687D01*
X0370955Y0053770D01*
X0370693Y0053861D01*
X0370433Y0053957D01*
X0370176Y0054060D01*
X0369921Y0054169D01*
X0369669Y0054285D01*
X0369419Y0054407D01*
X0369173Y0054534D01*
X0368930Y0054668D01*
X0368691Y0054808D01*
X0368455Y0054953D01*
X0368222Y0055104D01*
X0367993Y0055261D01*
X0367769Y0055424D01*
X0367548Y0055592D01*
X0367331Y0055765D01*
X0367119Y0055944D01*
X0366911Y0056127D01*
X0366708Y0056316D01*
X0366510Y0056510D01*
X0366316Y0056708D01*
X0366127Y0056911D01*
X0365944Y0057119D01*
X0365765Y0057331D01*
X0365592Y0057548D01*
X0365424Y0057769D01*
X0365261Y0057993D01*
X0365104Y0058222D01*
X0364953Y0058455D01*
X0364808Y0058691D01*
X0364668Y0058930D01*
X0364534Y0059173D01*
X0364407Y0059419D01*
X0364285Y0059669D01*
X0364169Y0059921D01*
X0364060Y0060176D01*
X0363957Y0060433D01*
X0363861Y0060693D01*
X0363770Y0060955D01*
X0363687Y0061220D01*
X0363609Y0061486D01*
X0363539Y0061754D01*
X0363475Y0062024D01*
X0363417Y0062295D01*
X0363366Y0062568D01*
X0363322Y0062842D01*
X0363285Y0063117D01*
X0363254Y0063392D01*
X0363231Y0063669D01*
X0363214Y0063946D01*
X0363203Y0064223D01*
X0363200Y0064500D01*
X0363200Y0224500D02*
X0363203Y0224777D01*
X0363214Y0225054D01*
X0363231Y0225331D01*
X0363254Y0225608D01*
X0363285Y0225883D01*
X0363322Y0226158D01*
X0363366Y0226432D01*
X0363417Y0226705D01*
X0363475Y0226976D01*
X0363539Y0227246D01*
X0363609Y0227514D01*
X0363687Y0227780D01*
X0363770Y0228045D01*
X0363861Y0228307D01*
X0363957Y0228567D01*
X0364060Y0228824D01*
X0364169Y0229079D01*
X0364285Y0229331D01*
X0364407Y0229581D01*
X0364534Y0229827D01*
X0364668Y0230070D01*
X0364808Y0230309D01*
X0364953Y0230545D01*
X0365104Y0230778D01*
X0365261Y0231007D01*
X0365424Y0231231D01*
X0365592Y0231452D01*
X0365765Y0231669D01*
X0365944Y0231881D01*
X0366127Y0232089D01*
X0366316Y0232292D01*
X0366510Y0232490D01*
X0366708Y0232684D01*
X0366911Y0232873D01*
X0367119Y0233056D01*
X0367331Y0233235D01*
X0367548Y0233408D01*
X0367769Y0233576D01*
X0367993Y0233739D01*
X0368222Y0233896D01*
X0368455Y0234047D01*
X0368691Y0234192D01*
X0368930Y0234332D01*
X0369173Y0234466D01*
X0369419Y0234593D01*
X0369669Y0234715D01*
X0369921Y0234831D01*
X0370176Y0234940D01*
X0370433Y0235043D01*
X0370693Y0235139D01*
X0370955Y0235230D01*
X0371220Y0235313D01*
X0371486Y0235391D01*
X0371754Y0235461D01*
X0372024Y0235525D01*
X0372295Y0235583D01*
X0372568Y0235634D01*
X0372842Y0235678D01*
X0373117Y0235715D01*
X0373392Y0235746D01*
X0373669Y0235769D01*
X0373946Y0235786D01*
X0374223Y0235797D01*
X0374500Y0235800D01*
X0374777Y0235797D01*
X0375054Y0235786D01*
X0375331Y0235769D01*
X0375608Y0235746D01*
X0375883Y0235715D01*
X0376158Y0235678D01*
X0376432Y0235634D01*
X0376705Y0235583D01*
X0376976Y0235525D01*
X0377246Y0235461D01*
X0377514Y0235391D01*
X0377780Y0235313D01*
X0378045Y0235230D01*
X0378307Y0235139D01*
X0378567Y0235043D01*
X0378824Y0234940D01*
X0379079Y0234831D01*
X0379331Y0234715D01*
X0379581Y0234593D01*
X0379827Y0234466D01*
X0380070Y0234332D01*
X0380309Y0234192D01*
X0380545Y0234047D01*
X0380778Y0233896D01*
X0381007Y0233739D01*
X0381231Y0233576D01*
X0381452Y0233408D01*
X0381669Y0233235D01*
X0381881Y0233056D01*
X0382089Y0232873D01*
X0382292Y0232684D01*
X0382490Y0232490D01*
X0382684Y0232292D01*
X0382873Y0232089D01*
X0383056Y0231881D01*
X0383235Y0231669D01*
X0383408Y0231452D01*
X0383576Y0231231D01*
X0383739Y0231007D01*
X0383896Y0230778D01*
X0384047Y0230545D01*
X0384192Y0230309D01*
X0384332Y0230070D01*
X0384466Y0229827D01*
X0384593Y0229581D01*
X0384715Y0229331D01*
X0384831Y0229079D01*
X0384940Y0228824D01*
X0385043Y0228567D01*
X0385139Y0228307D01*
X0385230Y0228045D01*
X0385313Y0227780D01*
X0385391Y0227514D01*
X0385461Y0227246D01*
X0385525Y0226976D01*
X0385583Y0226705D01*
X0385634Y0226432D01*
X0385678Y0226158D01*
X0385715Y0225883D01*
X0385746Y0225608D01*
X0385769Y0225331D01*
X0385786Y0225054D01*
X0385797Y0224777D01*
X0385800Y0224500D01*
X0385797Y0224223D01*
X0385786Y0223946D01*
X0385769Y0223669D01*
X0385746Y0223392D01*
X0385715Y0223117D01*
X0385678Y0222842D01*
X0385634Y0222568D01*
X0385583Y0222295D01*
X0385525Y0222024D01*
X0385461Y0221754D01*
X0385391Y0221486D01*
X0385313Y0221220D01*
X0385230Y0220955D01*
X0385139Y0220693D01*
X0385043Y0220433D01*
X0384940Y0220176D01*
X0384831Y0219921D01*
X0384715Y0219669D01*
X0384593Y0219419D01*
X0384466Y0219173D01*
X0384332Y0218930D01*
X0384192Y0218691D01*
X0384047Y0218455D01*
X0383896Y0218222D01*
X0383739Y0217993D01*
X0383576Y0217769D01*
X0383408Y0217548D01*
X0383235Y0217331D01*
X0383056Y0217119D01*
X0382873Y0216911D01*
X0382684Y0216708D01*
X0382490Y0216510D01*
X0382292Y0216316D01*
X0382089Y0216127D01*
X0381881Y0215944D01*
X0381669Y0215765D01*
X0381452Y0215592D01*
X0381231Y0215424D01*
X0381007Y0215261D01*
X0380778Y0215104D01*
X0380545Y0214953D01*
X0380309Y0214808D01*
X0380070Y0214668D01*
X0379827Y0214534D01*
X0379581Y0214407D01*
X0379331Y0214285D01*
X0379079Y0214169D01*
X0378824Y0214060D01*
X0378567Y0213957D01*
X0378307Y0213861D01*
X0378045Y0213770D01*
X0377780Y0213687D01*
X0377514Y0213609D01*
X0377246Y0213539D01*
X0376976Y0213475D01*
X0376705Y0213417D01*
X0376432Y0213366D01*
X0376158Y0213322D01*
X0375883Y0213285D01*
X0375608Y0213254D01*
X0375331Y0213231D01*
X0375054Y0213214D01*
X0374777Y0213203D01*
X0374500Y0213200D01*
X0374223Y0213203D01*
X0373946Y0213214D01*
X0373669Y0213231D01*
X0373392Y0213254D01*
X0373117Y0213285D01*
X0372842Y0213322D01*
X0372568Y0213366D01*
X0372295Y0213417D01*
X0372024Y0213475D01*
X0371754Y0213539D01*
X0371486Y0213609D01*
X0371220Y0213687D01*
X0370955Y0213770D01*
X0370693Y0213861D01*
X0370433Y0213957D01*
X0370176Y0214060D01*
X0369921Y0214169D01*
X0369669Y0214285D01*
X0369419Y0214407D01*
X0369173Y0214534D01*
X0368930Y0214668D01*
X0368691Y0214808D01*
X0368455Y0214953D01*
X0368222Y0215104D01*
X0367993Y0215261D01*
X0367769Y0215424D01*
X0367548Y0215592D01*
X0367331Y0215765D01*
X0367119Y0215944D01*
X0366911Y0216127D01*
X0366708Y0216316D01*
X0366510Y0216510D01*
X0366316Y0216708D01*
X0366127Y0216911D01*
X0365944Y0217119D01*
X0365765Y0217331D01*
X0365592Y0217548D01*
X0365424Y0217769D01*
X0365261Y0217993D01*
X0365104Y0218222D01*
X0364953Y0218455D01*
X0364808Y0218691D01*
X0364668Y0218930D01*
X0364534Y0219173D01*
X0364407Y0219419D01*
X0364285Y0219669D01*
X0364169Y0219921D01*
X0364060Y0220176D01*
X0363957Y0220433D01*
X0363861Y0220693D01*
X0363770Y0220955D01*
X0363687Y0221220D01*
X0363609Y0221486D01*
X0363539Y0221754D01*
X0363475Y0222024D01*
X0363417Y0222295D01*
X0363366Y0222568D01*
X0363322Y0222842D01*
X0363285Y0223117D01*
X0363254Y0223392D01*
X0363231Y0223669D01*
X0363214Y0223946D01*
X0363203Y0224223D01*
X0363200Y0224500D01*
D65*
X0224500Y0089500D02*
X0207000Y0089500D01*
X0207000Y0072000D01*
X0179500Y0072000D01*
X0179500Y0042000D01*
X0159500Y0042000D01*
X0159500Y0072000D01*
X0179500Y0072000D01*
X0207000Y0072000D02*
X0207000Y0064500D01*
X0224500Y0064500D01*
X0224500Y0089500D01*
X0173831Y0050248D02*
X0167531Y0050248D01*
X0167531Y0043752D01*
X0165169Y0043752D01*
X0165169Y0050248D01*
X0167531Y0050248D01*
X0173831Y0050248D02*
X0173831Y0043752D01*
X0167531Y0043752D01*
D66*
X0189696Y0056656D02*
X0190463Y0055888D01*
X0193533Y0055888D01*
X0194300Y0056656D01*
X0194300Y0058190D01*
X0193533Y0058957D01*
X0194300Y0060492D02*
X0194300Y0063561D01*
X0194300Y0062027D02*
X0189696Y0062027D01*
X0191231Y0060492D01*
X0190463Y0058957D02*
X0189696Y0058190D01*
X0189696Y0056656D01*
X0190463Y0065096D02*
X0189696Y0065863D01*
X0189696Y0067398D01*
X0190463Y0068165D01*
X0191231Y0068165D01*
X0194300Y0065096D01*
X0194300Y0068165D01*
X0187373Y0077200D02*
X0184304Y0077200D01*
X0187373Y0080269D01*
X0187373Y0081037D01*
X0186606Y0081804D01*
X0185071Y0081804D01*
X0184304Y0081037D01*
X0179700Y0081804D02*
X0179700Y0077200D01*
X0182769Y0077200D01*
X0181700Y0091200D02*
X0181700Y0095804D01*
X0184002Y0095804D01*
X0184769Y0095037D01*
X0184769Y0093502D01*
X0184002Y0092735D01*
X0181700Y0092735D01*
X0183235Y0092735D02*
X0184769Y0091200D01*
X0186304Y0091967D02*
X0187071Y0091200D01*
X0188606Y0091200D01*
X0189373Y0091967D01*
X0189373Y0095037D01*
X0188606Y0095804D01*
X0187071Y0095804D01*
X0186304Y0095037D01*
X0186304Y0094269D01*
X0187071Y0093502D01*
X0189373Y0093502D01*
X0192196Y0097200D02*
X0192196Y0099502D01*
X0192963Y0100269D01*
X0196033Y0100269D01*
X0196800Y0099502D01*
X0196800Y0097200D01*
X0192196Y0097200D01*
X0189373Y0102537D02*
X0186304Y0099467D01*
X0186304Y0098700D01*
X0184769Y0098700D02*
X0183235Y0100235D01*
X0184002Y0100235D02*
X0181700Y0100235D01*
X0181700Y0098700D02*
X0181700Y0103304D01*
X0184002Y0103304D01*
X0184769Y0102537D01*
X0184769Y0101002D01*
X0184002Y0100235D01*
X0186304Y0103304D02*
X0189373Y0103304D01*
X0189373Y0102537D01*
X0192196Y0102571D02*
X0192196Y0104106D01*
X0192963Y0104873D01*
X0193731Y0104873D01*
X0194498Y0104106D01*
X0195265Y0104873D01*
X0196033Y0104873D01*
X0196800Y0104106D01*
X0196800Y0102571D01*
X0196033Y0101804D01*
X0194498Y0103339D02*
X0194498Y0104106D01*
X0194498Y0106408D02*
X0194498Y0109477D01*
X0192196Y0108710D02*
X0194498Y0106408D01*
X0196800Y0108710D02*
X0192196Y0108710D01*
X0192196Y0102571D02*
X0192963Y0101804D01*
X0199696Y0102571D02*
X0200463Y0101804D01*
X0199696Y0102571D02*
X0199696Y0104106D01*
X0200463Y0104873D01*
X0201231Y0104873D01*
X0201998Y0104106D01*
X0202765Y0104873D01*
X0203533Y0104873D01*
X0204300Y0104106D01*
X0204300Y0102571D01*
X0203533Y0101804D01*
X0203533Y0100269D02*
X0200463Y0100269D01*
X0199696Y0099502D01*
X0199696Y0097200D01*
X0204300Y0097200D01*
X0204300Y0099502D01*
X0203533Y0100269D01*
X0201998Y0103339D02*
X0201998Y0104106D01*
X0200463Y0106408D02*
X0199696Y0107175D01*
X0199696Y0108710D01*
X0200463Y0109477D01*
X0201231Y0109477D01*
X0201998Y0108710D01*
X0202765Y0109477D01*
X0203533Y0109477D01*
X0204300Y0108710D01*
X0204300Y0107175D01*
X0203533Y0106408D01*
X0201998Y0107942D02*
X0201998Y0108710D01*
X0209696Y0109477D02*
X0209696Y0106408D01*
X0211998Y0106408D01*
X0211231Y0107942D01*
X0211231Y0108710D01*
X0211998Y0109477D01*
X0213533Y0109477D01*
X0214300Y0108710D01*
X0214300Y0107175D01*
X0213533Y0106408D01*
X0214300Y0104873D02*
X0214300Y0101804D01*
X0214300Y0103339D02*
X0209696Y0103339D01*
X0211231Y0101804D01*
X0210463Y0100269D02*
X0209696Y0099502D01*
X0209696Y0097967D01*
X0210463Y0097200D01*
X0213533Y0097200D01*
X0214300Y0097967D01*
X0214300Y0099502D01*
X0213533Y0100269D01*
X0236231Y0099551D02*
X0236998Y0100318D01*
X0236231Y0101086D01*
X0236998Y0101853D01*
X0239300Y0101853D01*
X0239300Y0100318D02*
X0236998Y0100318D01*
X0236231Y0099551D02*
X0236231Y0098784D01*
X0239300Y0098784D01*
X0237765Y0097249D02*
X0237765Y0094180D01*
X0236998Y0094180D02*
X0236231Y0094947D01*
X0236231Y0096482D01*
X0236998Y0097249D01*
X0237765Y0097249D01*
X0239300Y0096482D02*
X0239300Y0094947D01*
X0238533Y0094180D01*
X0236998Y0094180D01*
X0236231Y0092645D02*
X0236231Y0091110D01*
X0235463Y0091878D02*
X0238533Y0091878D01*
X0239300Y0092645D01*
X0238533Y0089576D02*
X0237765Y0088809D01*
X0237765Y0087274D01*
X0236998Y0086507D01*
X0236231Y0087274D01*
X0236231Y0089576D01*
X0238533Y0089576D02*
X0239300Y0088809D01*
X0239300Y0086507D01*
X0239300Y0084972D02*
X0239300Y0082670D01*
X0238533Y0081903D01*
X0236231Y0081903D01*
X0235463Y0080368D02*
X0234696Y0079601D01*
X0234696Y0078066D01*
X0235463Y0077299D01*
X0236231Y0077299D01*
X0236998Y0078066D01*
X0236998Y0079601D01*
X0237765Y0080368D01*
X0238533Y0080368D01*
X0239300Y0079601D01*
X0239300Y0078066D01*
X0238533Y0077299D01*
X0237765Y0071160D02*
X0237765Y0068091D01*
X0236998Y0068091D02*
X0236231Y0068858D01*
X0236231Y0070393D01*
X0236998Y0071160D01*
X0237765Y0071160D01*
X0239300Y0070393D02*
X0239300Y0068858D01*
X0238533Y0068091D01*
X0236998Y0068091D01*
X0236231Y0066556D02*
X0239300Y0065022D01*
X0236231Y0063487D01*
X0236231Y0061185D02*
X0239300Y0061185D01*
X0239300Y0060418D02*
X0239300Y0061952D01*
X0239300Y0058883D02*
X0238533Y0058116D01*
X0235463Y0058116D01*
X0236231Y0058883D02*
X0236231Y0057348D01*
X0236231Y0055814D02*
X0236231Y0053512D01*
X0236998Y0052744D01*
X0238533Y0052744D01*
X0239300Y0053512D01*
X0239300Y0055814D01*
X0239300Y0051210D02*
X0239300Y0048908D01*
X0238533Y0048141D01*
X0237765Y0048908D01*
X0237765Y0051210D01*
X0236998Y0051210D02*
X0239300Y0051210D01*
X0236998Y0051210D02*
X0236231Y0050442D01*
X0236231Y0048908D01*
X0236231Y0046606D02*
X0236231Y0045839D01*
X0237765Y0044304D01*
X0236231Y0044304D02*
X0239300Y0044304D01*
X0234696Y0042769D02*
X0234696Y0039700D01*
X0234696Y0041235D02*
X0239300Y0041235D01*
X0249696Y0042002D02*
X0249696Y0040467D01*
X0250463Y0039700D01*
X0253533Y0039700D01*
X0254300Y0040467D01*
X0254300Y0042002D01*
X0253533Y0042769D01*
X0251998Y0042769D01*
X0251998Y0041235D01*
X0250463Y0042769D02*
X0249696Y0042002D01*
X0249696Y0044304D02*
X0254300Y0044304D01*
X0254300Y0047373D01*
X0252765Y0048908D02*
X0249696Y0048908D01*
X0249696Y0051977D02*
X0252765Y0051977D01*
X0254300Y0050442D01*
X0252765Y0048908D01*
X0253533Y0053512D02*
X0254300Y0054279D01*
X0254300Y0055814D01*
X0253533Y0056581D01*
X0252765Y0056581D01*
X0251998Y0055814D01*
X0251998Y0054279D01*
X0251231Y0053512D01*
X0250463Y0053512D01*
X0249696Y0054279D01*
X0249696Y0055814D01*
X0250463Y0056581D01*
X0236231Y0060418D02*
X0236231Y0061185D01*
X0234696Y0061185D02*
X0233929Y0061185D01*
X0221977Y0067967D02*
X0221977Y0069502D01*
X0221210Y0070269D01*
X0220442Y0070269D01*
X0218908Y0069502D01*
X0218908Y0071804D01*
X0221977Y0071804D01*
X0221210Y0074700D02*
X0219675Y0074700D01*
X0218908Y0075467D01*
X0217373Y0074700D02*
X0214304Y0074700D01*
X0215839Y0074700D02*
X0215839Y0079304D01*
X0214304Y0077769D01*
X0212769Y0078537D02*
X0212002Y0079304D01*
X0210467Y0079304D01*
X0209700Y0078537D01*
X0209700Y0075467D01*
X0210467Y0074700D01*
X0212002Y0074700D01*
X0212769Y0075467D01*
X0218908Y0078537D02*
X0219675Y0079304D01*
X0221210Y0079304D01*
X0221977Y0078537D01*
X0221977Y0077769D01*
X0221210Y0077002D01*
X0221977Y0076235D01*
X0221977Y0075467D01*
X0221210Y0074700D01*
X0221210Y0077002D02*
X0220442Y0077002D01*
X0218908Y0082200D02*
X0221977Y0085269D01*
X0221977Y0086037D01*
X0221210Y0086804D01*
X0219675Y0086804D01*
X0218908Y0086037D01*
X0217373Y0086037D02*
X0217373Y0085269D01*
X0216606Y0084502D01*
X0217373Y0083735D01*
X0217373Y0082967D01*
X0216606Y0082200D01*
X0215071Y0082200D01*
X0214304Y0082967D01*
X0212769Y0082200D02*
X0211235Y0083735D01*
X0212002Y0083735D02*
X0209700Y0083735D01*
X0209700Y0082200D02*
X0209700Y0086804D01*
X0212002Y0086804D01*
X0212769Y0086037D01*
X0212769Y0084502D01*
X0212002Y0083735D01*
X0214304Y0086037D02*
X0215071Y0086804D01*
X0216606Y0086804D01*
X0217373Y0086037D01*
X0216606Y0084502D02*
X0215839Y0084502D01*
X0218908Y0082200D02*
X0221977Y0082200D01*
X0236231Y0084972D02*
X0240067Y0084972D01*
X0240835Y0084205D01*
X0240835Y0083437D01*
X0250467Y0097200D02*
X0252002Y0097200D01*
X0252769Y0097967D01*
X0252769Y0101804D01*
X0254304Y0100269D02*
X0255839Y0101804D01*
X0255839Y0097200D01*
X0257373Y0097200D02*
X0254304Y0097200D01*
X0250467Y0097200D02*
X0249700Y0097967D01*
X0249700Y0101804D01*
X0268700Y0085037D02*
X0269467Y0085804D01*
X0271002Y0085804D01*
X0271769Y0085037D01*
X0273304Y0084269D02*
X0274839Y0085804D01*
X0274839Y0081200D01*
X0276373Y0081200D02*
X0273304Y0081200D01*
X0271769Y0081967D02*
X0271002Y0081200D01*
X0269467Y0081200D01*
X0268700Y0081967D01*
X0268700Y0085037D01*
X0277908Y0083502D02*
X0277908Y0081967D01*
X0278675Y0081200D01*
X0280210Y0081200D01*
X0280977Y0081967D01*
X0280977Y0082735D01*
X0280210Y0083502D01*
X0277908Y0083502D01*
X0279442Y0085037D01*
X0280977Y0085804D01*
X0309696Y0104700D02*
X0309696Y0107002D01*
X0310463Y0107769D01*
X0311998Y0107769D01*
X0312765Y0107002D01*
X0312765Y0104700D01*
X0312765Y0106235D02*
X0314300Y0107769D01*
X0313533Y0109304D02*
X0314300Y0110071D01*
X0314300Y0111606D01*
X0313533Y0112373D01*
X0311998Y0112373D01*
X0311231Y0111606D01*
X0311231Y0110839D01*
X0311998Y0109304D01*
X0309696Y0109304D01*
X0309696Y0112373D01*
X0310463Y0113908D02*
X0309696Y0114675D01*
X0309696Y0116210D01*
X0310463Y0116977D01*
X0313533Y0113908D01*
X0314300Y0114675D01*
X0314300Y0116210D01*
X0313533Y0116977D01*
X0310463Y0116977D01*
X0310463Y0113908D02*
X0313533Y0113908D01*
X0318196Y0114175D02*
X0318196Y0115710D01*
X0318963Y0116477D01*
X0322033Y0113408D01*
X0322800Y0114175D01*
X0322800Y0115710D01*
X0322033Y0116477D01*
X0318963Y0116477D01*
X0318196Y0114175D02*
X0318963Y0113408D01*
X0322033Y0113408D01*
X0322800Y0111873D02*
X0322800Y0108804D01*
X0319731Y0111873D01*
X0318963Y0111873D01*
X0318196Y0111106D01*
X0318196Y0109571D01*
X0318963Y0108804D01*
X0318963Y0107269D02*
X0320498Y0107269D01*
X0321265Y0106502D01*
X0321265Y0104200D01*
X0321265Y0105735D02*
X0322800Y0107269D01*
X0318963Y0107269D02*
X0318196Y0106502D01*
X0318196Y0104200D01*
X0322800Y0104200D01*
X0327196Y0105467D02*
X0327196Y0107002D01*
X0327963Y0107769D01*
X0328731Y0109304D02*
X0327196Y0110839D01*
X0331800Y0110839D01*
X0331800Y0112373D02*
X0331800Y0109304D01*
X0331033Y0107769D02*
X0331800Y0107002D01*
X0331800Y0105467D01*
X0331033Y0104700D01*
X0327963Y0104700D01*
X0327196Y0105467D01*
X0328731Y0113908D02*
X0327196Y0115442D01*
X0331800Y0115442D01*
X0331800Y0113908D02*
X0331800Y0116977D01*
X0314300Y0104700D02*
X0309696Y0104700D01*
X0284300Y0116656D02*
X0284300Y0118190D01*
X0283533Y0118957D01*
X0284300Y0120492D02*
X0284300Y0123561D01*
X0284300Y0122027D02*
X0279696Y0122027D01*
X0281231Y0120492D01*
X0280463Y0118957D02*
X0279696Y0118190D01*
X0279696Y0116656D01*
X0280463Y0115888D01*
X0283533Y0115888D01*
X0284300Y0116656D01*
X0281998Y0125096D02*
X0281998Y0128165D01*
X0279696Y0127398D02*
X0281998Y0125096D01*
X0284300Y0127398D02*
X0279696Y0127398D01*
X0292200Y0140467D02*
X0292967Y0139700D01*
X0294502Y0139700D01*
X0295269Y0140467D01*
X0295269Y0144304D01*
X0296804Y0143537D02*
X0297571Y0144304D01*
X0299106Y0144304D01*
X0299873Y0143537D01*
X0299873Y0142769D01*
X0299106Y0142002D01*
X0299873Y0141235D01*
X0299873Y0140467D01*
X0299106Y0139700D01*
X0297571Y0139700D01*
X0296804Y0140467D01*
X0298339Y0142002D02*
X0299106Y0142002D01*
X0301408Y0142002D02*
X0301408Y0140467D01*
X0302175Y0139700D01*
X0303710Y0139700D01*
X0304477Y0140467D01*
X0304477Y0141235D01*
X0303710Y0142002D01*
X0301408Y0142002D01*
X0302942Y0143537D01*
X0304477Y0144304D01*
X0303552Y0150960D02*
X0299716Y0150960D01*
X0299716Y0154029D02*
X0303552Y0154029D01*
X0304320Y0153262D01*
X0304320Y0151727D01*
X0303552Y0150960D01*
X0304320Y0155564D02*
X0304320Y0158633D01*
X0304320Y0157098D02*
X0299716Y0157098D01*
X0301250Y0155564D01*
X0300483Y0160168D02*
X0299716Y0160935D01*
X0299716Y0162470D01*
X0300483Y0163237D01*
X0301250Y0163237D01*
X0304320Y0160168D01*
X0304320Y0163237D01*
X0302533Y0166492D02*
X0303300Y0167259D01*
X0303300Y0168794D01*
X0302533Y0169561D01*
X0302533Y0171096D02*
X0303300Y0171863D01*
X0303300Y0173398D01*
X0302533Y0174165D01*
X0299463Y0174165D01*
X0298696Y0173398D01*
X0298696Y0171863D01*
X0299463Y0171096D01*
X0300231Y0171096D01*
X0300998Y0171863D01*
X0300998Y0174165D01*
X0299463Y0169561D02*
X0298696Y0168794D01*
X0298696Y0167259D01*
X0299463Y0166492D01*
X0302533Y0166492D01*
X0293300Y0167259D02*
X0293300Y0168794D01*
X0292533Y0169561D01*
X0292533Y0171096D02*
X0291765Y0171096D01*
X0290998Y0171863D01*
X0290998Y0173398D01*
X0291765Y0174165D01*
X0292533Y0174165D01*
X0293300Y0173398D01*
X0293300Y0171863D01*
X0292533Y0171096D01*
X0290998Y0171863D02*
X0290231Y0171096D01*
X0289463Y0171096D01*
X0288696Y0171863D01*
X0288696Y0173398D01*
X0289463Y0174165D01*
X0290231Y0174165D01*
X0290998Y0173398D01*
X0289463Y0169561D02*
X0288696Y0168794D01*
X0288696Y0167259D01*
X0289463Y0166492D01*
X0292533Y0166492D01*
X0293300Y0167259D01*
X0283300Y0167259D02*
X0283300Y0168794D01*
X0282533Y0169561D01*
X0282533Y0171096D02*
X0283300Y0171096D01*
X0282533Y0171096D02*
X0279463Y0174165D01*
X0278696Y0174165D01*
X0278696Y0171096D01*
X0279463Y0169561D02*
X0278696Y0168794D01*
X0278696Y0167259D01*
X0279463Y0166492D01*
X0282533Y0166492D01*
X0283300Y0167259D01*
X0276873Y0168304D02*
X0273804Y0168304D01*
X0273804Y0166002D01*
X0275339Y0166769D01*
X0276106Y0166769D01*
X0276873Y0166002D01*
X0276873Y0164467D01*
X0276106Y0163700D01*
X0274571Y0163700D01*
X0273804Y0164467D01*
X0272269Y0163700D02*
X0270735Y0165235D01*
X0271502Y0165235D02*
X0269200Y0165235D01*
X0269200Y0163700D02*
X0269200Y0168304D01*
X0271502Y0168304D01*
X0272269Y0167537D01*
X0272269Y0166002D01*
X0271502Y0165235D01*
X0255665Y0167200D02*
X0252596Y0167200D01*
X0254131Y0167200D02*
X0254131Y0171804D01*
X0252596Y0170269D01*
X0251061Y0171804D02*
X0247992Y0171804D01*
X0249527Y0171804D02*
X0249527Y0167200D01*
X0206571Y0183480D02*
X0203502Y0183480D01*
X0205036Y0183480D02*
X0205036Y0188083D01*
X0203502Y0186549D01*
X0201967Y0187316D02*
X0201967Y0185781D01*
X0201200Y0185014D01*
X0198898Y0185014D01*
X0200432Y0185014D02*
X0201967Y0183480D01*
X0198898Y0183480D02*
X0198898Y0188083D01*
X0201200Y0188083D01*
X0201967Y0187316D01*
X0209881Y0199389D02*
X0210649Y0199389D01*
X0211416Y0200156D01*
X0211416Y0203993D01*
X0210649Y0203993D02*
X0212183Y0203993D01*
X0213718Y0201691D02*
X0216787Y0201691D01*
X0216020Y0203993D02*
X0213718Y0201691D01*
X0216020Y0199389D02*
X0216020Y0203993D01*
X0209881Y0199389D02*
X0209114Y0200156D01*
X0169287Y0199389D02*
X0166218Y0199389D01*
X0167753Y0199389D02*
X0167753Y0203993D01*
X0166218Y0202458D01*
X0164683Y0203993D02*
X0163149Y0203993D01*
X0163916Y0203993D02*
X0163916Y0200156D01*
X0163149Y0199389D01*
X0162381Y0199389D01*
X0161614Y0200156D01*
X0150710Y0183304D02*
X0149175Y0183304D01*
X0148408Y0182537D01*
X0148408Y0181769D01*
X0149175Y0181002D01*
X0150710Y0181002D01*
X0151477Y0180235D01*
X0151477Y0179467D01*
X0150710Y0178700D01*
X0149175Y0178700D01*
X0148408Y0179467D01*
X0148408Y0180235D01*
X0149175Y0181002D01*
X0150710Y0181002D02*
X0151477Y0181769D01*
X0151477Y0182537D01*
X0150710Y0183304D01*
X0145339Y0183304D02*
X0145339Y0178700D01*
X0146873Y0178700D02*
X0143804Y0178700D01*
X0142269Y0178700D02*
X0140735Y0180235D01*
X0141502Y0180235D02*
X0139200Y0180235D01*
X0139200Y0178700D02*
X0139200Y0183304D01*
X0141502Y0183304D01*
X0142269Y0182537D01*
X0142269Y0181002D01*
X0141502Y0180235D01*
X0143804Y0181769D02*
X0145339Y0183304D01*
X0123300Y0183492D02*
X0123300Y0186561D01*
X0123300Y0185027D02*
X0118696Y0185027D01*
X0120231Y0183492D01*
X0120998Y0181957D02*
X0121765Y0181190D01*
X0121765Y0178888D01*
X0121765Y0180423D02*
X0123300Y0181957D01*
X0120998Y0181957D02*
X0119463Y0181957D01*
X0118696Y0181190D01*
X0118696Y0178888D01*
X0123300Y0178888D01*
X0123300Y0173665D02*
X0123300Y0170596D01*
X0123300Y0169061D02*
X0123300Y0165992D01*
X0120231Y0169061D01*
X0119463Y0169061D01*
X0118696Y0168294D01*
X0118696Y0166759D01*
X0119463Y0165992D01*
X0119463Y0164457D02*
X0120998Y0164457D01*
X0121765Y0163690D01*
X0121765Y0161388D01*
X0121765Y0162923D02*
X0123300Y0164457D01*
X0123300Y0161388D02*
X0118696Y0161388D01*
X0118696Y0163690D01*
X0119463Y0164457D01*
X0120231Y0170596D02*
X0118696Y0172131D01*
X0123300Y0172131D01*
X0123300Y0156165D02*
X0123300Y0153096D01*
X0120231Y0156165D01*
X0119463Y0156165D01*
X0118696Y0155398D01*
X0118696Y0153863D01*
X0119463Y0153096D01*
X0119463Y0151561D02*
X0118696Y0150794D01*
X0118696Y0149259D01*
X0119463Y0148492D01*
X0119463Y0146957D02*
X0120998Y0146957D01*
X0121765Y0146190D01*
X0121765Y0143888D01*
X0121765Y0145423D02*
X0123300Y0146957D01*
X0123300Y0148492D02*
X0120231Y0151561D01*
X0119463Y0151561D01*
X0123300Y0151561D02*
X0123300Y0148492D01*
X0119463Y0146957D02*
X0118696Y0146190D01*
X0118696Y0143888D01*
X0123300Y0143888D01*
X0123210Y0128304D02*
X0121675Y0128304D01*
X0120908Y0127537D01*
X0119373Y0127537D02*
X0118606Y0128304D01*
X0117071Y0128304D01*
X0116304Y0127537D01*
X0114769Y0127537D02*
X0114769Y0126002D01*
X0114002Y0125235D01*
X0111700Y0125235D01*
X0113235Y0125235D02*
X0114769Y0123700D01*
X0116304Y0123700D02*
X0119373Y0126769D01*
X0119373Y0127537D01*
X0122442Y0126002D02*
X0123210Y0126002D01*
X0123977Y0125235D01*
X0123977Y0124467D01*
X0123210Y0123700D01*
X0121675Y0123700D01*
X0120908Y0124467D01*
X0119373Y0123700D02*
X0116304Y0123700D01*
X0111700Y0123700D02*
X0111700Y0128304D01*
X0114002Y0128304D01*
X0114769Y0127537D01*
X0123210Y0128304D02*
X0123977Y0127537D01*
X0123977Y0126769D01*
X0123210Y0126002D01*
X0117373Y0114304D02*
X0114304Y0114304D01*
X0114304Y0112002D01*
X0115839Y0112769D01*
X0116606Y0112769D01*
X0117373Y0112002D01*
X0117373Y0110467D01*
X0116606Y0109700D01*
X0115071Y0109700D01*
X0114304Y0110467D01*
X0112769Y0110467D02*
X0112769Y0114304D01*
X0109700Y0114304D02*
X0109700Y0110467D01*
X0110467Y0109700D01*
X0112002Y0109700D01*
X0112769Y0110467D01*
X0086800Y0106210D02*
X0086800Y0104675D01*
X0086033Y0103908D01*
X0082963Y0106977D01*
X0086033Y0106977D01*
X0086800Y0106210D01*
X0086033Y0103908D02*
X0082963Y0103908D01*
X0082196Y0104675D01*
X0082196Y0106210D01*
X0082963Y0106977D01*
X0086800Y0102373D02*
X0086800Y0099304D01*
X0086800Y0100839D02*
X0082196Y0100839D01*
X0083731Y0099304D01*
X0082963Y0097769D02*
X0082196Y0097002D01*
X0082196Y0095467D01*
X0082963Y0094700D01*
X0086033Y0094700D01*
X0086800Y0095467D01*
X0086800Y0097002D01*
X0086033Y0097769D01*
X0127200Y0068537D02*
X0127200Y0065467D01*
X0127967Y0064700D01*
X0129502Y0064700D01*
X0130269Y0065467D01*
X0131804Y0067002D02*
X0134873Y0067002D01*
X0136408Y0067002D02*
X0138710Y0067002D01*
X0139477Y0066235D01*
X0139477Y0065467D01*
X0138710Y0064700D01*
X0137175Y0064700D01*
X0136408Y0065467D01*
X0136408Y0067002D01*
X0137942Y0068537D01*
X0139477Y0069304D01*
X0134106Y0069304D02*
X0131804Y0067002D01*
X0130269Y0068537D02*
X0129502Y0069304D01*
X0127967Y0069304D01*
X0127200Y0068537D01*
X0134106Y0069304D02*
X0134106Y0064700D01*
X0132839Y0060804D02*
X0132839Y0056200D01*
X0134373Y0056200D02*
X0131304Y0056200D01*
X0129769Y0056200D02*
X0128235Y0057735D01*
X0129002Y0057735D02*
X0126700Y0057735D01*
X0126700Y0056200D02*
X0126700Y0060804D01*
X0129002Y0060804D01*
X0129769Y0060037D01*
X0129769Y0058502D01*
X0129002Y0057735D01*
X0131304Y0059269D02*
X0132839Y0060804D01*
X0135908Y0060037D02*
X0136675Y0060804D01*
X0138210Y0060804D01*
X0138977Y0060037D01*
X0138977Y0059269D01*
X0135908Y0056200D01*
X0138977Y0056200D01*
X0138210Y0053304D02*
X0136675Y0053304D01*
X0135908Y0052537D01*
X0137442Y0051002D02*
X0138210Y0051002D01*
X0138977Y0050235D01*
X0138977Y0049467D01*
X0138210Y0048700D01*
X0136675Y0048700D01*
X0135908Y0049467D01*
X0134373Y0048700D02*
X0131304Y0048700D01*
X0132839Y0048700D02*
X0132839Y0053304D01*
X0131304Y0051769D01*
X0129769Y0051002D02*
X0129002Y0050235D01*
X0126700Y0050235D01*
X0128235Y0050235D02*
X0129769Y0048700D01*
X0129769Y0051002D02*
X0129769Y0052537D01*
X0129002Y0053304D01*
X0126700Y0053304D01*
X0126700Y0048700D01*
X0138210Y0051002D02*
X0138977Y0051769D01*
X0138977Y0052537D01*
X0138210Y0053304D01*
X0209700Y0067200D02*
X0212002Y0067200D01*
X0212769Y0067967D01*
X0212769Y0071037D01*
X0212002Y0071804D01*
X0209700Y0071804D01*
X0209700Y0067200D01*
X0214304Y0067967D02*
X0215071Y0067200D01*
X0216606Y0067200D01*
X0217373Y0067967D01*
X0217373Y0068735D01*
X0216606Y0069502D01*
X0215839Y0069502D01*
X0216606Y0069502D02*
X0217373Y0070269D01*
X0217373Y0071037D01*
X0216606Y0071804D01*
X0215071Y0071804D01*
X0214304Y0071037D01*
X0218908Y0067967D02*
X0219675Y0067200D01*
X0221210Y0067200D01*
X0221977Y0067967D01*
X0269700Y0054304D02*
X0269700Y0049700D01*
X0269700Y0052002D02*
X0271235Y0052002D01*
X0269700Y0054304D02*
X0272769Y0054304D01*
X0274304Y0052002D02*
X0274304Y0050467D01*
X0275071Y0049700D01*
X0276606Y0049700D01*
X0277373Y0050467D01*
X0277373Y0052002D01*
X0276606Y0052769D01*
X0275071Y0052769D01*
X0274304Y0052002D01*
X0278908Y0052769D02*
X0278908Y0049700D01*
X0278908Y0051235D02*
X0280442Y0052769D01*
X0281210Y0052769D01*
X0282744Y0052769D02*
X0283512Y0052769D01*
X0284279Y0052002D01*
X0285046Y0052769D01*
X0285814Y0052002D01*
X0285814Y0049700D01*
X0284279Y0049700D02*
X0284279Y0052002D01*
X0282744Y0052769D02*
X0282744Y0049700D01*
X0287348Y0050467D02*
X0287348Y0052769D01*
X0287348Y0050467D02*
X0288116Y0049700D01*
X0290418Y0049700D01*
X0290418Y0052769D01*
X0291952Y0054304D02*
X0292720Y0054304D01*
X0292720Y0049700D01*
X0293487Y0049700D02*
X0291952Y0049700D01*
X0295022Y0050467D02*
X0295789Y0051235D01*
X0298091Y0051235D01*
X0298091Y0052002D02*
X0298091Y0049700D01*
X0295789Y0049700D01*
X0295022Y0050467D01*
X0295789Y0052769D02*
X0297324Y0052769D01*
X0298091Y0052002D01*
X0304229Y0052002D02*
X0305764Y0052002D01*
X0304229Y0054304D02*
X0304229Y0049700D01*
X0307299Y0049700D01*
X0308833Y0049700D02*
X0310368Y0049700D01*
X0309601Y0049700D02*
X0309601Y0054304D01*
X0308833Y0054304D01*
X0307299Y0054304D02*
X0304229Y0054304D01*
X0311903Y0052002D02*
X0311903Y0050467D01*
X0312670Y0049700D01*
X0314205Y0049700D01*
X0314972Y0051235D02*
X0311903Y0051235D01*
X0311903Y0052002D02*
X0312670Y0052769D01*
X0314205Y0052769D01*
X0314972Y0052002D01*
X0314972Y0051235D01*
X0316507Y0052002D02*
X0316507Y0050467D01*
X0317274Y0049700D01*
X0319576Y0049700D01*
X0321878Y0050467D02*
X0322645Y0049700D01*
X0321878Y0050467D02*
X0321878Y0053537D01*
X0322645Y0052769D02*
X0321110Y0052769D01*
X0319576Y0052769D02*
X0317274Y0052769D01*
X0316507Y0052002D01*
X0324180Y0052769D02*
X0324180Y0049700D01*
X0324180Y0051235D02*
X0325714Y0052769D01*
X0326482Y0052769D01*
X0328016Y0052769D02*
X0328784Y0052769D01*
X0328784Y0049700D01*
X0329551Y0049700D02*
X0328016Y0049700D01*
X0331086Y0050467D02*
X0331086Y0052002D01*
X0331853Y0052769D01*
X0334155Y0052769D01*
X0334155Y0049700D02*
X0331853Y0049700D01*
X0331086Y0050467D01*
X0328784Y0054304D02*
X0328784Y0055071D01*
X0340293Y0054304D02*
X0340293Y0049700D01*
X0340293Y0051235D02*
X0342595Y0051235D01*
X0343363Y0052002D01*
X0343363Y0053537D01*
X0342595Y0054304D01*
X0340293Y0054304D01*
X0341828Y0051235D02*
X0343363Y0049700D01*
X0344897Y0050467D02*
X0345665Y0051235D01*
X0347967Y0051235D01*
X0347967Y0052002D02*
X0347967Y0049700D01*
X0345665Y0049700D01*
X0344897Y0050467D01*
X0345665Y0052769D02*
X0347199Y0052769D01*
X0347967Y0052002D01*
X0349501Y0052002D02*
X0349501Y0050467D01*
X0350269Y0049700D01*
X0352571Y0049700D01*
X0354105Y0049700D02*
X0355640Y0049700D01*
X0354873Y0049700D02*
X0354873Y0052769D01*
X0354105Y0052769D01*
X0352571Y0052769D02*
X0350269Y0052769D01*
X0349501Y0052002D01*
X0354873Y0054304D02*
X0354873Y0055071D01*
X0357175Y0052769D02*
X0359477Y0052769D01*
X0360244Y0052002D01*
X0360244Y0049700D01*
X0361778Y0050467D02*
X0362546Y0049700D01*
X0364848Y0049700D01*
X0364848Y0048933D02*
X0364848Y0052769D01*
X0362546Y0052769D01*
X0361778Y0052002D01*
X0361778Y0050467D01*
X0363313Y0048165D02*
X0364080Y0048165D01*
X0364848Y0048933D01*
X0364848Y0044304D02*
X0366382Y0044304D01*
X0367150Y0043537D01*
X0364080Y0040467D01*
X0364848Y0039700D01*
X0366382Y0039700D01*
X0367150Y0040467D01*
X0367150Y0043537D01*
X0364848Y0044304D02*
X0364080Y0043537D01*
X0364080Y0040467D01*
X0362546Y0040467D02*
X0362546Y0039700D01*
X0361778Y0039700D01*
X0361778Y0040467D01*
X0362546Y0040467D01*
X0360244Y0039700D02*
X0357175Y0039700D01*
X0358709Y0039700D02*
X0358709Y0044304D01*
X0357175Y0042769D01*
X0355640Y0041235D02*
X0354105Y0039700D01*
X0352571Y0041235D01*
X0352571Y0044304D01*
X0355640Y0044304D02*
X0355640Y0041235D01*
X0346432Y0042769D02*
X0344130Y0042769D01*
X0343363Y0042002D01*
X0343363Y0040467D01*
X0344130Y0039700D01*
X0346432Y0039700D01*
X0346432Y0044304D01*
X0341828Y0042769D02*
X0341061Y0042769D01*
X0339526Y0041235D01*
X0339526Y0042769D02*
X0339526Y0039700D01*
X0337992Y0039700D02*
X0337992Y0042002D01*
X0337224Y0042769D01*
X0335690Y0042769D01*
X0335690Y0041235D02*
X0337992Y0041235D01*
X0337992Y0039700D02*
X0335690Y0039700D01*
X0334922Y0040467D01*
X0335690Y0041235D01*
X0333388Y0042002D02*
X0332620Y0042769D01*
X0331086Y0042769D01*
X0330318Y0042002D01*
X0330318Y0040467D01*
X0331086Y0039700D01*
X0332620Y0039700D01*
X0333388Y0040467D01*
X0333388Y0042002D01*
X0328784Y0042769D02*
X0328016Y0042002D01*
X0325714Y0042002D01*
X0325714Y0039700D02*
X0325714Y0044304D01*
X0328016Y0044304D01*
X0328784Y0043537D01*
X0328784Y0042769D01*
X0328016Y0042002D02*
X0328784Y0041235D01*
X0328784Y0040467D01*
X0328016Y0039700D01*
X0325714Y0039700D01*
X0319576Y0039700D02*
X0318041Y0039700D01*
X0318809Y0039700D02*
X0318809Y0044304D01*
X0318041Y0044304D01*
X0315739Y0042769D02*
X0314205Y0042769D01*
X0313437Y0042002D01*
X0313437Y0040467D01*
X0314205Y0039700D01*
X0315739Y0039700D01*
X0316507Y0040467D01*
X0316507Y0042002D01*
X0315739Y0042769D01*
X0311903Y0042769D02*
X0311135Y0042769D01*
X0309601Y0041235D01*
X0309601Y0042769D02*
X0309601Y0039700D01*
X0308066Y0039700D02*
X0307299Y0040467D01*
X0307299Y0043537D01*
X0308066Y0042769D02*
X0306531Y0042769D01*
X0304997Y0042002D02*
X0304997Y0039700D01*
X0304997Y0042002D02*
X0304229Y0042769D01*
X0301927Y0042769D01*
X0301927Y0039700D01*
X0300393Y0040467D02*
X0300393Y0042002D01*
X0299626Y0042769D01*
X0298091Y0042769D01*
X0297324Y0042002D01*
X0297324Y0040467D01*
X0298091Y0039700D01*
X0299626Y0039700D01*
X0300393Y0040467D01*
X0295789Y0040467D02*
X0295022Y0039700D01*
X0293487Y0039700D01*
X0292720Y0040467D01*
X0292720Y0043537D01*
X0293487Y0044304D01*
X0295022Y0044304D01*
X0295789Y0043537D01*
X0286581Y0039700D02*
X0283512Y0039700D01*
X0283512Y0044304D01*
X0281977Y0042769D02*
X0280442Y0044304D01*
X0278908Y0042769D01*
X0278908Y0039700D01*
X0277373Y0040467D02*
X0276606Y0039700D01*
X0275071Y0039700D01*
X0274304Y0040467D01*
X0275071Y0042002D02*
X0276606Y0042002D01*
X0277373Y0041235D01*
X0277373Y0040467D01*
X0278908Y0042002D02*
X0281977Y0042002D01*
X0281977Y0042769D02*
X0281977Y0039700D01*
X0277373Y0043537D02*
X0276606Y0044304D01*
X0275071Y0044304D01*
X0274304Y0043537D01*
X0274304Y0042769D01*
X0275071Y0042002D01*
X0272769Y0044304D02*
X0269700Y0044304D01*
X0271235Y0044304D02*
X0271235Y0039700D01*
X0357175Y0049700D02*
X0357175Y0052769D01*
X0354873Y0097200D02*
X0351804Y0097200D01*
X0353339Y0097200D02*
X0353339Y0101804D01*
X0351804Y0100269D01*
X0350269Y0101037D02*
X0349502Y0101804D01*
X0347967Y0101804D01*
X0347200Y0101037D01*
X0347200Y0097967D01*
X0347967Y0097200D01*
X0349502Y0097200D01*
X0350269Y0097967D01*
X0370696Y0099002D02*
X0370696Y0096700D01*
X0375300Y0096700D01*
X0373765Y0096700D02*
X0373765Y0099002D01*
X0372998Y0099769D01*
X0371463Y0099769D01*
X0370696Y0099002D01*
X0371463Y0101304D02*
X0372231Y0101304D01*
X0372998Y0102071D01*
X0372998Y0103606D01*
X0373765Y0104373D01*
X0374533Y0104373D01*
X0375300Y0103606D01*
X0375300Y0102071D01*
X0374533Y0101304D01*
X0373765Y0101304D01*
X0372998Y0102071D01*
X0372998Y0103606D02*
X0372231Y0104373D01*
X0371463Y0104373D01*
X0370696Y0103606D01*
X0370696Y0102071D01*
X0371463Y0101304D01*
X0373765Y0098235D02*
X0375300Y0099769D01*
X0380696Y0098502D02*
X0380696Y0096967D01*
X0381463Y0096200D01*
X0384533Y0096200D01*
X0385300Y0096967D01*
X0385300Y0098502D01*
X0384533Y0099269D01*
X0385300Y0100804D02*
X0385300Y0103873D01*
X0385300Y0102339D02*
X0380696Y0102339D01*
X0382231Y0100804D01*
X0381463Y0099269D02*
X0380696Y0098502D01*
X0380696Y0105408D02*
X0380696Y0108477D01*
X0381463Y0108477D01*
X0384533Y0105408D01*
X0385300Y0105408D01*
X0338908Y0152200D02*
X0338908Y0152967D01*
X0341977Y0156037D01*
X0341977Y0156804D01*
X0338908Y0156804D01*
X0337373Y0156037D02*
X0337373Y0155269D01*
X0336606Y0154502D01*
X0337373Y0153735D01*
X0337373Y0152967D01*
X0336606Y0152200D01*
X0335071Y0152200D01*
X0334304Y0152967D01*
X0332769Y0152967D02*
X0332769Y0156804D01*
X0334304Y0156037D02*
X0335071Y0156804D01*
X0336606Y0156804D01*
X0337373Y0156037D01*
X0336606Y0154502D02*
X0335839Y0154502D01*
X0332769Y0152967D02*
X0332002Y0152200D01*
X0330467Y0152200D01*
X0329700Y0152967D01*
X0329700Y0156804D01*
X0323398Y0163200D02*
X0323398Y0167804D01*
X0321096Y0165502D01*
X0324165Y0165502D01*
X0319561Y0167037D02*
X0318794Y0167804D01*
X0317259Y0167804D01*
X0316492Y0167037D01*
X0316492Y0163967D01*
X0317259Y0163200D01*
X0318794Y0163200D01*
X0319561Y0163967D01*
X0318794Y0170700D02*
X0319561Y0171467D01*
X0318794Y0170700D02*
X0317259Y0170700D01*
X0316492Y0171467D01*
X0316492Y0174537D01*
X0317259Y0175304D01*
X0318794Y0175304D01*
X0319561Y0174537D01*
X0321096Y0174537D02*
X0321863Y0175304D01*
X0323398Y0175304D01*
X0324165Y0174537D01*
X0324165Y0173769D01*
X0323398Y0173002D01*
X0324165Y0172235D01*
X0324165Y0171467D01*
X0323398Y0170700D01*
X0321863Y0170700D01*
X0321096Y0171467D01*
X0322631Y0173002D02*
X0323398Y0173002D01*
X0324165Y0178200D02*
X0321096Y0178200D01*
X0324165Y0181269D01*
X0324165Y0182037D01*
X0323398Y0182804D01*
X0321863Y0182804D01*
X0321096Y0182037D01*
X0319561Y0182037D02*
X0318794Y0182804D01*
X0317259Y0182804D01*
X0316492Y0182037D01*
X0316492Y0178967D01*
X0317259Y0178200D01*
X0318794Y0178200D01*
X0319561Y0178967D01*
X0315961Y0195507D02*
X0312891Y0195507D01*
X0311357Y0195507D02*
X0308287Y0195507D01*
X0308287Y0200111D01*
X0312891Y0198576D02*
X0314426Y0200111D01*
X0314426Y0195507D01*
X0317259Y0205700D02*
X0318794Y0205700D01*
X0319561Y0206467D01*
X0321096Y0206467D02*
X0321863Y0205700D01*
X0323398Y0205700D01*
X0324165Y0206467D01*
X0324165Y0207235D01*
X0323398Y0208002D01*
X0321096Y0208002D01*
X0321096Y0206467D01*
X0321096Y0208002D02*
X0322631Y0209537D01*
X0324165Y0210304D01*
X0319561Y0209537D02*
X0318794Y0210304D01*
X0317259Y0210304D01*
X0316492Y0209537D01*
X0316492Y0206467D01*
X0317259Y0205700D01*
X0344991Y0203796D02*
X0344991Y0202261D01*
X0345759Y0201494D01*
X0344991Y0199959D02*
X0348828Y0199959D01*
X0349595Y0199192D01*
X0349595Y0197657D01*
X0348828Y0196890D01*
X0344991Y0196890D01*
X0349595Y0201494D02*
X0346526Y0204563D01*
X0345759Y0204563D01*
X0344991Y0203796D01*
X0349595Y0204563D02*
X0349595Y0201494D01*
X0352998Y0194373D02*
X0352998Y0191304D01*
X0350696Y0193606D01*
X0355300Y0193606D01*
X0355300Y0189769D02*
X0353765Y0188235D01*
X0353765Y0189002D02*
X0353765Y0186700D01*
X0355300Y0186700D02*
X0350696Y0186700D01*
X0350696Y0189002D01*
X0351463Y0189769D01*
X0352998Y0189769D01*
X0353765Y0189002D01*
X0371614Y0183993D02*
X0371614Y0179389D01*
X0371614Y0181691D02*
X0374683Y0181691D01*
X0376218Y0182458D02*
X0377753Y0183993D01*
X0377753Y0179389D01*
X0379287Y0179389D02*
X0376218Y0179389D01*
X0374683Y0179389D02*
X0374683Y0183993D01*
X0359533Y0226200D02*
X0356463Y0226200D01*
X0355696Y0226967D01*
X0355696Y0228502D01*
X0356463Y0229269D01*
X0355696Y0230804D02*
X0357998Y0230804D01*
X0357231Y0232339D01*
X0357231Y0233106D01*
X0357998Y0233873D01*
X0359533Y0233873D01*
X0360300Y0233106D01*
X0360300Y0231571D01*
X0359533Y0230804D01*
X0359533Y0229269D02*
X0360300Y0228502D01*
X0360300Y0226967D01*
X0359533Y0226200D01*
X0355696Y0230804D02*
X0355696Y0233873D01*
X0351873Y0234269D02*
X0351106Y0233502D01*
X0351873Y0232735D01*
X0351873Y0231967D01*
X0351106Y0231200D01*
X0349571Y0231200D01*
X0348804Y0231967D01*
X0347269Y0231200D02*
X0345735Y0232735D01*
X0346502Y0232735D02*
X0344200Y0232735D01*
X0344200Y0231200D02*
X0344200Y0235804D01*
X0346502Y0235804D01*
X0347269Y0235037D01*
X0347269Y0233502D01*
X0346502Y0232735D01*
X0348804Y0235037D02*
X0349571Y0235804D01*
X0351106Y0235804D01*
X0351873Y0235037D01*
X0351873Y0234269D01*
X0351106Y0233502D02*
X0350339Y0233502D01*
X0334373Y0234269D02*
X0331304Y0231200D01*
X0334373Y0231200D01*
X0334373Y0234269D02*
X0334373Y0235037D01*
X0333606Y0235804D01*
X0332071Y0235804D01*
X0331304Y0235037D01*
X0329769Y0235037D02*
X0329002Y0235804D01*
X0326700Y0235804D01*
X0326700Y0231200D01*
X0326700Y0232735D02*
X0329002Y0232735D01*
X0329769Y0233502D01*
X0329769Y0235037D01*
X0328235Y0232735D02*
X0329769Y0231200D01*
X0271800Y0218314D02*
X0271800Y0216779D01*
X0271033Y0216012D01*
X0271033Y0214477D02*
X0267963Y0214477D01*
X0267196Y0213710D01*
X0267196Y0211408D01*
X0271800Y0211408D01*
X0271800Y0213710D01*
X0271033Y0214477D01*
X0269498Y0216012D02*
X0268731Y0217546D01*
X0268731Y0218314D01*
X0269498Y0219081D01*
X0271033Y0219081D01*
X0271800Y0218314D01*
X0269498Y0216012D02*
X0267196Y0216012D01*
X0267196Y0219081D01*
X0267196Y0209873D02*
X0267196Y0206804D01*
X0271800Y0206804D01*
X0271800Y0209873D01*
X0269498Y0208339D02*
X0269498Y0206804D01*
X0271800Y0205269D02*
X0271800Y0202200D01*
X0267196Y0202200D01*
X0292200Y0144304D02*
X0292200Y0140467D01*
X0123300Y0188863D02*
X0123300Y0190398D01*
X0122533Y0191165D01*
X0119463Y0191165D01*
X0118696Y0190398D01*
X0118696Y0188863D01*
X0119463Y0188096D01*
X0120231Y0188096D01*
X0120998Y0188863D01*
X0120998Y0191165D01*
X0123300Y0188863D02*
X0122533Y0188096D01*
X0096787Y0199389D02*
X0093718Y0199389D01*
X0096787Y0202458D01*
X0096787Y0203226D01*
X0096020Y0203993D01*
X0094485Y0203993D01*
X0093718Y0203226D01*
X0092183Y0203993D02*
X0090649Y0203993D01*
X0091416Y0203993D02*
X0091416Y0200156D01*
X0090649Y0199389D01*
X0089881Y0199389D01*
X0089114Y0200156D01*
X0049287Y0200156D02*
X0048520Y0199389D01*
X0046985Y0199389D01*
X0046218Y0200156D01*
X0047753Y0201691D02*
X0048520Y0201691D01*
X0049287Y0200924D01*
X0049287Y0200156D01*
X0048520Y0201691D02*
X0049287Y0202458D01*
X0049287Y0203226D01*
X0048520Y0203993D01*
X0046985Y0203993D01*
X0046218Y0203226D01*
X0044683Y0203993D02*
X0043149Y0203993D01*
X0043916Y0203993D02*
X0043916Y0200156D01*
X0043149Y0199389D01*
X0042381Y0199389D01*
X0041614Y0200156D01*
X0041398Y0188083D02*
X0043700Y0188083D01*
X0044467Y0187316D01*
X0044467Y0185781D01*
X0043700Y0185014D01*
X0041398Y0185014D01*
X0042932Y0185014D02*
X0044467Y0183480D01*
X0046002Y0184247D02*
X0046769Y0183480D01*
X0048304Y0183480D01*
X0049071Y0184247D01*
X0049071Y0185014D01*
X0048304Y0185781D01*
X0046002Y0185781D01*
X0046002Y0184247D01*
X0046002Y0185781D02*
X0047536Y0187316D01*
X0049071Y0188083D01*
X0041398Y0188083D02*
X0041398Y0183480D01*
D67*
X0244500Y0237000D02*
X0244500Y0037000D01*
D68*
X0319550Y0057200D03*
X0349550Y0074800D03*
D69*
X0318300Y0057300D03*
D70*
X0317400Y0057400D03*
D71*
X0316950Y0057500D03*
D72*
X0316650Y0057600D03*
D73*
X0316550Y0057700D03*
D74*
X0277850Y0057800D03*
X0277750Y0057900D03*
X0277650Y0058000D03*
X0277550Y0058100D03*
X0335250Y0086500D03*
D75*
X0316950Y0057800D03*
D76*
X0317300Y0057900D03*
D77*
X0292400Y0075400D03*
X0277500Y0058200D03*
D78*
X0277350Y0058300D03*
X0277250Y0058400D03*
D79*
X0311900Y0058400D03*
X0336000Y0086300D03*
D80*
X0326550Y0080400D03*
X0326550Y0080300D03*
X0326550Y0080200D03*
X0326550Y0080100D03*
X0326250Y0079000D03*
X0303650Y0077200D03*
X0308050Y0058500D03*
D81*
X0316050Y0058500D03*
D82*
X0324600Y0064600D03*
X0333100Y0058500D03*
X0324400Y0076900D03*
X0341700Y0079900D03*
X0343500Y0079300D03*
X0358900Y0093000D03*
X0360000Y0093900D03*
X0360000Y0094000D03*
X0360000Y0094200D03*
X0306800Y0076400D03*
X0306600Y0076500D03*
X0285400Y0073600D03*
D83*
X0284800Y0073200D03*
X0284500Y0073000D03*
X0277800Y0070500D03*
X0306800Y0071800D03*
X0306400Y0058600D03*
X0326200Y0062300D03*
X0343800Y0073100D03*
X0341600Y0080100D03*
X0324200Y0076700D03*
X0358300Y0092600D03*
D84*
X0349500Y0075800D03*
X0326100Y0078700D03*
X0314000Y0073900D03*
X0316300Y0058700D03*
X0316200Y0058600D03*
X0280400Y0070900D03*
D85*
X0316450Y0058800D03*
X0325950Y0078500D03*
X0326050Y0078600D03*
D86*
X0325900Y0078400D03*
X0313600Y0074000D03*
X0300300Y0076500D03*
X0299800Y0076400D03*
X0299400Y0076300D03*
X0299000Y0076200D03*
X0298500Y0076100D03*
X0298100Y0076000D03*
X0297600Y0075900D03*
X0280500Y0071000D03*
X0316600Y0058900D03*
X0316700Y0059000D03*
D87*
X0316850Y0059100D03*
X0316950Y0059200D03*
X0303750Y0077300D03*
X0280650Y0071100D03*
D88*
X0313200Y0074100D03*
X0325800Y0078300D03*
X0317100Y0059300D03*
D89*
X0317250Y0059400D03*
X0317550Y0059600D03*
X0324650Y0071600D03*
X0334550Y0073600D03*
X0325750Y0078200D03*
X0312850Y0074200D03*
X0280850Y0071200D03*
D90*
X0281000Y0071300D03*
X0290400Y0075900D03*
X0317400Y0059500D03*
X0317700Y0059700D03*
X0317800Y0059800D03*
X0349500Y0075900D03*
X0340200Y0085800D03*
D91*
X0335350Y0087300D03*
X0325650Y0078100D03*
X0312450Y0074300D03*
X0317950Y0059900D03*
D92*
X0318100Y0060000D03*
X0318200Y0060100D03*
X0312100Y0074400D03*
X0303900Y0077400D03*
X0281200Y0071400D03*
D93*
X0281350Y0071500D03*
X0311750Y0074500D03*
X0325550Y0078000D03*
X0349450Y0076000D03*
X0318350Y0060200D03*
D94*
X0318500Y0060300D03*
X0318600Y0060400D03*
X0342500Y0079400D03*
D95*
X0334950Y0073700D03*
X0325450Y0077900D03*
X0325350Y0077800D03*
X0311450Y0074600D03*
X0318750Y0060500D03*
X0281550Y0071600D03*
D96*
X0281700Y0071700D03*
X0287200Y0074400D03*
X0290400Y0076000D03*
X0311100Y0074700D03*
X0319000Y0060700D03*
X0318900Y0060600D03*
X0346400Y0074400D03*
X0349200Y0076100D03*
D97*
X0340550Y0085700D03*
X0330150Y0085800D03*
X0325250Y0077700D03*
X0319150Y0060800D03*
D98*
X0319300Y0060900D03*
X0319400Y0061000D03*
X0333800Y0067800D03*
X0333900Y0067900D03*
X0310800Y0074800D03*
X0310500Y0074900D03*
X0281900Y0071800D03*
D99*
X0304050Y0077500D03*
X0325150Y0077600D03*
X0319550Y0061100D03*
X0348950Y0076200D03*
D100*
X0334200Y0068200D03*
X0334100Y0068100D03*
X0334000Y0068000D03*
X0319800Y0061300D03*
X0319700Y0061200D03*
X0310200Y0075000D03*
X0282100Y0071900D03*
D101*
X0282250Y0072000D03*
X0286850Y0074300D03*
X0309950Y0075100D03*
X0325050Y0077500D03*
X0335350Y0073800D03*
X0334350Y0068400D03*
X0334250Y0068300D03*
X0346050Y0074300D03*
X0319950Y0061400D03*
D102*
X0320100Y0061500D03*
X0320200Y0061600D03*
X0309700Y0075200D03*
X0327600Y0080600D03*
X0348600Y0076300D03*
D103*
X0345750Y0074200D03*
X0334650Y0068700D03*
X0334550Y0068600D03*
X0334450Y0068500D03*
X0324950Y0077400D03*
X0329650Y0085700D03*
X0340750Y0085600D03*
X0309350Y0075300D03*
X0320350Y0061700D03*
X0290350Y0076100D03*
X0282450Y0072100D03*
D104*
X0282700Y0072200D03*
X0286600Y0074200D03*
X0304200Y0077600D03*
X0309100Y0075400D03*
X0320600Y0061900D03*
X0320500Y0061800D03*
X0334700Y0068800D03*
X0334800Y0068900D03*
X0334900Y0069000D03*
X0360600Y0094800D03*
D105*
X0360250Y0095600D03*
X0360450Y0095700D03*
X0360650Y0095800D03*
X0360850Y0095900D03*
X0359850Y0095300D03*
X0344850Y0078100D03*
X0344550Y0078300D03*
X0346050Y0077300D03*
X0346150Y0077200D03*
X0346350Y0077100D03*
X0346450Y0077000D03*
X0346750Y0076800D03*
X0346850Y0076700D03*
X0347050Y0076600D03*
X0347150Y0076500D03*
X0342650Y0072000D03*
X0342550Y0071900D03*
X0342450Y0071800D03*
X0336750Y0074200D03*
X0331850Y0067300D03*
X0331750Y0067200D03*
X0331650Y0067100D03*
X0331550Y0067000D03*
X0331450Y0066900D03*
X0330850Y0066400D03*
X0330750Y0066300D03*
X0325050Y0065200D03*
X0325950Y0061800D03*
X0308150Y0071000D03*
X0275050Y0069300D03*
X0274850Y0069200D03*
D106*
X0308850Y0075500D03*
X0324850Y0077300D03*
X0335350Y0087400D03*
X0360450Y0094600D03*
X0360550Y0094700D03*
X0360650Y0094900D03*
X0320750Y0062000D03*
D107*
X0320900Y0062100D03*
X0321000Y0062200D03*
X0335000Y0069100D03*
X0335100Y0069200D03*
X0335200Y0069300D03*
X0345500Y0074100D03*
X0341900Y0079500D03*
X0308600Y0075600D03*
X0286300Y0074100D03*
X0282900Y0072300D03*
D108*
X0284650Y0073100D03*
X0277550Y0070400D03*
X0277250Y0070300D03*
X0306350Y0072100D03*
X0306950Y0071700D03*
X0324050Y0076600D03*
X0336450Y0074100D03*
X0343550Y0079100D03*
X0327950Y0085200D03*
X0324850Y0064900D03*
X0326150Y0062200D03*
D109*
X0321150Y0062300D03*
X0335250Y0069400D03*
X0335350Y0069500D03*
X0324750Y0077200D03*
X0329250Y0085600D03*
X0348250Y0076400D03*
X0308350Y0075700D03*
D110*
X0308100Y0075800D03*
X0321400Y0062500D03*
X0321300Y0062400D03*
X0335400Y0069600D03*
X0335700Y0073900D03*
X0345300Y0074000D03*
X0341000Y0085500D03*
X0360300Y0094500D03*
X0286100Y0074000D03*
X0283100Y0072400D03*
D111*
X0285100Y0073400D03*
X0278300Y0070700D03*
X0304500Y0077800D03*
X0306400Y0072000D03*
X0324300Y0076800D03*
X0341600Y0080000D03*
X0343500Y0079200D03*
X0344200Y0073400D03*
X0344100Y0073300D03*
X0326200Y0062400D03*
X0324700Y0064700D03*
X0358600Y0092800D03*
D112*
X0358750Y0092900D03*
X0359950Y0094100D03*
X0345250Y0077500D03*
X0344350Y0073500D03*
X0328550Y0085400D03*
X0326250Y0062500D03*
X0285250Y0073500D03*
X0284050Y0072800D03*
X0278550Y0070800D03*
D113*
X0323800Y0062600D03*
D114*
X0323950Y0062700D03*
X0324050Y0062800D03*
D115*
X0324200Y0062900D03*
X0349500Y0075400D03*
D116*
X0324450Y0063100D03*
X0324350Y0063000D03*
D117*
X0324600Y0063200D03*
X0324700Y0071700D03*
X0316500Y0073400D03*
D118*
X0325000Y0063500D03*
X0325300Y0063700D03*
X0349500Y0075500D03*
D119*
X0335250Y0087100D03*
X0325550Y0063900D03*
X0325450Y0063800D03*
D120*
X0325700Y0064000D03*
D121*
X0325850Y0064100D03*
X0325950Y0064200D03*
X0333650Y0073400D03*
D122*
X0326100Y0064300D03*
X0315900Y0073500D03*
X0303500Y0077100D03*
X0349500Y0075600D03*
D123*
X0326350Y0064500D03*
X0326250Y0064400D03*
D124*
X0324750Y0064800D03*
X0306550Y0071900D03*
X0284950Y0073300D03*
X0284250Y0072900D03*
X0278050Y0070600D03*
X0328250Y0085300D03*
X0341350Y0085300D03*
X0345250Y0077600D03*
X0343950Y0073200D03*
X0358450Y0092700D03*
D125*
X0341850Y0079600D03*
X0335650Y0069800D03*
X0335550Y0069700D03*
X0324650Y0077100D03*
D126*
X0335700Y0069900D03*
X0335800Y0070000D03*
X0335900Y0070100D03*
X0345100Y0073900D03*
X0341800Y0079700D03*
X0360200Y0094400D03*
X0307900Y0075900D03*
X0307700Y0076000D03*
X0290400Y0076200D03*
X0285900Y0073900D03*
X0283300Y0072500D03*
D127*
X0307200Y0076200D03*
X0336000Y0070200D03*
X0344700Y0073700D03*
X0344900Y0073800D03*
X0359200Y0093200D03*
X0359400Y0093300D03*
X0359800Y0093700D03*
X0360100Y0094300D03*
D128*
X0349550Y0075000D03*
X0324750Y0071800D03*
D129*
X0324800Y0071900D03*
X0349500Y0074500D03*
X0290400Y0074500D03*
D130*
X0292750Y0075500D03*
X0324850Y0072000D03*
D131*
X0324900Y0072100D03*
D132*
X0325000Y0072200D03*
X0335700Y0086100D03*
D133*
X0325100Y0072300D03*
D134*
X0325200Y0072400D03*
D135*
X0325250Y0072500D03*
D136*
X0324550Y0077000D03*
X0328050Y0080700D03*
X0328850Y0085500D03*
X0307450Y0076100D03*
X0304350Y0077700D03*
X0285750Y0073800D03*
X0283550Y0072600D03*
X0359550Y0093400D03*
X0359650Y0093500D03*
X0359750Y0093600D03*
D137*
X0325400Y0072600D03*
D138*
X0325400Y0072700D03*
D139*
X0325500Y0072800D03*
D140*
X0325600Y0072900D03*
D141*
X0325500Y0073000D03*
D142*
X0325350Y0073100D03*
D143*
X0318800Y0073200D03*
D144*
X0331650Y0073200D03*
D145*
X0317300Y0073300D03*
D146*
X0303200Y0076900D03*
X0333000Y0073300D03*
X0349500Y0075300D03*
D147*
X0315350Y0073600D03*
D148*
X0314400Y0073800D03*
X0326200Y0078800D03*
X0326200Y0078900D03*
X0326600Y0080500D03*
X0335300Y0087200D03*
D149*
X0335250Y0086700D03*
X0349550Y0074600D03*
X0290850Y0074900D03*
X0290350Y0074600D03*
D150*
X0290350Y0074700D03*
X0290550Y0074800D03*
X0349550Y0074700D03*
D151*
X0349500Y0074900D03*
D152*
X0291150Y0075000D03*
D153*
X0291450Y0075100D03*
X0335250Y0086600D03*
D154*
X0335250Y0086900D03*
X0349550Y0075100D03*
D155*
X0291750Y0075200D03*
D156*
X0349550Y0075200D03*
D157*
X0292100Y0075300D03*
D158*
X0293050Y0075600D03*
D159*
X0293400Y0075700D03*
D160*
X0326450Y0079400D03*
X0326450Y0079500D03*
X0326450Y0079600D03*
X0349550Y0075700D03*
D161*
X0293750Y0075800D03*
D162*
X0302850Y0076600D03*
D163*
X0303000Y0076700D03*
D164*
X0303100Y0076800D03*
D165*
X0335450Y0085900D03*
D166*
X0335600Y0086000D03*
D167*
X0335800Y0086200D03*
D168*
X0336100Y0086400D03*
D169*
X0335250Y0086800D03*
D170*
X0335250Y0087000D03*
D171*
X0352713Y0165622D02*
X0352715Y0165678D01*
X0352721Y0165733D01*
X0352731Y0165787D01*
X0352744Y0165841D01*
X0352762Y0165894D01*
X0352783Y0165945D01*
X0352807Y0165995D01*
X0352835Y0166043D01*
X0352867Y0166089D01*
X0352901Y0166133D01*
X0352939Y0166174D01*
X0352979Y0166212D01*
X0353022Y0166247D01*
X0353067Y0166279D01*
X0353115Y0166308D01*
X0353164Y0166334D01*
X0353215Y0166356D01*
X0353267Y0166374D01*
X0353321Y0166388D01*
X0353376Y0166399D01*
X0353431Y0166406D01*
X0353486Y0166409D01*
X0353542Y0166408D01*
X0353597Y0166403D01*
X0353652Y0166394D01*
X0353706Y0166382D01*
X0353759Y0166365D01*
X0353811Y0166345D01*
X0353861Y0166321D01*
X0353909Y0166294D01*
X0353956Y0166264D01*
X0354000Y0166230D01*
X0354042Y0166193D01*
X0354080Y0166153D01*
X0354117Y0166111D01*
X0354150Y0166066D01*
X0354179Y0166020D01*
X0354206Y0165971D01*
X0354228Y0165920D01*
X0354248Y0165868D01*
X0354263Y0165814D01*
X0354275Y0165760D01*
X0354283Y0165705D01*
X0354287Y0165650D01*
X0354287Y0165594D01*
X0354283Y0165539D01*
X0354275Y0165484D01*
X0354263Y0165430D01*
X0354248Y0165376D01*
X0354228Y0165324D01*
X0354206Y0165273D01*
X0354179Y0165224D01*
X0354150Y0165178D01*
X0354117Y0165133D01*
X0354080Y0165091D01*
X0354042Y0165051D01*
X0354000Y0165014D01*
X0353956Y0164980D01*
X0353909Y0164950D01*
X0353861Y0164923D01*
X0353811Y0164899D01*
X0353759Y0164879D01*
X0353706Y0164862D01*
X0353652Y0164850D01*
X0353597Y0164841D01*
X0353542Y0164836D01*
X0353486Y0164835D01*
X0353431Y0164838D01*
X0353376Y0164845D01*
X0353321Y0164856D01*
X0353267Y0164870D01*
X0353215Y0164888D01*
X0353164Y0164910D01*
X0353115Y0164936D01*
X0353067Y0164965D01*
X0353022Y0164997D01*
X0352979Y0165032D01*
X0352939Y0165070D01*
X0352901Y0165111D01*
X0352867Y0165155D01*
X0352835Y0165201D01*
X0352807Y0165249D01*
X0352783Y0165299D01*
X0352762Y0165350D01*
X0352744Y0165403D01*
X0352731Y0165457D01*
X0352721Y0165511D01*
X0352715Y0165566D01*
X0352713Y0165622D01*
X0183496Y0203500D02*
X0183498Y0203556D01*
X0183504Y0203611D01*
X0183514Y0203665D01*
X0183527Y0203719D01*
X0183545Y0203772D01*
X0183566Y0203823D01*
X0183590Y0203873D01*
X0183618Y0203921D01*
X0183650Y0203967D01*
X0183684Y0204011D01*
X0183722Y0204052D01*
X0183762Y0204090D01*
X0183805Y0204125D01*
X0183850Y0204157D01*
X0183898Y0204186D01*
X0183947Y0204212D01*
X0183998Y0204234D01*
X0184050Y0204252D01*
X0184104Y0204266D01*
X0184159Y0204277D01*
X0184214Y0204284D01*
X0184269Y0204287D01*
X0184325Y0204286D01*
X0184380Y0204281D01*
X0184435Y0204272D01*
X0184489Y0204260D01*
X0184542Y0204243D01*
X0184594Y0204223D01*
X0184644Y0204199D01*
X0184692Y0204172D01*
X0184739Y0204142D01*
X0184783Y0204108D01*
X0184825Y0204071D01*
X0184863Y0204031D01*
X0184900Y0203989D01*
X0184933Y0203944D01*
X0184962Y0203898D01*
X0184989Y0203849D01*
X0185011Y0203798D01*
X0185031Y0203746D01*
X0185046Y0203692D01*
X0185058Y0203638D01*
X0185066Y0203583D01*
X0185070Y0203528D01*
X0185070Y0203472D01*
X0185066Y0203417D01*
X0185058Y0203362D01*
X0185046Y0203308D01*
X0185031Y0203254D01*
X0185011Y0203202D01*
X0184989Y0203151D01*
X0184962Y0203102D01*
X0184933Y0203056D01*
X0184900Y0203011D01*
X0184863Y0202969D01*
X0184825Y0202929D01*
X0184783Y0202892D01*
X0184739Y0202858D01*
X0184692Y0202828D01*
X0184644Y0202801D01*
X0184594Y0202777D01*
X0184542Y0202757D01*
X0184489Y0202740D01*
X0184435Y0202728D01*
X0184380Y0202719D01*
X0184325Y0202714D01*
X0184269Y0202713D01*
X0184214Y0202716D01*
X0184159Y0202723D01*
X0184104Y0202734D01*
X0184050Y0202748D01*
X0183998Y0202766D01*
X0183947Y0202788D01*
X0183898Y0202814D01*
X0183850Y0202843D01*
X0183805Y0202875D01*
X0183762Y0202910D01*
X0183722Y0202948D01*
X0183684Y0202989D01*
X0183650Y0203033D01*
X0183618Y0203079D01*
X0183590Y0203127D01*
X0183566Y0203177D01*
X0183545Y0203228D01*
X0183527Y0203281D01*
X0183514Y0203335D01*
X0183504Y0203389D01*
X0183498Y0203444D01*
X0183496Y0203500D01*
X0135996Y0203500D02*
X0135998Y0203556D01*
X0136004Y0203611D01*
X0136014Y0203665D01*
X0136027Y0203719D01*
X0136045Y0203772D01*
X0136066Y0203823D01*
X0136090Y0203873D01*
X0136118Y0203921D01*
X0136150Y0203967D01*
X0136184Y0204011D01*
X0136222Y0204052D01*
X0136262Y0204090D01*
X0136305Y0204125D01*
X0136350Y0204157D01*
X0136398Y0204186D01*
X0136447Y0204212D01*
X0136498Y0204234D01*
X0136550Y0204252D01*
X0136604Y0204266D01*
X0136659Y0204277D01*
X0136714Y0204284D01*
X0136769Y0204287D01*
X0136825Y0204286D01*
X0136880Y0204281D01*
X0136935Y0204272D01*
X0136989Y0204260D01*
X0137042Y0204243D01*
X0137094Y0204223D01*
X0137144Y0204199D01*
X0137192Y0204172D01*
X0137239Y0204142D01*
X0137283Y0204108D01*
X0137325Y0204071D01*
X0137363Y0204031D01*
X0137400Y0203989D01*
X0137433Y0203944D01*
X0137462Y0203898D01*
X0137489Y0203849D01*
X0137511Y0203798D01*
X0137531Y0203746D01*
X0137546Y0203692D01*
X0137558Y0203638D01*
X0137566Y0203583D01*
X0137570Y0203528D01*
X0137570Y0203472D01*
X0137566Y0203417D01*
X0137558Y0203362D01*
X0137546Y0203308D01*
X0137531Y0203254D01*
X0137511Y0203202D01*
X0137489Y0203151D01*
X0137462Y0203102D01*
X0137433Y0203056D01*
X0137400Y0203011D01*
X0137363Y0202969D01*
X0137325Y0202929D01*
X0137283Y0202892D01*
X0137239Y0202858D01*
X0137192Y0202828D01*
X0137144Y0202801D01*
X0137094Y0202777D01*
X0137042Y0202757D01*
X0136989Y0202740D01*
X0136935Y0202728D01*
X0136880Y0202719D01*
X0136825Y0202714D01*
X0136769Y0202713D01*
X0136714Y0202716D01*
X0136659Y0202723D01*
X0136604Y0202734D01*
X0136550Y0202748D01*
X0136498Y0202766D01*
X0136447Y0202788D01*
X0136398Y0202814D01*
X0136350Y0202843D01*
X0136305Y0202875D01*
X0136262Y0202910D01*
X0136222Y0202948D01*
X0136184Y0202989D01*
X0136150Y0203033D01*
X0136118Y0203079D01*
X0136090Y0203127D01*
X0136066Y0203177D01*
X0136045Y0203228D01*
X0136027Y0203281D01*
X0136014Y0203335D01*
X0136004Y0203389D01*
X0135998Y0203444D01*
X0135996Y0203500D01*
X0085996Y0203500D02*
X0085998Y0203556D01*
X0086004Y0203611D01*
X0086014Y0203665D01*
X0086027Y0203719D01*
X0086045Y0203772D01*
X0086066Y0203823D01*
X0086090Y0203873D01*
X0086118Y0203921D01*
X0086150Y0203967D01*
X0086184Y0204011D01*
X0086222Y0204052D01*
X0086262Y0204090D01*
X0086305Y0204125D01*
X0086350Y0204157D01*
X0086398Y0204186D01*
X0086447Y0204212D01*
X0086498Y0204234D01*
X0086550Y0204252D01*
X0086604Y0204266D01*
X0086659Y0204277D01*
X0086714Y0204284D01*
X0086769Y0204287D01*
X0086825Y0204286D01*
X0086880Y0204281D01*
X0086935Y0204272D01*
X0086989Y0204260D01*
X0087042Y0204243D01*
X0087094Y0204223D01*
X0087144Y0204199D01*
X0087192Y0204172D01*
X0087239Y0204142D01*
X0087283Y0204108D01*
X0087325Y0204071D01*
X0087363Y0204031D01*
X0087400Y0203989D01*
X0087433Y0203944D01*
X0087462Y0203898D01*
X0087489Y0203849D01*
X0087511Y0203798D01*
X0087531Y0203746D01*
X0087546Y0203692D01*
X0087558Y0203638D01*
X0087566Y0203583D01*
X0087570Y0203528D01*
X0087570Y0203472D01*
X0087566Y0203417D01*
X0087558Y0203362D01*
X0087546Y0203308D01*
X0087531Y0203254D01*
X0087511Y0203202D01*
X0087489Y0203151D01*
X0087462Y0203102D01*
X0087433Y0203056D01*
X0087400Y0203011D01*
X0087363Y0202969D01*
X0087325Y0202929D01*
X0087283Y0202892D01*
X0087239Y0202858D01*
X0087192Y0202828D01*
X0087144Y0202801D01*
X0087094Y0202777D01*
X0087042Y0202757D01*
X0086989Y0202740D01*
X0086935Y0202728D01*
X0086880Y0202719D01*
X0086825Y0202714D01*
X0086769Y0202713D01*
X0086714Y0202716D01*
X0086659Y0202723D01*
X0086604Y0202734D01*
X0086550Y0202748D01*
X0086498Y0202766D01*
X0086447Y0202788D01*
X0086398Y0202814D01*
X0086350Y0202843D01*
X0086305Y0202875D01*
X0086262Y0202910D01*
X0086222Y0202948D01*
X0086184Y0202989D01*
X0086150Y0203033D01*
X0086118Y0203079D01*
X0086090Y0203127D01*
X0086066Y0203177D01*
X0086045Y0203228D01*
X0086027Y0203281D01*
X0086014Y0203335D01*
X0086004Y0203389D01*
X0085998Y0203444D01*
X0085996Y0203500D01*
X0038496Y0203500D02*
X0038498Y0203556D01*
X0038504Y0203611D01*
X0038514Y0203665D01*
X0038527Y0203719D01*
X0038545Y0203772D01*
X0038566Y0203823D01*
X0038590Y0203873D01*
X0038618Y0203921D01*
X0038650Y0203967D01*
X0038684Y0204011D01*
X0038722Y0204052D01*
X0038762Y0204090D01*
X0038805Y0204125D01*
X0038850Y0204157D01*
X0038898Y0204186D01*
X0038947Y0204212D01*
X0038998Y0204234D01*
X0039050Y0204252D01*
X0039104Y0204266D01*
X0039159Y0204277D01*
X0039214Y0204284D01*
X0039269Y0204287D01*
X0039325Y0204286D01*
X0039380Y0204281D01*
X0039435Y0204272D01*
X0039489Y0204260D01*
X0039542Y0204243D01*
X0039594Y0204223D01*
X0039644Y0204199D01*
X0039692Y0204172D01*
X0039739Y0204142D01*
X0039783Y0204108D01*
X0039825Y0204071D01*
X0039863Y0204031D01*
X0039900Y0203989D01*
X0039933Y0203944D01*
X0039962Y0203898D01*
X0039989Y0203849D01*
X0040011Y0203798D01*
X0040031Y0203746D01*
X0040046Y0203692D01*
X0040058Y0203638D01*
X0040066Y0203583D01*
X0040070Y0203528D01*
X0040070Y0203472D01*
X0040066Y0203417D01*
X0040058Y0203362D01*
X0040046Y0203308D01*
X0040031Y0203254D01*
X0040011Y0203202D01*
X0039989Y0203151D01*
X0039962Y0203102D01*
X0039933Y0203056D01*
X0039900Y0203011D01*
X0039863Y0202969D01*
X0039825Y0202929D01*
X0039783Y0202892D01*
X0039739Y0202858D01*
X0039692Y0202828D01*
X0039644Y0202801D01*
X0039594Y0202777D01*
X0039542Y0202757D01*
X0039489Y0202740D01*
X0039435Y0202728D01*
X0039380Y0202719D01*
X0039325Y0202714D01*
X0039269Y0202713D01*
X0039214Y0202716D01*
X0039159Y0202723D01*
X0039104Y0202734D01*
X0039050Y0202748D01*
X0038998Y0202766D01*
X0038947Y0202788D01*
X0038898Y0202814D01*
X0038850Y0202843D01*
X0038805Y0202875D01*
X0038762Y0202910D01*
X0038722Y0202948D01*
X0038684Y0202989D01*
X0038650Y0203033D01*
X0038618Y0203079D01*
X0038590Y0203127D01*
X0038566Y0203177D01*
X0038545Y0203228D01*
X0038527Y0203281D01*
X0038514Y0203335D01*
X0038504Y0203389D01*
X0038498Y0203444D01*
X0038496Y0203500D01*
D172*
X0042630Y0206000D02*
X0071370Y0206000D01*
X0071370Y0233500D01*
X0042630Y0233500D01*
X0042630Y0206000D01*
X0054618Y0194874D02*
X0054618Y0182276D01*
X0094382Y0182276D01*
X0094382Y0194874D01*
X0054618Y0194874D01*
X0054618Y0182276D02*
X0054618Y0177157D01*
X0094382Y0177157D01*
X0094382Y0182276D01*
X0107000Y0177000D02*
X0107000Y0112000D01*
X0102000Y0112000D01*
X0099500Y0162000D01*
X0089500Y0162000D01*
X0087000Y0112000D01*
X0082000Y0112000D01*
X0082000Y0162000D01*
X0067000Y0162000D01*
X0067000Y0112000D01*
X0062000Y0112000D01*
X0059500Y0162000D01*
X0049500Y0162000D01*
X0047000Y0112000D01*
X0042000Y0112000D01*
X0042000Y0177000D01*
X0107000Y0177000D01*
X0142000Y0177000D02*
X0142000Y0112000D01*
X0147000Y0112000D01*
X0149500Y0162000D01*
X0159500Y0162000D01*
X0162000Y0112000D01*
X0167000Y0112000D01*
X0167000Y0162000D01*
X0182000Y0162000D01*
X0182000Y0112000D01*
X0187000Y0112000D01*
X0189500Y0162000D01*
X0199500Y0162000D01*
X0202000Y0112000D01*
X0207000Y0112000D01*
X0207000Y0177000D01*
X0142000Y0177000D01*
X0154618Y0177157D02*
X0154618Y0182276D01*
X0194382Y0182276D01*
X0194382Y0194874D01*
X0154618Y0194874D01*
X0154618Y0182276D01*
X0154618Y0177157D02*
X0194382Y0177157D01*
X0194382Y0182276D01*
X0228500Y0165000D02*
X0260500Y0165000D01*
X0260500Y0129000D01*
X0228500Y0129000D01*
X0228500Y0165000D01*
X0233250Y0127000D02*
X0233252Y0127070D01*
X0233258Y0127140D01*
X0233268Y0127209D01*
X0233281Y0127278D01*
X0233299Y0127346D01*
X0233320Y0127413D01*
X0233345Y0127478D01*
X0233374Y0127542D01*
X0233406Y0127605D01*
X0233442Y0127665D01*
X0233481Y0127723D01*
X0233523Y0127779D01*
X0233568Y0127833D01*
X0233616Y0127884D01*
X0233667Y0127932D01*
X0233721Y0127977D01*
X0233777Y0128019D01*
X0233835Y0128058D01*
X0233895Y0128094D01*
X0233958Y0128126D01*
X0234022Y0128155D01*
X0234087Y0128180D01*
X0234154Y0128201D01*
X0234222Y0128219D01*
X0234291Y0128232D01*
X0234360Y0128242D01*
X0234430Y0128248D01*
X0234500Y0128250D01*
X0234570Y0128248D01*
X0234640Y0128242D01*
X0234709Y0128232D01*
X0234778Y0128219D01*
X0234846Y0128201D01*
X0234913Y0128180D01*
X0234978Y0128155D01*
X0235042Y0128126D01*
X0235105Y0128094D01*
X0235165Y0128058D01*
X0235223Y0128019D01*
X0235279Y0127977D01*
X0235333Y0127932D01*
X0235384Y0127884D01*
X0235432Y0127833D01*
X0235477Y0127779D01*
X0235519Y0127723D01*
X0235558Y0127665D01*
X0235594Y0127605D01*
X0235626Y0127542D01*
X0235655Y0127478D01*
X0235680Y0127413D01*
X0235701Y0127346D01*
X0235719Y0127278D01*
X0235732Y0127209D01*
X0235742Y0127140D01*
X0235748Y0127070D01*
X0235750Y0127000D01*
X0235748Y0126930D01*
X0235742Y0126860D01*
X0235732Y0126791D01*
X0235719Y0126722D01*
X0235701Y0126654D01*
X0235680Y0126587D01*
X0235655Y0126522D01*
X0235626Y0126458D01*
X0235594Y0126395D01*
X0235558Y0126335D01*
X0235519Y0126277D01*
X0235477Y0126221D01*
X0235432Y0126167D01*
X0235384Y0126116D01*
X0235333Y0126068D01*
X0235279Y0126023D01*
X0235223Y0125981D01*
X0235165Y0125942D01*
X0235105Y0125906D01*
X0235042Y0125874D01*
X0234978Y0125845D01*
X0234913Y0125820D01*
X0234846Y0125799D01*
X0234778Y0125781D01*
X0234709Y0125768D01*
X0234640Y0125758D01*
X0234570Y0125752D01*
X0234500Y0125750D01*
X0234430Y0125752D01*
X0234360Y0125758D01*
X0234291Y0125768D01*
X0234222Y0125781D01*
X0234154Y0125799D01*
X0234087Y0125820D01*
X0234022Y0125845D01*
X0233958Y0125874D01*
X0233895Y0125906D01*
X0233835Y0125942D01*
X0233777Y0125981D01*
X0233721Y0126023D01*
X0233667Y0126068D01*
X0233616Y0126116D01*
X0233568Y0126167D01*
X0233523Y0126221D01*
X0233481Y0126277D01*
X0233442Y0126335D01*
X0233406Y0126395D01*
X0233374Y0126458D01*
X0233345Y0126522D01*
X0233320Y0126587D01*
X0233299Y0126654D01*
X0233281Y0126722D01*
X0233268Y0126791D01*
X0233258Y0126860D01*
X0233252Y0126930D01*
X0233250Y0127000D01*
X0238594Y0124343D02*
X0240563Y0124343D01*
X0240563Y0104657D01*
X0238594Y0104657D01*
X0238594Y0124343D01*
X0240563Y0124343D02*
X0250406Y0124343D01*
X0250406Y0104657D01*
X0240563Y0104657D01*
X0205150Y0089618D02*
X0205150Y0081744D01*
X0198850Y0081744D01*
X0198850Y0089618D01*
X0205150Y0089618D01*
X0205150Y0081744D02*
X0205150Y0079382D01*
X0198850Y0079382D01*
X0198850Y0081744D01*
X0195150Y0081744D02*
X0195150Y0079382D01*
X0188850Y0079382D01*
X0188850Y0081744D01*
X0195150Y0081744D01*
X0195150Y0089618D01*
X0188850Y0089618D01*
X0188850Y0081744D01*
X0121311Y0099343D02*
X0121313Y0099431D01*
X0121319Y0099519D01*
X0121329Y0099607D01*
X0121343Y0099695D01*
X0121360Y0099781D01*
X0121382Y0099867D01*
X0121407Y0099951D01*
X0121437Y0100035D01*
X0121469Y0100117D01*
X0121506Y0100197D01*
X0121546Y0100276D01*
X0121590Y0100353D01*
X0121637Y0100428D01*
X0121687Y0100500D01*
X0121741Y0100571D01*
X0121797Y0100638D01*
X0121857Y0100704D01*
X0121919Y0100766D01*
X0121985Y0100826D01*
X0122052Y0100882D01*
X0122123Y0100936D01*
X0122195Y0100986D01*
X0122270Y0101033D01*
X0122347Y0101077D01*
X0122426Y0101117D01*
X0122506Y0101154D01*
X0122588Y0101186D01*
X0122672Y0101216D01*
X0122756Y0101241D01*
X0122842Y0101263D01*
X0122928Y0101280D01*
X0123016Y0101294D01*
X0123104Y0101304D01*
X0123192Y0101310D01*
X0123280Y0101312D01*
X0123368Y0101310D01*
X0123456Y0101304D01*
X0123544Y0101294D01*
X0123632Y0101280D01*
X0123718Y0101263D01*
X0123804Y0101241D01*
X0123888Y0101216D01*
X0123972Y0101186D01*
X0124054Y0101154D01*
X0124134Y0101117D01*
X0124213Y0101077D01*
X0124290Y0101033D01*
X0124365Y0100986D01*
X0124437Y0100936D01*
X0124508Y0100882D01*
X0124575Y0100826D01*
X0124641Y0100766D01*
X0124703Y0100704D01*
X0124763Y0100638D01*
X0124819Y0100571D01*
X0124873Y0100500D01*
X0124923Y0100428D01*
X0124970Y0100353D01*
X0125014Y0100276D01*
X0125054Y0100197D01*
X0125091Y0100117D01*
X0125123Y0100035D01*
X0125153Y0099951D01*
X0125178Y0099867D01*
X0125200Y0099781D01*
X0125217Y0099695D01*
X0125231Y0099607D01*
X0125241Y0099519D01*
X0125247Y0099431D01*
X0125249Y0099343D01*
X0125247Y0099255D01*
X0125241Y0099167D01*
X0125231Y0099079D01*
X0125217Y0098991D01*
X0125200Y0098905D01*
X0125178Y0098819D01*
X0125153Y0098735D01*
X0125123Y0098651D01*
X0125091Y0098569D01*
X0125054Y0098489D01*
X0125014Y0098410D01*
X0124970Y0098333D01*
X0124923Y0098258D01*
X0124873Y0098186D01*
X0124819Y0098115D01*
X0124763Y0098048D01*
X0124703Y0097982D01*
X0124641Y0097920D01*
X0124575Y0097860D01*
X0124508Y0097804D01*
X0124437Y0097750D01*
X0124365Y0097700D01*
X0124290Y0097653D01*
X0124213Y0097609D01*
X0124134Y0097569D01*
X0124054Y0097532D01*
X0123972Y0097500D01*
X0123888Y0097470D01*
X0123804Y0097445D01*
X0123718Y0097423D01*
X0123632Y0097406D01*
X0123544Y0097392D01*
X0123456Y0097382D01*
X0123368Y0097376D01*
X0123280Y0097374D01*
X0123192Y0097376D01*
X0123104Y0097382D01*
X0123016Y0097392D01*
X0122928Y0097406D01*
X0122842Y0097423D01*
X0122756Y0097445D01*
X0122672Y0097470D01*
X0122588Y0097500D01*
X0122506Y0097532D01*
X0122426Y0097569D01*
X0122347Y0097609D01*
X0122270Y0097653D01*
X0122195Y0097700D01*
X0122123Y0097750D01*
X0122052Y0097804D01*
X0121985Y0097860D01*
X0121919Y0097920D01*
X0121857Y0097982D01*
X0121797Y0098048D01*
X0121741Y0098115D01*
X0121687Y0098186D01*
X0121637Y0098258D01*
X0121590Y0098333D01*
X0121546Y0098410D01*
X0121506Y0098489D01*
X0121469Y0098569D01*
X0121437Y0098651D01*
X0121407Y0098735D01*
X0121382Y0098819D01*
X0121360Y0098905D01*
X0121343Y0098991D01*
X0121329Y0099079D01*
X0121319Y0099167D01*
X0121313Y0099255D01*
X0121311Y0099343D01*
X0119343Y0095406D02*
X0099657Y0095406D01*
X0099657Y0083594D01*
X0119343Y0083594D01*
X0119343Y0095406D01*
X0280898Y0090898D02*
X0280898Y0103102D01*
X0293102Y0103102D01*
X0293102Y0090898D01*
X0287000Y0090898D01*
X0280898Y0090898D01*
X0290818Y0092472D02*
X0290820Y0092525D01*
X0290826Y0092578D01*
X0290836Y0092630D01*
X0290850Y0092681D01*
X0290867Y0092731D01*
X0290888Y0092780D01*
X0290913Y0092827D01*
X0290941Y0092872D01*
X0290973Y0092915D01*
X0291008Y0092955D01*
X0291045Y0092992D01*
X0291085Y0093027D01*
X0291128Y0093059D01*
X0291173Y0093087D01*
X0291220Y0093112D01*
X0291269Y0093133D01*
X0291319Y0093150D01*
X0291370Y0093164D01*
X0291422Y0093174D01*
X0291475Y0093180D01*
X0291528Y0093182D01*
X0291581Y0093180D01*
X0291634Y0093174D01*
X0291686Y0093164D01*
X0291737Y0093150D01*
X0291787Y0093133D01*
X0291836Y0093112D01*
X0291883Y0093087D01*
X0291928Y0093059D01*
X0291971Y0093027D01*
X0292011Y0092992D01*
X0292048Y0092955D01*
X0292083Y0092915D01*
X0292115Y0092872D01*
X0292143Y0092827D01*
X0292168Y0092780D01*
X0292189Y0092731D01*
X0292206Y0092681D01*
X0292220Y0092630D01*
X0292230Y0092578D01*
X0292236Y0092525D01*
X0292238Y0092472D01*
X0292236Y0092419D01*
X0292230Y0092366D01*
X0292220Y0092314D01*
X0292206Y0092263D01*
X0292189Y0092213D01*
X0292168Y0092164D01*
X0292143Y0092117D01*
X0292115Y0092072D01*
X0292083Y0092029D01*
X0292048Y0091989D01*
X0292011Y0091952D01*
X0291971Y0091917D01*
X0291928Y0091885D01*
X0291883Y0091857D01*
X0291836Y0091832D01*
X0291787Y0091811D01*
X0291737Y0091794D01*
X0291686Y0091780D01*
X0291634Y0091770D01*
X0291581Y0091764D01*
X0291528Y0091762D01*
X0291475Y0091764D01*
X0291422Y0091770D01*
X0291370Y0091780D01*
X0291319Y0091794D01*
X0291269Y0091811D01*
X0291220Y0091832D01*
X0291173Y0091857D01*
X0291128Y0091885D01*
X0291085Y0091917D01*
X0291045Y0091952D01*
X0291008Y0091989D01*
X0290973Y0092029D01*
X0290941Y0092072D01*
X0290913Y0092117D01*
X0290888Y0092164D01*
X0290867Y0092213D01*
X0290850Y0092263D01*
X0290836Y0092314D01*
X0290826Y0092366D01*
X0290820Y0092419D01*
X0290818Y0092472D01*
X0287256Y0106154D02*
X0281744Y0106154D01*
X0281744Y0112846D01*
X0287256Y0112846D01*
X0287256Y0106154D01*
X0291650Y0120050D02*
X0307350Y0120050D01*
X0307350Y0138950D01*
X0291650Y0138950D01*
X0291650Y0120050D01*
X0304500Y0119500D02*
X0304500Y0139500D01*
X0292945Y0151094D02*
X0286055Y0151094D01*
X0286055Y0162906D01*
X0292945Y0162906D01*
X0292945Y0151094D01*
X0356000Y0174087D02*
X0356000Y0109913D01*
X0383500Y0109913D01*
X0383500Y0174087D01*
X0356000Y0174087D01*
X0328536Y0200366D02*
X0328538Y0200428D01*
X0328544Y0200491D01*
X0328554Y0200552D01*
X0328568Y0200613D01*
X0328585Y0200673D01*
X0328606Y0200732D01*
X0328632Y0200789D01*
X0328660Y0200844D01*
X0328692Y0200898D01*
X0328728Y0200949D01*
X0328766Y0200999D01*
X0328808Y0201045D01*
X0328852Y0201089D01*
X0328900Y0201130D01*
X0328949Y0201168D01*
X0329001Y0201202D01*
X0329055Y0201233D01*
X0329111Y0201261D01*
X0329169Y0201285D01*
X0329228Y0201306D01*
X0329288Y0201322D01*
X0329349Y0201335D01*
X0329411Y0201344D01*
X0329473Y0201349D01*
X0329536Y0201350D01*
X0329598Y0201347D01*
X0329660Y0201340D01*
X0329722Y0201329D01*
X0329782Y0201314D01*
X0329842Y0201296D01*
X0329900Y0201274D01*
X0329957Y0201248D01*
X0330012Y0201218D01*
X0330065Y0201185D01*
X0330116Y0201149D01*
X0330164Y0201110D01*
X0330210Y0201067D01*
X0330253Y0201022D01*
X0330293Y0200974D01*
X0330330Y0200924D01*
X0330364Y0200871D01*
X0330395Y0200817D01*
X0330421Y0200761D01*
X0330445Y0200703D01*
X0330464Y0200643D01*
X0330480Y0200583D01*
X0330492Y0200521D01*
X0330500Y0200460D01*
X0330504Y0200397D01*
X0330504Y0200335D01*
X0330500Y0200272D01*
X0330492Y0200211D01*
X0330480Y0200149D01*
X0330464Y0200089D01*
X0330445Y0200029D01*
X0330421Y0199971D01*
X0330395Y0199915D01*
X0330364Y0199861D01*
X0330330Y0199808D01*
X0330293Y0199758D01*
X0330253Y0199710D01*
X0330210Y0199665D01*
X0330164Y0199622D01*
X0330116Y0199583D01*
X0330065Y0199547D01*
X0330012Y0199514D01*
X0329957Y0199484D01*
X0329900Y0199458D01*
X0329842Y0199436D01*
X0329782Y0199418D01*
X0329722Y0199403D01*
X0329660Y0199392D01*
X0329598Y0199385D01*
X0329536Y0199382D01*
X0329473Y0199383D01*
X0329411Y0199388D01*
X0329349Y0199397D01*
X0329288Y0199410D01*
X0329228Y0199426D01*
X0329169Y0199447D01*
X0329111Y0199471D01*
X0329055Y0199499D01*
X0329001Y0199530D01*
X0328949Y0199564D01*
X0328900Y0199602D01*
X0328852Y0199643D01*
X0328808Y0199687D01*
X0328766Y0199733D01*
X0328728Y0199783D01*
X0328692Y0199834D01*
X0328660Y0199888D01*
X0328632Y0199943D01*
X0328606Y0200000D01*
X0328585Y0200059D01*
X0328568Y0200119D01*
X0328554Y0200180D01*
X0328544Y0200241D01*
X0328538Y0200304D01*
X0328536Y0200366D01*
X0331094Y0201941D02*
X0342906Y0201941D01*
X0342906Y0207059D01*
X0331094Y0207059D01*
X0331094Y0201941D01*
X0304795Y0201705D02*
X0304795Y0227295D01*
X0279205Y0227295D01*
X0279205Y0201705D01*
X0304795Y0201705D01*
X0216370Y0206000D02*
X0187630Y0206000D01*
X0187630Y0233500D01*
X0216370Y0233500D01*
X0216370Y0206000D01*
X0168870Y0206000D02*
X0168870Y0233500D01*
X0140130Y0233500D01*
X0140130Y0206000D01*
X0168870Y0206000D01*
X0118870Y0206000D02*
X0118870Y0233500D01*
X0090130Y0233500D01*
X0090130Y0206000D01*
X0118870Y0206000D01*
D173*
X0141620Y0189494D03*
X0147420Y0189494D03*
X0119920Y0134494D03*
X0114120Y0134494D03*
X0169120Y0099494D03*
X0174920Y0099494D03*
X0174880Y0089506D03*
X0169080Y0089506D03*
X0117380Y0062006D03*
X0111580Y0062006D03*
X0111620Y0051994D03*
X0117420Y0051994D03*
X0326620Y0226994D03*
X0332420Y0226994D03*
X0344120Y0226994D03*
X0349920Y0226994D03*
D174*
X0354494Y0207380D03*
X0354494Y0201580D03*
X0271994Y0179880D03*
X0271994Y0174080D03*
X0319506Y0097420D03*
X0319506Y0091620D03*
X0371994Y0089880D03*
X0371994Y0084080D03*
X0129506Y0146620D03*
X0129506Y0152420D03*
X0129506Y0164120D03*
X0129506Y0169920D03*
X0129506Y0181620D03*
X0129506Y0187420D03*
D175*
X0272000Y0194106D03*
X0172394Y0079500D03*
D176*
X0165270Y0104214D02*
X0162134Y0107350D01*
X0165270Y0104214D01*
X0162134Y0107350D01*
X0165270Y0104214D01*
X0162134Y0107350D01*
X0165270Y0104214D01*
X0162134Y0107350D01*
X0163702Y0107350D02*
X0163702Y0104214D01*
X0163702Y0107350D01*
X0163702Y0104214D01*
X0163702Y0107350D01*
X0163702Y0104214D01*
X0163702Y0107350D01*
X0163702Y0104214D01*
X0162134Y0104214D02*
X0165270Y0107350D01*
X0162134Y0104214D01*
X0165270Y0107350D01*
X0162134Y0104214D01*
X0165270Y0107350D01*
X0162134Y0104214D01*
X0165270Y0107350D01*
X0165270Y0105782D02*
X0162134Y0105782D01*
X0165270Y0105782D01*
X0162134Y0105782D01*
X0165270Y0105782D01*
X0162134Y0105782D01*
X0165270Y0105782D01*
X0162134Y0105782D01*
X0138590Y0112002D02*
X0135454Y0112002D01*
X0137806Y0114354D01*
X0137806Y0109650D01*
X0133986Y0110434D02*
X0133986Y0114354D01*
X0130850Y0114354D02*
X0130850Y0110434D01*
X0131634Y0109650D01*
X0133202Y0109650D01*
X0133986Y0110434D01*
X0274650Y0105853D02*
X0274650Y0102767D01*
X0275267Y0102150D01*
X0276502Y0102150D01*
X0277119Y0102767D01*
X0277119Y0105853D01*
X0278333Y0105236D02*
X0278950Y0105853D01*
X0280185Y0105853D01*
X0280802Y0105236D01*
X0280802Y0104619D01*
X0280185Y0104002D01*
X0280802Y0103384D01*
X0280802Y0102767D01*
X0280185Y0102150D01*
X0278950Y0102150D01*
X0278333Y0102767D01*
X0279568Y0104002D02*
X0280185Y0104002D01*
D177*
X0161700Y0102300D02*
X0161700Y0095700D01*
X0161700Y0093300D01*
X0161700Y0086700D01*
X0160500Y0086700D01*
X0160500Y0082300D01*
X0158500Y0082300D01*
X0158500Y0086700D01*
X0160500Y0086700D01*
X0158500Y0086700D02*
X0155500Y0086700D01*
X0155500Y0082300D01*
X0153500Y0082300D01*
X0153500Y0086700D01*
X0135500Y0086700D01*
X0135500Y0082300D01*
X0133500Y0082300D01*
X0133500Y0086700D01*
X0135500Y0086700D01*
X0138500Y0086700D01*
X0138500Y0082300D01*
X0140500Y0082300D01*
X0140500Y0086700D01*
X0138500Y0086700D01*
X0140500Y0086700D02*
X0143500Y0086700D01*
X0143500Y0082300D01*
X0145500Y0082300D01*
X0145500Y0086700D01*
X0143500Y0086700D01*
X0145500Y0086700D02*
X0148500Y0086700D01*
X0148500Y0082300D01*
X0150500Y0082300D01*
X0150500Y0086700D01*
X0148500Y0086700D01*
X0150500Y0086700D02*
X0153500Y0086700D01*
X0155500Y0086700D01*
X0133500Y0086700D02*
X0130500Y0086700D01*
X0130500Y0082300D01*
X0128500Y0082300D01*
X0128500Y0086700D01*
X0130500Y0086700D01*
X0128500Y0086700D02*
X0127300Y0086700D01*
X0127300Y0102300D01*
X0128500Y0102300D01*
X0128500Y0106700D01*
X0130500Y0106700D01*
X0130500Y0102300D01*
X0158500Y0102300D01*
X0158500Y0106700D01*
X0160500Y0106700D01*
X0160500Y0102300D01*
X0158500Y0102300D01*
X0155500Y0102300D01*
X0155500Y0106700D01*
X0153500Y0106700D01*
X0153500Y0102300D01*
X0155500Y0102300D01*
X0153500Y0102300D02*
X0150500Y0102300D01*
X0150500Y0106700D01*
X0148500Y0106700D01*
X0148500Y0102300D01*
X0150500Y0102300D01*
X0148500Y0102300D02*
X0145500Y0102300D01*
X0145500Y0106700D01*
X0143500Y0106700D01*
X0143500Y0102300D01*
X0145500Y0102300D01*
X0143500Y0102300D02*
X0140500Y0102300D01*
X0140500Y0106700D01*
X0138500Y0106700D01*
X0138500Y0102300D01*
X0140500Y0102300D01*
X0138500Y0102300D02*
X0135500Y0102300D01*
X0135500Y0106700D01*
X0133500Y0106700D01*
X0133500Y0102300D01*
X0135500Y0102300D01*
X0133500Y0102300D02*
X0130500Y0102300D01*
X0128500Y0102300D01*
X0160500Y0102300D02*
X0161700Y0102300D01*
M02*
